Mate-Italic.otf.ufo
<glyph name="exclam" format="1">
  <advance width="267"/>
  <unicode hex="0021"/>
  <outline>
    <contour>
      <point x="105" y="160" type="line"/>
      <point x="137" y="164" type="line"/>
      <point x="215" y="350"/>
      <point x="252" y="486"/>
      <point x="260" y="670" type="curve"/>
      <point x="246" y="679" type="line"/>
      <point x="239" y="679"/>
      <point x="220" y="677"/>
      <point x="195" y="664" type="curve"/>
    </contour>
    <contour>
      <point x="123" y="100" type="curve" smooth="yes"/>
      <point x="107" y="100"/>
      <point x="75" y="93"/>
      <point x="75" y="93" type="curve"/>
      <point x="74" y="93" smooth="yes"/>
      <point x="57" y="48" smooth="yes"/>
      <point x="57" y="20" type="curve" smooth="yes"/>
      <point x="57" y="1" smooth="yes"/>
      <point x="64" y="-13" smooth="yes"/>
      <point x="81" y="-13" type="curve" smooth="yes"/>
      <point x="100" y="-13"/>
      <point x="131" y="-5"/>
      <point x="131" y="-5" type="curve" name="hr01"/>
      <point x="132" y="-5" smooth="yes"/>
      <point x="148" y="40" smooth="yes"/>
      <point x="148" y="66" type="curve" smooth="yes"/>
      <point x="148" y="85" smooth="yes"/>
      <point x="141" y="100" smooth="yes"/>
    </contour>
  </outline>
</glyph>
<glyph name="quotedbl" format="1">
  <advance width="300"/>
  <unicode hex="0022"/>
  <outline>
    <contour>
      <point x="268" y="693" type="curve" name="hr00"/>
      <point x="252" y="612"/>
      <point x="249" y="511"/>
      <point x="249" y="474" type="curve"/>
      <point x="276" y="474" type="line"/>
      <point x="343" y="699" type="line"/>
      <point x="328" y="708" type="line"/>
      <point x="322" y="708"/>
      <point x="298" y="706"/>
    </contour>
    <contour>
      <point x="143" y="693" type="curve"/>
      <point x="127" y="612"/>
      <point x="124" y="511"/>
      <point x="124" y="474" type="curve"/>
      <point x="151" y="474" type="line"/>
      <point x="218" y="699" type="line"/>
      <point x="203" y="708" type="line"/>
      <point x="197" y="708"/>
      <point x="173" y="706"/>
    </contour>
  </outline>
</glyph>
<glyph name="dollar" format="1">
  <advance width="484"/>
  <unicode hex="0024"/>
  <outline>
    <contour>
      <point x="292" y="203" type="line" smooth="yes" name="hr00"/>
      <point x="317" y="186" smooth="yes"/>
      <point x="328" y="162" smooth="yes"/>
      <point x="328" y="137" type="curve" smooth="yes"/>
      <point x="328" y="88"/>
      <point x="283" y="39"/>
      <point x="214" y="39" type="curve"/>
      <point x="258" y="225" type="line"/>
    </contour>
    <contour>
      <point x="186" y="408" type="curve" smooth="yes"/>
      <point x="186" y="466"/>
      <point x="231" y="493"/>
      <point x="286" y="499" type="curve"/>
      <point x="245" y="328" type="line"/>
      <point x="224" y="343" type="line" smooth="yes"/>
      <point x="205" y="356" smooth="yes"/>
      <point x="186" y="376" smooth="yes"/>
    </contour>
    <contour>
      <point x="111" y="61" type="curve"/>
      <point x="112" y="71" smooth="yes"/>
      <point x="113" y="102" smooth="yes"/>
      <point x="113" y="121" type="curve" smooth="yes"/>
      <point x="113" y="135"/>
      <point x="112" y="148"/>
      <point x="112" y="162" type="curve"/>
      <point x="91" y="166" type="line"/>
      <point x="40" y="28" type="line"/>
      <point x="85" y="7"/>
      <point x="125" y="-5"/>
      <point x="164" y="-10" type="curve"/>
      <point x="145" y="-88" type="line"/>
      <point x="183" y="-88" type="line"/>
      <point x="201" y="-12" type="line"/>
      <point x="305" y="-10" smooth="yes"/>
      <point x="408" y="47" smooth="yes"/>
      <point x="408" y="154" type="curve" smooth="yes"/>
      <point x="408" y="195" smooth="yes"/>
      <point x="383" y="237" smooth="yes"/>
      <point x="338" y="267" type="curve" smooth="yes"/>
      <point x="278" y="307" type="line"/>
      <point x="324" y="501" type="line"/>
      <point x="363" y="498"/>
      <point x="403" y="492"/>
      <point x="433" y="485" type="curve"/>
      <point x="449" y="534" type="line"/>
      <point x="431" y="540"/>
      <point x="369" y="558"/>
      <point x="339" y="561" type="curve"/>
      <point x="355" y="627" type="line"/>
      <point x="317" y="627" type="line"/>
      <point x="301" y="562" type="line"/>
      <point x="188" y="537" smooth="yes"/>
      <point x="118" y="469" smooth="yes"/>
      <point x="118" y="389" type="curve" smooth="yes"/>
      <point x="118" y="348" smooth="yes"/>
      <point x="136" y="309" smooth="yes"/>
      <point x="175" y="282" type="curve" smooth="yes"/>
      <point x="226" y="247" type="line"/>
      <point x="176" y="42" type="line"/>
      <point x="153" y="46"/>
      <point x="129" y="53"/>
    </contour>
  </outline>
</glyph>
<glyph name="ampersand" format="1">
  <advance width="580"/>
  <unicode hex="0026"/>
  <outline>
    <contour>
      <point x="252" y="479" type="curve" smooth="yes"/>
      <point x="252" y="542" smooth="yes"/>
      <point x="301" y="620" smooth="yes"/>
      <point x="401" y="620" type="curve" smooth="yes"/>
      <point x="441" y="620"/>
      <point x="476" y="612"/>
      <point x="518" y="604" type="curve"/>
      <point x="534" y="653" type="line"/>
      <point x="514" y="660"/>
      <point x="459" y="681"/>
      <point x="435" y="681" type="curve"/>
      <point x="330" y="669" smooth="yes"/>
      <point x="185" y="584" smooth="yes"/>
      <point x="185" y="461" type="curve" smooth="yes"/>
      <point x="185" y="440"/>
      <point x="187" y="418"/>
      <point x="192" y="395" type="curve"/>
      <point x="90" y="316" smooth="yes"/>
      <point x="20" y="210" smooth="yes"/>
      <point x="20" y="118" type="curve" smooth="yes"/>
      <point x="20" y="43" smooth="yes"/>
      <point x="65" y="-14" smooth="yes"/>
      <point x="172" y="-14" type="curve" smooth="yes"/>
      <point x="221" y="-14"/>
      <point x="289" y="8"/>
      <point x="353" y="54" type="curve"/>
      <point x="381" y="13"/>
      <point x="402" y="-12"/>
      <point x="409" y="-12" type="curve" name="hr01"/>
      <point x="533" y="7" type="line" name="hr02"/>
      <point x="539" y="26" type="line"/>
      <point x="524" y="37"/>
      <point x="475" y="50"/>
      <point x="444" y="53" type="curve"/>
      <point x="432" y="68"/>
      <point x="421" y="85"/>
      <point x="409" y="102" type="curve"/>
      <point x="482" y="175"/>
      <point x="538" y="286"/>
      <point x="538" y="437" type="curve"/>
      <point x="520" y="447" type="line"/>
      <point x="513" y="447"/>
      <point x="485" y="442"/>
      <point x="445" y="403" type="curve"/>
      <point x="472" y="300" type="line"/>
      <point x="459" y="237"/>
      <point x="426" y="182"/>
      <point x="385" y="139" type="curve"/>
      <point x="312" y="254" smooth="yes"/>
      <point x="252" y="390" smooth="yes"/>
    </contour>
    <contour>
      <point x="329" y="90" type="curve"/>
      <point x="280" y="54" smooth="yes"/>
      <point x="226" y="34" smooth="yes"/>
      <point x="185" y="34" type="curve" smooth="yes"/>
      <point x="122" y="34" smooth="yes"/>
      <point x="96" y="74" smooth="yes"/>
      <point x="96" y="126" type="curve" smooth="yes"/>
      <point x="96" y="196"/>
      <point x="141" y="286"/>
      <point x="205" y="347" type="curve"/>
      <point x="233" y="258"/>
      <point x="285" y="161"/>
    </contour>
  </outline>
</glyph>
<glyph name="quotesingle" format="1">
  <advance width="175"/>
  <unicode hex="0027"/>
  <outline>
    <contour>
      <point x="143" y="693" type="curve" name="hr00"/>
      <point x="127" y="612"/>
      <point x="124" y="511"/>
      <point x="124" y="474" type="curve"/>
      <point x="151" y="474" type="line"/>
      <point x="218" y="699" type="line"/>
      <point x="203" y="708" type="line"/>
      <point x="197" y="708"/>
      <point x="173" y="706"/>
    </contour>
  </outline>
</glyph>
<glyph name="parenleft" format="1">
  <advance width="235"/>
  <unicode hex="0028"/>
  <outline>
    <contour>
      <point x="165" y="-237" type="line" name="hr00"/>
      <point x="131" y="-162" smooth="yes"/>
      <point x="113" y="-46" smooth="yes"/>
      <point x="113" y="73" type="curve" smooth="yes"/>
      <point x="113" y="256"/>
      <point x="169" y="554"/>
      <point x="320" y="716" type="curve"/>
      <point x="297" y="728" type="line"/>
      <point x="132" y="593" smooth="yes"/>
      <point x="38" y="333" smooth="yes"/>
      <point x="38" y="106" type="curve" smooth="yes"/>
      <point x="38" y="-27"/>
      <point x="69" y="-154"/>
      <point x="135" y="-241" type="curve"/>
    </contour>
  </outline>
</glyph>
<glyph name="parenright" format="1">
  <advance width="235"/>
  <unicode hex="0029"/>
  <outline>
    <contour>
      <point x="70" y="724" type="line" name="hr00"/>
      <point x="104" y="649" smooth="yes"/>
      <point x="122" y="533" smooth="yes"/>
      <point x="122" y="413" type="curve" smooth="yes"/>
      <point x="122" y="231"/>
      <point x="65" y="-67"/>
      <point x="-85" y="-229" type="curve"/>
      <point x="-60" y="-241" type="line"/>
      <point x="102" y="-106" smooth="yes"/>
      <point x="197" y="152" smooth="yes"/>
      <point x="197" y="378" type="curve" smooth="yes"/>
      <point x="197" y="512"/>
      <point x="165" y="641"/>
      <point x="101" y="728" type="curve"/>
    </contour>
  </outline>
</glyph>
<glyph name="asterisk" format="1">
  <advance width="427"/>
  <unicode hex="002A"/>
  <outline>
    <contour>
      <point x="328" y="690" type="curve" smooth="yes" name="hr00"/>
      <point x="328" y="706" smooth="yes"/>
      <point x="320" y="712" smooth="yes"/>
      <point x="299" y="712" type="curve" smooth="yes"/>
      <point x="277" y="712" smooth="yes"/>
      <point x="244" y="703" smooth="yes"/>
      <point x="244" y="679" type="curve" smooth="yes"/>
      <point x="244" y="639"/>
      <point x="250" y="595"/>
      <point x="259" y="551" type="curve"/>
      <point x="274" y="551" type="line"/>
      <point x="293" y="591" smooth="yes"/>
      <point x="328" y="669" smooth="yes"/>
    </contour>
    <contour>
      <point x="121" y="645" type="curve" smooth="yes"/>
      <point x="100" y="645" smooth="yes"/>
      <point x="95" y="609" smooth="yes"/>
      <point x="95" y="594" type="curve" smooth="yes"/>
      <point x="95" y="579" smooth="yes"/>
      <point x="100" y="564" smooth="yes"/>
      <point x="114" y="560" type="curve" smooth="yes"/>
      <point x="152" y="548"/>
      <point x="196" y="540"/>
      <point x="240" y="535" type="curve"/>
      <point x="245" y="549" type="line"/>
      <point x="222" y="571" smooth="yes"/>
      <point x="150" y="645" smooth="yes"/>
    </contour>
    <contour>
      <point x="434" y="516" type="curve" smooth="yes"/>
      <point x="444" y="519" smooth="yes"/>
      <point x="449" y="525" smooth="yes"/>
      <point x="449" y="535" type="curve" smooth="yes"/>
      <point x="449" y="540" smooth="yes"/>
      <point x="448" y="545" smooth="yes"/>
      <point x="446" y="551" type="curve" smooth="yes"/>
      <point x="439" y="569" smooth="yes"/>
      <point x="423" y="594" smooth="yes"/>
      <point x="404" y="594" type="curve" smooth="yes"/>
      <point x="375" y="594"/>
      <point x="302" y="553"/>
      <point x="281" y="538" type="curve"/>
      <point x="285" y="523" type="line"/>
      <point x="318" y="520" smooth="yes"/>
      <point x="375" y="514" smooth="yes"/>
      <point x="409" y="514" type="curve" smooth="yes"/>
      <point x="420" y="514" smooth="yes"/>
      <point x="429" y="514" smooth="yes"/>
    </contour>
    <contour>
      <point x="113" y="440" type="curve" smooth="yes"/>
      <point x="109" y="435" smooth="yes"/>
      <point x="108" y="431" smooth="yes"/>
      <point x="108" y="427" type="curve" smooth="yes"/>
      <point x="108" y="420" smooth="yes"/>
      <point x="113" y="413" smooth="yes"/>
      <point x="124" y="405" type="curve" smooth="yes"/>
      <point x="135" y="397" smooth="yes"/>
      <point x="152" y="389" smooth="yes"/>
      <point x="166" y="389" type="curve" smooth="yes"/>
      <point x="174" y="389" smooth="yes"/>
      <point x="182" y="392" smooth="yes"/>
      <point x="187" y="399" type="curve" smooth="yes"/>
      <point x="210" y="432"/>
      <point x="231" y="471"/>
      <point x="250" y="512" type="curve"/>
      <point x="238" y="521" type="line"/>
      <point x="200" y="499" smooth="yes"/>
      <point x="125" y="457" smooth="yes"/>
    </contour>
    <contour>
      <point x="301" y="361" type="curve" smooth="yes"/>
      <point x="305" y="355" smooth="yes"/>
      <point x="310" y="352" smooth="yes"/>
      <point x="316" y="352" type="curve" smooth="yes"/>
      <point x="322" y="352" smooth="yes"/>
      <point x="329" y="355" smooth="yes"/>
      <point x="338" y="361" type="curve" smooth="yes"/>
      <point x="351" y="371" smooth="yes"/>
      <point x="367" y="389" smooth="yes"/>
      <point x="367" y="406" type="curve" smooth="yes"/>
      <point x="367" y="411" smooth="yes"/>
      <point x="366" y="415" smooth="yes"/>
      <point x="363" y="419" type="curve" smooth="yes"/>
      <point x="338" y="451"/>
      <point x="308" y="483"/>
      <point x="275" y="514" type="curve"/>
      <point x="262" y="505" type="line"/>
      <point x="272" y="462" smooth="yes"/>
      <point x="288" y="378" smooth="yes"/>
    </contour>
  </outline>
</glyph>
<glyph name="plus" format="1">
  <advance width="484"/>
  <unicode hex="002B"/>
  <outline>
    <contour>
      <point x="88" y="249" type="line" name="hr00"/>
      <point x="234" y="249" type="line"/>
      <point x="207" y="95" type="line"/>
      <point x="261" y="95" type="line"/>
      <point x="288" y="249" type="line"/>
      <point x="434" y="249" type="line"/>
      <point x="444" y="306" type="line"/>
      <point x="298" y="306" type="line"/>
      <point x="325" y="459" type="line"/>
      <point x="271" y="459" type="line"/>
      <point x="244" y="306" type="line"/>
      <point x="98" y="306" type="line"/>
    </contour>
  </outline>
</glyph>
<glyph name="comma" format="1">
  <advance width="197"/>
  <unicode hex="002C"/>
  <outline>
    <contour>
      <point x="70" y="110" type="curve" name="hr00"/>
      <point x="79" y="85" smooth="yes"/>
      <point x="84" y="62" smooth="yes"/>
      <point x="84" y="41" type="curve" smooth="yes"/>
      <point x="84" y="-13"/>
      <point x="55" y="-55"/>
      <point x="17" y="-107" type="curve"/>
      <point x="39" y="-123" type="line"/>
      <point x="62" y="-101"/>
      <point x="152" y="-4"/>
      <point x="168" y="60" type="curve"/>
      <point x="168" y="96" smooth="yes"/>
      <point x="156" y="121" smooth="yes"/>
      <point x="126" y="121" type="curve" smooth="yes"/>
      <point x="109" y="121"/>
      <point x="82" y="114"/>
    </contour>
  </outline>
</glyph>
<glyph name="hyphen" format="1">
  <advance width="390"/>
  <unicode hex="002D"/>
  <outline>
    <contour>
      <point x="333" y="279" type="line" name="hr00"/>
      <point x="50" y="279" type="line"/>
      <point x="55" y="229" type="line"/>
      <point x="83" y="224" smooth="yes"/>
      <point x="124" y="220" smooth="yes"/>
      <point x="167" y="220" type="curve" smooth="yes"/>
      <point x="232" y="220"/>
      <point x="301" y="227"/>
      <point x="340" y="246" type="curve"/>
    </contour>
  </outline>
</glyph>
<glyph name="period" format="1">
  <advance width="197"/>
  <unicode hex="002E"/>
  <outline>
    <contour>
      <point x="123" y="121" type="curve" smooth="yes" name="hr00"/>
      <point x="102" y="121"/>
      <point x="65" y="114"/>
      <point x="65" y="114" type="curve"/>
      <point x="62" y="108" smooth="yes"/>
      <point x="44" y="60" smooth="yes"/>
      <point x="44" y="26" type="curve" smooth="yes"/>
      <point x="44" y="4" smooth="yes"/>
      <point x="51" y="-12" smooth="yes"/>
      <point x="73" y="-12" type="curve" smooth="yes"/>
      <point x="95" y="-12"/>
      <point x="131" y="-3"/>
      <point x="131" y="-3" type="curve"/>
      <point x="134" y="3" smooth="yes"/>
      <point x="151" y="50" smooth="yes"/>
      <point x="151" y="81" type="curve" smooth="yes"/>
      <point x="151" y="104" smooth="yes"/>
      <point x="144" y="121" smooth="yes"/>
    </contour>
  </outline>
</glyph>
<glyph name="zero" format="1">
  <advance width="484"/>
  <unicode hex="0030"/>
  <outline>
    <contour>
      <point x="480" y="368" type="curve" name="hr00"/>
      <point x="480" y="498" smooth="yes"/>
      <point x="411" y="563" smooth="yes"/>
      <point x="315" y="563" type="curve" smooth="yes"/>
      <point x="121" y="563" smooth="yes"/>
      <point x="31" y="334" smooth="yes"/>
      <point x="31" y="179" type="curve" smooth="yes"/>
      <point x="31" y="50" smooth="yes"/>
      <point x="96" y="-12" smooth="yes"/>
      <point x="192" y="-12" type="curve" smooth="yes"/>
      <point x="388" y="-12"/>
      <point x="480" y="209"/>
    </contour>
    <contour>
      <point x="209" y="37" type="curve" smooth="yes"/>
      <point x="143" y="37" smooth="yes"/>
      <point x="107" y="80" smooth="yes"/>
      <point x="107" y="170" type="curve" smooth="yes"/>
      <point x="107" y="289" smooth="yes"/>
      <point x="155" y="513" smooth="yes"/>
      <point x="301" y="513" type="curve" smooth="yes"/>
      <point x="368" y="513" smooth="yes"/>
      <point x="402" y="470" smooth="yes"/>
      <point x="402" y="380" type="curve" smooth="yes"/>
      <point x="402" y="262" smooth="yes"/>
      <point x="356" y="37" smooth="yes"/>
    </contour>
  </outline>
</glyph>
<glyph name="one" format="1">
  <advance width="484"/>
  <unicode hex="0031"/>
  <outline>
    <contour>
      <point x="402" y="22" type="line" name="hr00"/>
      <point x="368" y="34"/>
      <point x="328" y="47"/>
      <point x="292" y="55" type="curve"/>
      <point x="385" y="532" type="line" smooth="yes"/>
      <point x="385" y="535" smooth="yes"/>
      <point x="386" y="537" smooth="yes"/>
      <point x="386" y="540" type="curve" smooth="yes"/>
      <point x="386" y="552"/>
      <point x="380" y="560"/>
      <point x="374" y="563" type="curve"/>
      <point x="358" y="563"/>
      <point x="157" y="519"/>
      <point x="157" y="518" type="curve"/>
      <point x="172" y="466" type="line"/>
      <point x="304" y="499" type="line"/>
      <point x="219" y="57" type="line"/>
      <point x="167" y="48"/>
      <point x="120" y="37"/>
      <point x="75" y="26" type="curve"/>
      <point x="83" y="0" type="line"/>
      <point x="396" y="0" type="line"/>
    </contour>
  </outline>
</glyph>
<glyph name="two" format="1">
  <advance width="484"/>
  <unicode hex="0032"/>
  <outline>
    <contour>
      <point x="12" y="0" type="line"/>
      <point x="140" y="0"/>
      <point x="329" y="0"/>
      <point x="391" y="-4" type="curve" name="hr01"/>
      <point x="405" y="14"/>
      <point x="416" y="34"/>
      <point x="422" y="55" type="curve"/>
      <point x="416" y="72" type="line"/>
      <point x="361" y="62"/>
      <point x="223" y="50"/>
      <point x="73" y="47" type="curve"/>
      <point x="271" y="208" type="line" smooth="yes"/>
      <point x="355" y="276" smooth="yes"/>
      <point x="421" y="347" smooth="yes"/>
      <point x="421" y="427" type="curve" smooth="yes"/>
      <point x="421" y="507"/>
      <point x="328" y="551"/>
      <point x="244" y="563" type="curve"/>
      <point x="213" y="563"/>
      <point x="136" y="537"/>
      <point x="109" y="529" type="curve"/>
      <point x="121" y="489" type="line"/>
      <point x="164" y="496" smooth="yes"/>
      <point x="199" y="504" smooth="yes"/>
      <point x="241" y="504" type="curve" smooth="yes"/>
      <point x="311" y="504" smooth="yes"/>
      <point x="345" y="465" smooth="yes"/>
      <point x="345" y="429" type="curve" smooth="yes"/>
      <point x="345" y="379" smooth="yes"/>
      <point x="309" y="328" smooth="yes"/>
      <point x="261" y="283" type="curve" smooth="yes" name="hr02"/>
      <point x="-3" y="32" type="line"/>
    </contour>
  </outline>
</glyph>
<glyph name="three" format="1">
  <advance width="484"/>
  <unicode hex="0033"/>
  <outline>
    <contour>
      <point x="443" y="427" type="curve" smooth="yes"/>
      <point x="443" y="521"/>
      <point x="344" y="550"/>
      <point x="270" y="563" type="curve"/>
      <point x="239" y="563"/>
      <point x="162" y="537"/>
      <point x="135" y="529" type="curve"/>
      <point x="147" y="489" type="line"/>
      <point x="194" y="496" smooth="yes"/>
      <point x="231" y="504" smooth="yes"/>
      <point x="277" y="504" type="curve" smooth="yes"/>
      <point x="340" y="504" smooth="yes"/>
      <point x="371" y="465" smooth="yes"/>
      <point x="371" y="429" type="curve" smooth="yes"/>
      <point x="371" y="363"/>
      <point x="308" y="287"/>
      <point x="188" y="272" type="curve"/>
      <point x="187" y="238" type="line"/>
      <point x="288" y="237" smooth="yes"/>
      <point x="338" y="189" smooth="yes"/>
      <point x="338" y="128" type="curve" smooth="yes" name="hr01"/>
      <point x="338" y="30" smooth="yes"/>
      <point x="248" y="-19" smooth="yes"/>
      <point x="172" y="-19" type="curve" smooth="yes"/>
      <point x="139" y="-19"/>
      <point x="106" y="-11"/>
      <point x="79" y="4" type="curve"/>
      <point x="80" y="14" smooth="yes"/>
      <point x="81" y="45" smooth="yes"/>
      <point x="81" y="64" type="curve" smooth="yes"/>
      <point x="81" y="78"/>
      <point x="80" y="91"/>
      <point x="80" y="105" type="curve"/>
      <point x="59" y="109" type="line"/>
      <point x="8" y="-29" type="line"/>
      <point x="49" y="-52" smooth="yes"/>
      <point x="114" y="-68" smooth="yes"/>
      <point x="180" y="-68" type="curve" smooth="yes"/>
      <point x="283" y="-68" smooth="yes"/>
      <point x="415" y="8" smooth="yes"/>
      <point x="415" y="134" type="curve" smooth="yes"/>
      <point x="415" y="194"/>
      <point x="373" y="248"/>
      <point x="292" y="264" type="curve"/>
      <point x="379" y="295" smooth="yes"/>
      <point x="443" y="363" smooth="yes"/>
    </contour>
  </outline>
</glyph>
<glyph name="four" format="1">
  <advance width="484"/>
  <unicode hex="0034"/>
  <outline>
    <contour>
      <point x="422" y="-34" type="line" name="hr00"/>
      <point x="395" y="-22"/>
      <point x="364" y="-10"/>
      <point x="335" y="-3" type="curve"/>
      <point x="353" y="89" type="line"/>
      <point x="447" y="89" type="line"/>
      <point x="456" y="134" type="line"/>
      <point x="361" y="134" type="line"/>
      <point x="405" y="357" type="line" smooth="yes"/>
      <point x="405" y="360" smooth="yes"/>
      <point x="406" y="362" smooth="yes"/>
      <point x="406" y="365" type="curve" smooth="yes"/>
      <point x="406" y="377"/>
      <point x="400" y="385"/>
      <point x="394" y="388" type="curve"/>
      <point x="378" y="388"/>
      <point x="339" y="380"/>
      <point x="339" y="379" type="curve"/>
      <point x="291" y="134" type="line"/>
      <point x="65" y="134" type="line"/>
      <point x="330" y="562" type="line"/>
      <point x="265" y="584" type="line"/>
      <point x="54" y="218" type="line" smooth="yes"/>
      <point x="6" y="135" smooth="yes"/>
      <point x="-8" y="102" smooth="yes"/>
      <point x="-8" y="101" type="curve" smooth="yes"/>
      <point x="-8" y="90" smooth="yes"/>
      <point x="3" y="89" smooth="yes"/>
      <point x="17" y="89" type="curve" smooth="yes"/>
      <point x="283" y="89" type="line"/>
      <point x="266" y="1" type="line"/>
      <point x="223" y="-8"/>
      <point x="183" y="-19"/>
      <point x="145" y="-30" type="curve"/>
      <point x="153" y="-56" type="line"/>
      <point x="416" y="-56" type="line"/>
    </contour>
  </outline>
</glyph>
<glyph name="five" format="1">
  <advance width="484"/>
  <unicode hex="0035"/>
  <outline>
    <contour>
      <point x="70" y="4" type="curve" name="hr00"/>
      <point x="71" y="14" smooth="yes"/>
      <point x="72" y="45" smooth="yes"/>
      <point x="72" y="64" type="curve" smooth="yes"/>
      <point x="72" y="78"/>
      <point x="71" y="91"/>
      <point x="71" y="105" type="curve"/>
      <point x="50" y="109" type="line"/>
      <point x="-1" y="-29" type="line"/>
      <point x="41" y="-52" smooth="yes"/>
      <point x="105" y="-68" smooth="yes"/>
      <point x="172" y="-68" type="curve" smooth="yes"/>
      <point x="280" y="-68" smooth="yes"/>
      <point x="407" y="11" smooth="yes"/>
      <point x="407" y="142" type="curve" smooth="yes"/>
      <point x="407" y="227" smooth="yes"/>
      <point x="350" y="299" smooth="yes"/>
      <point x="189" y="299" type="curve" smooth="yes"/>
      <point x="180" y="299"/>
      <point x="170" y="299"/>
      <point x="161" y="298" type="curve"/>
      <point x="217" y="485" type="line"/>
      <point x="308" y="485"/>
      <point x="378" y="484"/>
      <point x="427" y="481" type="curve"/>
      <point x="441" y="499"/>
      <point x="452" y="519"/>
      <point x="458" y="540" type="curve"/>
      <point x="452" y="557" type="line"/>
      <point x="396" y="546" smooth="yes"/>
      <point x="310" y="532" smooth="yes"/>
      <point x="186" y="532" type="curve" smooth="yes"/>
      <point x="166" y="532" type="line"/>
      <point x="106" y="265" type="line"/>
      <point x="129" y="242" type="line"/>
      <point x="145" y="245" smooth="yes"/>
      <point x="167" y="247" smooth="yes"/>
      <point x="183" y="247" type="curve" smooth="yes"/>
      <point x="280" y="247" smooth="yes"/>
      <point x="329" y="195" smooth="yes"/>
      <point x="329" y="128" type="curve" smooth="yes"/>
      <point x="329" y="30" smooth="yes"/>
      <point x="240" y="-19" smooth="yes"/>
      <point x="164" y="-19" type="curve" smooth="yes"/>
      <point x="131" y="-19"/>
      <point x="97" y="-11"/>
    </contour>
  </outline>
</glyph>
<glyph name="six" format="1">
  <advance width="484"/>
  <unicode hex="0036"/>
  <outline>
    <contour>
      <point x="456" y="670" type="line" name="hr00"/>
      <point x="257" y="558" smooth="yes"/>
      <point x="41" y="394" smooth="yes"/>
      <point x="41" y="157" type="curve" smooth="yes"/>
      <point x="41" y="39" smooth="yes"/>
      <point x="117" y="-12" smooth="yes"/>
      <point x="203" y="-12" type="curve" smooth="yes"/>
      <point x="311" y="-12" smooth="yes"/>
      <point x="442" y="71" smooth="yes"/>
      <point x="442" y="213" type="curve" smooth="yes"/>
      <point x="442" y="305" smooth="yes"/>
      <point x="370" y="350" smooth="yes"/>
      <point x="282" y="350" type="curve" smooth="yes"/>
      <point x="173" y="350" type="line"/>
      <point x="241" y="471"/>
      <point x="366" y="562"/>
      <point x="481" y="632" type="curve"/>
    </contour>
    <contour>
      <point x="260" y="302" type="curve" smooth="yes"/>
      <point x="318" y="302" smooth="yes"/>
      <point x="361" y="283" smooth="yes"/>
      <point x="361" y="216" type="curve" smooth="yes"/>
      <point x="361" y="103" smooth="yes"/>
      <point x="282" y="40" smooth="yes"/>
      <point x="210" y="40" type="curve" smooth="yes"/>
      <point x="157" y="40" smooth="yes"/>
      <point x="123" y="85" smooth="yes"/>
      <point x="123" y="163" type="curve" smooth="yes"/>
      <point x="123" y="207"/>
      <point x="130" y="248"/>
      <point x="144" y="286" type="curve"/>
      <point x="183" y="295" smooth="yes"/>
      <point x="223" y="302" smooth="yes"/>
    </contour>
  </outline>
</glyph>
<glyph name="seven" format="1">
  <advance width="484"/>
  <unicode hex="0037"/>
  <outline>
    <contour>
      <point x="170" y="-68" type="line" name="hr00"/>
      <point x="499" y="546" type="line"/>
      <point x="475" y="564" type="line"/>
      <point x="443" y="532" type="line"/>
      <point x="277" y="532"/>
      <point x="166" y="546"/>
      <point x="93" y="557" type="curve"/>
      <point x="87" y="540" type="line"/>
      <point x="93" y="519"/>
      <point x="104" y="499"/>
      <point x="118" y="481" type="curve"/>
      <point x="186" y="484"/>
      <point x="273" y="485"/>
      <point x="408" y="485" type="curve"/>
      <point x="98" y="-49" type="line"/>
    </contour>
  </outline>
</glyph>
<glyph name="eight" format="1">
  <advance width="484"/>
  <unicode hex="0038"/>
  <outline>
    <contour>
      <point x="32" y="127" type="curve" smooth="yes" name="hr00"/>
      <point x="32" y="46" smooth="yes"/>
      <point x="93" y="-12" smooth="yes"/>
      <point x="196" y="-12" type="curve" smooth="yes"/>
      <point x="342" y="-12" smooth="yes"/>
      <point x="435" y="85" smooth="yes"/>
      <point x="435" y="189" type="curve" smooth="yes"/>
      <point x="435" y="262"/>
      <point x="386" y="310"/>
      <point x="338" y="345" type="curve"/>
      <point x="443" y="401" smooth="yes"/>
      <point x="481" y="491" smooth="yes"/>
      <point x="481" y="543" type="curve" smooth="yes"/>
      <point x="481" y="616" smooth="yes"/>
      <point x="425" y="668" smooth="yes"/>
      <point x="334" y="668" type="curve" smooth="yes"/>
      <point x="201" y="668" smooth="yes"/>
      <point x="122" y="577" smooth="yes"/>
      <point x="122" y="480" type="curve" smooth="yes"/>
      <point x="122" y="420"/>
      <point x="152" y="379"/>
      <point x="196" y="346" type="curve"/>
      <point x="75" y="285" smooth="yes"/>
      <point x="32" y="183" smooth="yes"/>
    </contour>
    <contour>
      <point x="299" y="270" type="line" smooth="yes"/>
      <point x="325" y="250" smooth="yes"/>
      <point x="352" y="219" smooth="yes"/>
      <point x="352" y="175" type="curve" smooth="yes"/>
      <point x="352" y="89" smooth="yes"/>
      <point x="275" y="37" smooth="yes"/>
      <point x="207" y="37" type="curve" smooth="yes"/>
      <point x="141" y="37" smooth="yes"/>
      <point x="112" y="78" smooth="yes"/>
      <point x="112" y="132" type="curve" smooth="yes"/>
      <point x="112" y="185"/>
      <point x="149" y="266"/>
      <point x="229" y="322" type="curve"/>
    </contour>
    <contour>
      <point x="199" y="499" type="curve" smooth="yes"/>
      <point x="199" y="568" smooth="yes"/>
      <point x="255" y="619" smooth="yes"/>
      <point x="324" y="619" type="curve" smooth="yes"/>
      <point x="380" y="619" smooth="yes"/>
      <point x="404" y="584" smooth="yes"/>
      <point x="404" y="539" type="curve" smooth="yes"/>
      <point x="404" y="493"/>
      <point x="377" y="418"/>
      <point x="306" y="368" type="curve"/>
      <point x="261" y="400" type="line" smooth="yes"/>
      <point x="228" y="423" smooth="yes"/>
      <point x="199" y="457" smooth="yes"/>
    </contour>
  </outline>
</glyph>
<glyph name="nine" format="1">
  <advance width="484"/>
  <unicode hex="0039"/>
  <outline>
    <contour>
      <point x="38" y="-97" type="curve" name="hr00"/>
      <point x="62" y="-131" type="line"/>
      <point x="267" y="-2" smooth="yes"/>
      <point x="474" y="158" smooth="yes"/>
      <point x="474" y="390" type="curve" smooth="yes"/>
      <point x="474" y="510" smooth="yes"/>
      <point x="397" y="563" smooth="yes"/>
      <point x="310" y="563" type="curve" smooth="yes"/>
      <point x="200" y="563" smooth="yes"/>
      <point x="75" y="476" smooth="yes"/>
      <point x="75" y="335" type="curve" smooth="yes"/>
      <point x="75" y="239" smooth="yes"/>
      <point x="146" y="192" smooth="yes"/>
      <point x="236" y="192" type="curve" smooth="yes"/>
      <point x="333" y="192" type="line"/>
      <point x="266" y="72"/>
      <point x="148" y="-20"/>
    </contour>
    <contour>
      <point x="303" y="512" type="curve" smooth="yes"/>
      <point x="359" y="512" smooth="yes"/>
      <point x="388" y="470" smooth="yes"/>
      <point x="388" y="395" type="curve" smooth="yes"/>
      <point x="388" y="345"/>
      <point x="379" y="299"/>
      <point x="363" y="256" type="curve"/>
      <point x="322" y="245" smooth="yes"/>
      <point x="287" y="240" smooth="yes"/>
      <point x="260" y="240" type="curve" smooth="yes"/>
      <point x="183" y="240" smooth="yes"/>
      <point x="154" y="279" smooth="yes"/>
      <point x="154" y="335" type="curve" smooth="yes"/>
      <point x="154" y="422" smooth="yes"/>
      <point x="212" y="512" smooth="yes"/>
    </contour>
  </outline>
</glyph>
<glyph name="less" format="1">
  <advance width="484"/>
  <unicode hex="003C"/>
  <outline>
    <contour>
      <point x="416" y="147" type="line" name="hr00"/>
      <point x="155" y="277" type="line"/>
      <point x="462" y="408" type="line"/>
      <point x="473" y="468" type="line"/>
      <point x="98" y="306" type="line"/>
      <point x="88" y="249" type="line"/>
      <point x="405" y="87" type="line"/>
    </contour>
  </outline>
</glyph>
<glyph name="equal" format="1">
  <advance width="484"/>
  <unicode hex="003D"/>
  <outline>
    <contour>
      <point x="102" y="330" type="line" name="hr00"/>
      <point x="448" y="330" type="line"/>
      <point x="458" y="387" type="line"/>
      <point x="112" y="387" type="line"/>
    </contour>
    <contour>
      <point x="74" y="168" type="line"/>
      <point x="420" y="168" type="line"/>
      <point x="430" y="225" type="line"/>
      <point x="84" y="225" type="line"/>
    </contour>
  </outline>
</glyph>
<glyph name="greater" format="1">
  <advance width="484"/>
  <unicode hex="003E"/>
  <outline>
    <contour>
      <point x="116" y="408" type="line" name="hr00"/>
      <point x="377" y="277" type="line"/>
      <point x="70" y="147" type="line"/>
      <point x="59" y="87" type="line"/>
      <point x="434" y="249" type="line"/>
      <point x="444" y="306" type="line"/>
      <point x="127" y="468" type="line"/>
    </contour>
  </outline>
</glyph>
<glyph name="question" format="1">
  <advance width="376"/>
  <unicode hex="003F"/>
  <outline>
    <contour>
      <point x="309" y="506" type="curve" smooth="yes"/>
      <point x="309" y="423" smooth="yes"/>
      <point x="247" y="337" smooth="yes"/>
      <point x="209" y="285" type="curve" smooth="yes"/>
      <point x="121" y="166" type="line"/>
      <point x="146" y="148" type="line"/>
      <point x="235" y="213" smooth="yes"/>
      <point x="376" y="372" smooth="yes"/>
      <point x="376" y="498" type="curve" smooth="yes"/>
      <point x="376" y="621"/>
      <point x="273" y="666"/>
      <point x="196" y="678" type="curve"/>
      <point x="168" y="678"/>
      <point x="101" y="657"/>
      <point x="77" y="650" type="curve"/>
      <point x="93" y="601" type="line"/>
      <point x="143" y="609" smooth="yes"/>
      <point x="168" y="617" smooth="yes"/>
      <point x="216" y="617" type="curve" smooth="yes"/>
      <point x="272" y="617" smooth="yes"/>
      <point x="309" y="571" smooth="yes"/>
    </contour>
    <contour>
      <point x="136" y="100" type="curve" smooth="yes"/>
      <point x="120" y="100"/>
      <point x="88" y="93"/>
      <point x="88" y="93" type="curve"/>
      <point x="87" y="93" smooth="yes"/>
      <point x="70" y="48" smooth="yes"/>
      <point x="70" y="20" type="curve" smooth="yes"/>
      <point x="70" y="1" smooth="yes"/>
      <point x="77" y="-13" smooth="yes"/>
      <point x="94" y="-13" type="curve" smooth="yes"/>
      <point x="113" y="-13"/>
      <point x="144" y="-5"/>
      <point x="144" y="-5" type="curve" name="hr01"/>
      <point x="145" y="-5" smooth="yes"/>
      <point x="161" y="40" smooth="yes"/>
      <point x="161" y="66" type="curve" smooth="yes"/>
      <point x="161" y="85" smooth="yes"/>
      <point x="154" y="100" smooth="yes"/>
    </contour>
  </outline>
</glyph>
<glyph name="at" format="1">
  <advance width="882"/>
  <unicode hex="0040"/>
  <outline>
    <contour>
      <point x="832" y="301" type="curve" smooth="yes" name="hr00"/>
      <point x="832" y="485" smooth="yes"/>
      <point x="705" y="592" smooth="yes"/>
      <point x="523" y="592" type="curve" smooth="yes"/>
      <point x="260" y="592" smooth="yes"/>
      <point x="50" y="356" smooth="yes"/>
      <point x="50" y="118" type="curve" smooth="yes"/>
      <point x="50" y="-64" smooth="yes"/>
      <point x="175" y="-172" smooth="yes"/>
      <point x="357" y="-172" type="curve" smooth="yes"/>
      <point x="458" y="-172"/>
      <point x="560" y="-136"/>
      <point x="643" y="-73" type="curve"/>
      <point x="596" y="-50" type="line"/>
      <point x="528" y="-104" smooth="yes"/>
      <point x="447" y="-135" smooth="yes"/>
      <point x="368" y="-135" type="curve" smooth="yes"/>
      <point x="221" y="-135" smooth="yes"/>
      <point x="121" y="-39" smooth="yes"/>
      <point x="121" y="123" type="curve" smooth="yes"/>
      <point x="121" y="321" smooth="yes"/>
      <point x="283" y="555" smooth="yes"/>
      <point x="512" y="555" type="curve" smooth="yes"/>
      <point x="659" y="555" smooth="yes"/>
      <point x="761" y="459" smooth="yes"/>
      <point x="761" y="295" type="curve" smooth="yes"/>
      <point x="761" y="185" smooth="yes"/>
      <point x="714" y="29" smooth="yes"/>
      <point x="594" y="29" type="curve" smooth="yes"/>
      <point x="568" y="29" smooth="yes"/>
      <point x="557" y="39" smooth="yes"/>
      <point x="557" y="65" type="curve" smooth="yes"/>
      <point x="557" y="95"/>
      <point x="596" y="328"/>
      <point x="627" y="468" type="curve"/>
      <point x="604" y="468" type="line"/>
      <point x="581" y="441" type="line"/>
      <point x="556" y="451"/>
      <point x="523" y="462"/>
      <point x="506" y="462" type="curve"/>
      <point x="392" y="434" smooth="yes"/>
      <point x="245" y="364" smooth="yes"/>
      <point x="245" y="105" type="curve" smooth="yes"/>
      <point x="245" y="22" smooth="yes"/>
      <point x="268" y="-12" smooth="yes"/>
      <point x="317" y="-12" type="curve" smooth="yes"/>
      <point x="348" y="-12" smooth="yes"/>
      <point x="391" y="3" smooth="yes"/>
      <point x="442" y="27" type="curve" smooth="yes"/>
      <point x="493" y="51" type="line"/>
      <point x="495" y="6" smooth="yes"/>
      <point x="517" y="-12" smooth="yes"/>
      <point x="562" y="-12" type="curve" smooth="yes"/>
      <point x="719" y="-12" smooth="yes"/>
      <point x="832" y="132" smooth="yes"/>
    </contour>
    <contour>
      <point x="358" y="40" type="curve" smooth="yes"/>
      <point x="332" y="40" smooth="yes"/>
      <point x="316" y="57" smooth="yes"/>
      <point x="316" y="105" type="curve" smooth="yes"/>
      <point x="316" y="250" smooth="yes"/>
      <point x="356" y="405" smooth="yes"/>
      <point x="474" y="405" type="curve" smooth="yes"/>
      <point x="549" y="405" type="line"/>
      <point x="495" y="92" type="line"/>
      <point x="425" y="60" type="line" smooth="yes"/>
      <point x="399" y="48" smooth="yes"/>
      <point x="376" y="40" smooth="yes"/>
    </contour>
  </outline>
</glyph>
<glyph name="A" format="1">
  <advance width="618"/>
  <unicode hex="0041"/>
  <outline>
    <contour>
      <point x="-64" y="0" type="line" name="hr00"/>
      <point x="129" y="0" type="line"/>
      <point x="137" y="26" type="line"/>
      <point x="61" y="56" type="line"/>
      <point x="144" y="215" type="line"/>
      <point x="406" y="229" type="line"/>
      <point x="431" y="55" type="line"/>
      <point x="403" y="46"/>
      <point x="376" y="36"/>
      <point x="351" y="26" type="curve"/>
      <point x="359" y="0" type="line"/>
      <point x="582" y="0" type="line"/>
      <point x="588" y="22" type="line"/>
      <point x="563" y="35"/>
      <point x="535" y="47"/>
      <point x="509" y="56" type="curve"/>
      <point x="418" y="697" type="line"/>
      <point x="403" y="706" type="line"/>
      <point x="395" y="706"/>
      <point x="361" y="700"/>
      <point x="339" y="691" type="curve"/>
      <point x="3" y="57" type="line"/>
      <point x="-22" y="46"/>
      <point x="-56" y="31"/>
      <point x="-70" y="22" type="curve"/>
    </contour>
    <contour>
      <point x="352" y="617" type="line"/>
      <point x="400" y="273" type="line"/>
      <point x="174" y="273" type="line"/>
    </contour>
  </outline>
</glyph>
<glyph name="B" format="1">
  <advance width="613"/>
  <unicode hex="0042"/>
  <outline>
    <contour>
      <point x="125" y="678" type="line"/>
      <point x="151" y="664"/>
      <point x="181" y="650"/>
      <point x="209" y="642" type="curve"/>
      <point x="98" y="57" type="line"/>
      <point x="68" y="48"/>
      <point x="40" y="37"/>
      <point x="13" y="26" type="curve"/>
      <point x="21" y="0" type="line"/>
      <point x="126" y="8" type="line" name="hr01"/>
      <point x="323" y="0" smooth="yes"/>
      <point x="326" y="0" smooth="yes"/>
      <point x="330" y="0" type="curve" smooth="yes" name="hr02"/>
      <point x="461" y="0" smooth="yes"/>
      <point x="567" y="106" smooth="yes"/>
      <point x="567" y="225" type="curve" smooth="yes"/>
      <point x="567" y="291"/>
      <point x="528" y="352"/>
      <point x="441" y="374" type="curve"/>
      <point x="517" y="411" smooth="yes"/>
      <point x="577" y="474" smooth="yes"/>
      <point x="577" y="544" type="curve" smooth="yes"/>
      <point x="577" y="631"/>
      <point x="523" y="698"/>
      <point x="425" y="698" type="curve"/>
      <point x="252" y="696" type="line"/>
      <point x="131" y="700" type="line"/>
    </contour>
    <contour>
      <point x="313" y="44" type="curve" smooth="yes" name="hr03"/>
      <point x="285" y="44"/>
      <point x="226" y="48"/>
      <point x="166" y="58" type="curve"/>
      <point x="230" y="350" type="line"/>
      <point x="278" y="646" type="line"/>
      <point x="403" y="656" type="line"/>
      <point x="469" y="656" smooth="yes"/>
      <point x="497" y="601" smooth="yes"/>
      <point x="497" y="538" type="curve" smooth="yes"/>
      <point x="497" y="480" smooth="yes"/>
      <point x="460" y="399" smooth="yes"/>
      <point x="362" y="399" type="curve" smooth="yes"/>
      <point x="329" y="399"/>
      <point x="312" y="403"/>
      <point x="281" y="407" type="curve"/>
      <point x="269" y="366" type="line"/>
      <point x="290" y="359"/>
      <point x="340" y="345"/>
      <point x="352" y="345" type="curve"/>
      <point x="361" y="346"/>
      <point x="370" y="348"/>
      <point x="379" y="351" type="curve"/>
      <point x="453" y="340" smooth="yes"/>
      <point x="486" y="284" smooth="yes"/>
      <point x="486" y="223" type="curve" smooth="yes"/>
      <point x="486" y="139" smooth="yes"/>
      <point x="424" y="44" smooth="yes"/>
    </contour>
  </outline>
</glyph>
<glyph name="C" format="1">
  <advance width="561"/>
  <unicode hex="0043"/>
  <outline>
    <contour>
      <point x="485" y="82" type="line" name="hr00"/>
      <point x="443" y="58" smooth="yes"/>
      <point x="375" y="41" smooth="yes"/>
      <point x="321" y="41" type="curve" smooth="yes"/>
      <point x="207" y="41" smooth="yes"/>
      <point x="130" y="112" smooth="yes"/>
      <point x="130" y="258" type="curve" smooth="yes"/>
      <point x="130" y="494" smooth="yes"/>
      <point x="229" y="646" smooth="yes"/>
      <point x="413" y="646" type="curve" smooth="yes"/>
      <point x="468" y="646"/>
      <point x="516" y="634"/>
      <point x="571" y="623" type="curve"/>
      <point x="597" y="673" type="line"/>
      <point x="564" y="682"/>
      <point x="477" y="712"/>
      <point x="439" y="712" type="curve"/>
      <point x="225" y="676" smooth="yes"/>
      <point x="50" y="537" smooth="yes"/>
      <point x="50" y="254" type="curve" smooth="yes"/>
      <point x="50" y="76" smooth="yes"/>
      <point x="152" y="-12" smooth="yes"/>
      <point x="302" y="-12" type="curve" smooth="yes"/>
      <point x="368" y="-12"/>
      <point x="436" y="5"/>
      <point x="506" y="46" type="curve"/>
    </contour>
  </outline>
</glyph>
<glyph name="D" format="1">
  <advance width="717"/>
  <unicode hex="0044"/>
  <outline>
    <contour>
      <point x="125" y="678" type="line" name="hr00"/>
      <point x="151" y="664"/>
      <point x="181" y="650"/>
      <point x="209" y="642" type="curve"/>
      <point x="98" y="57" type="line"/>
      <point x="68" y="48"/>
      <point x="40" y="37"/>
      <point x="13" y="26" type="curve"/>
      <point x="21" y="0" type="line"/>
      <point x="123" y="8" type="line"/>
      <point x="299" y="-6" type="line"/>
      <point x="561" y="7" smooth="yes"/>
      <point x="702" y="220" smooth="yes"/>
      <point x="702" y="459" type="curve" smooth="yes"/>
      <point x="702" y="628"/>
      <point x="597" y="712"/>
      <point x="454" y="712" type="curve"/>
      <point x="257" y="696" type="line"/>
      <point x="131" y="700" type="line"/>
    </contour>
    <contour>
      <point x="317" y="41" type="curve" smooth="yes"/>
      <point x="266" y="41"/>
      <point x="214" y="49"/>
      <point x="167" y="60" type="curve"/>
      <point x="230" y="350" type="line"/>
      <point x="276" y="639" type="line"/>
      <point x="339" y="654" smooth="yes"/>
      <point x="396" y="658" smooth="yes"/>
      <point x="437" y="658" type="curve" smooth="yes"/>
      <point x="547" y="658" smooth="yes"/>
      <point x="622" y="589" smooth="yes"/>
      <point x="622" y="449" type="curve" smooth="yes"/>
      <point x="622" y="267" smooth="yes"/>
      <point x="510" y="41" smooth="yes"/>
    </contour>
  </outline>
</glyph>
<glyph name="E" format="1">
  <advance width="570"/>
  <unicode hex="0045"/>
  <outline>
    <contour>
      <point x="125" y="678" type="line" name="hr00"/>
      <point x="151" y="664"/>
      <point x="181" y="650"/>
      <point x="209" y="642" type="curve"/>
      <point x="98" y="57" type="line"/>
      <point x="68" y="48"/>
      <point x="40" y="37"/>
      <point x="13" y="26" type="curve"/>
      <point x="21" y="0" type="line"/>
      <point x="126" y="8" type="line"/>
      <point x="242" y="8"/>
      <point x="412" y="0"/>
      <point x="466" y="-4" type="curve"/>
      <point x="481" y="14"/>
      <point x="491" y="34"/>
      <point x="497" y="55" type="curve"/>
      <point x="491" y="72" type="line"/>
      <point x="440" y="61"/>
      <point x="306" y="56"/>
      <point x="166" y="55" type="curve"/>
      <point x="225" y="326" type="line"/>
      <point x="473" y="339" type="line"/>
      <point x="482" y="382" type="line"/>
      <point x="235" y="382" type="line"/>
      <point x="278" y="646" type="line"/>
      <point x="382" y="640"/>
      <point x="497" y="640"/>
      <point x="546" y="640" type="curve"/>
      <point x="560" y="657"/>
      <point x="571" y="676"/>
      <point x="577" y="696" type="curve"/>
      <point x="571" y="713" type="line"/>
      <point x="521" y="702"/>
      <point x="388" y="697"/>
      <point x="252" y="696" type="curve"/>
      <point x="131" y="700" type="line"/>
    </contour>
  </outline>
</glyph>
<glyph name="F" format="1">
  <advance width="550"/>
  <unicode hex="0046"/>
  <outline>
    <contour>
      <point x="278" y="646" type="line" name="hr00"/>
      <point x="382" y="640"/>
      <point x="497" y="640"/>
      <point x="546" y="640" type="curve"/>
      <point x="560" y="657"/>
      <point x="571" y="676"/>
      <point x="577" y="696" type="curve"/>
      <point x="571" y="713" type="line"/>
      <point x="521" y="702"/>
      <point x="385" y="696"/>
      <point x="252" y="696" type="curve"/>
      <point x="131" y="700" type="line"/>
      <point x="125" y="678" type="line"/>
      <point x="151" y="664"/>
      <point x="181" y="650"/>
      <point x="209" y="642" type="curve"/>
      <point x="98" y="57" type="line"/>
      <point x="68" y="48"/>
      <point x="40" y="37"/>
      <point x="13" y="26" type="curve"/>
      <point x="21" y="0" type="line"/>
      <point x="274" y="0" type="line"/>
      <point x="280" y="22" type="line"/>
      <point x="245" y="37"/>
      <point x="203" y="51"/>
      <point x="167" y="60" type="curve"/>
      <point x="221" y="310" type="line"/>
      <point x="459" y="323" type="line"/>
      <point x="468" y="366" type="line"/>
      <point x="232" y="366" type="line"/>
    </contour>
  </outline>
</glyph>
<glyph name="H" format="1">
  <advance width="763"/>
  <unicode hex="0048"/>
  <outline>
    <contour>
      <point x="125" y="678" type="line" name="hr00"/>
      <point x="151" y="664"/>
      <point x="181" y="650"/>
      <point x="209" y="642" type="curve"/>
      <point x="98" y="57" type="line"/>
      <point x="68" y="48"/>
      <point x="40" y="37"/>
      <point x="13" y="26" type="curve"/>
      <point x="21" y="0" type="line"/>
      <point x="244" y="0" type="line"/>
      <point x="250" y="22" type="line"/>
      <point x="224" y="36"/>
      <point x="194" y="49"/>
      <point x="166" y="58" type="curve"/>
      <point x="224" y="322" type="line"/>
      <point x="561" y="338" type="line"/>
      <point x="515" y="57" type="line"/>
      <point x="486" y="47"/>
      <point x="457" y="37"/>
      <point x="431" y="26" type="curve"/>
      <point x="439" y="0" type="line"/>
      <point x="662" y="0" type="line"/>
      <point x="668" y="22" type="line"/>
      <point x="642" y="36"/>
      <point x="611" y="49"/>
      <point x="584" y="58" type="curve"/>
      <point x="695" y="643" type="line"/>
      <point x="725" y="652"/>
      <point x="753" y="663"/>
      <point x="780" y="674" type="curve"/>
      <point x="772" y="700" type="line"/>
      <point x="549" y="700" type="line"/>
      <point x="543" y="678" type="line"/>
      <point x="569" y="664"/>
      <point x="599" y="650"/>
      <point x="627" y="642" type="curve"/>
      <point x="570" y="384" type="line"/>
      <point x="235" y="384" type="line"/>
      <point x="277" y="643" type="line"/>
      <point x="307" y="652"/>
      <point x="335" y="663"/>
      <point x="362" y="674" type="curve"/>
      <point x="354" y="700" type="line"/>
      <point x="131" y="700" type="line"/>
    </contour>
  </outline>
</glyph>
<glyph name="I" format="1">
  <advance width="355"/>
  <unicode hex="0049"/>
  <outline>
    <contour>
      <point x="251" y="22" type="line" name="hr00"/>
      <point x="225" y="36"/>
      <point x="195" y="49"/>
      <point x="167" y="58" type="curve"/>
      <point x="228" y="350" type="line"/>
      <point x="278" y="643" type="line"/>
      <point x="308" y="652"/>
      <point x="336" y="663"/>
      <point x="363" y="674" type="curve"/>
      <point x="355" y="700" type="line"/>
      <point x="132" y="700" type="line"/>
      <point x="126" y="678" type="line"/>
      <point x="152" y="664"/>
      <point x="182" y="650"/>
      <point x="210" y="642" type="curve"/>
      <point x="149" y="350" type="line"/>
      <point x="98" y="57" type="line"/>
      <point x="69" y="47"/>
      <point x="40" y="37"/>
      <point x="14" y="26" type="curve"/>
      <point x="22" y="0" type="line"/>
      <point x="245" y="0" type="line"/>
    </contour>
  </outline>
</glyph>
<glyph name="J" format="1">
  <advance width="324"/>
  <unicode hex="004A"/>
  <outline>
    <contour>
      <point x="104" y="678" type="line" name="hr00"/>
      <point x="135" y="663"/>
      <point x="172" y="650"/>
      <point x="204" y="641" type="curve"/>
      <point x="111" y="159" type="line" smooth="yes"/>
      <point x="88" y="39"/>
      <point x="14" y="-75"/>
      <point x="-84" y="-183" type="curve"/>
      <point x="-59" y="-204" type="line"/>
      <point x="70" y="-80" smooth="yes"/>
      <point x="165" y="48" smooth="yes"/>
      <point x="192" y="186" type="curve" smooth="yes"/>
      <point x="280" y="644" type="line"/>
      <point x="308" y="653"/>
      <point x="335" y="663"/>
      <point x="361" y="674" type="curve"/>
      <point x="353" y="700" type="line"/>
      <point x="110" y="700" type="line"/>
    </contour>
  </outline>
</glyph>
<glyph name="K" format="1">
  <advance width="594"/>
  <unicode hex="004B"/>
  <outline>
    <contour>
      <point x="125" y="678" type="line"/>
      <point x="151" y="664"/>
      <point x="181" y="650"/>
      <point x="209" y="642" type="curve"/>
      <point x="98" y="57" type="line"/>
      <point x="68" y="48"/>
      <point x="40" y="37"/>
      <point x="13" y="26" type="curve"/>
      <point x="21" y="0" type="line"/>
      <point x="244" y="0" type="line"/>
      <point x="250" y="22" type="line"/>
      <point x="224" y="36"/>
      <point x="194" y="49"/>
      <point x="166" y="58" type="curve"/>
      <point x="226" y="334" type="line"/>
      <point x="256" y="326"/>
      <point x="309" y="315"/>
      <point x="322" y="315" type="curve"/>
      <point x="344" y="172"/>
      <point x="406" y="-12"/>
      <point x="440" y="-12" type="curve" name="hr01"/>
      <point x="571" y="8" type="line"/>
      <point x="577" y="28" type="line"/>
      <point x="562" y="40"/>
      <point x="513" y="54"/>
      <point x="482" y="57" type="curve"/>
      <point x="451" y="108"/>
      <point x="400" y="217"/>
      <point x="379" y="343" type="curve"/>
      <point x="491" y="486"/>
      <point x="583" y="605"/>
      <point x="624" y="694" type="curve"/>
      <point x="603" y="707" type="line"/>
      <point x="594" y="707"/>
      <point x="560" y="700"/>
      <point x="512" y="655" type="curve"/>
      <point x="470" y="534" type="line"/>
      <point x="419" y="460"/>
      <point x="401" y="434"/>
      <point x="343" y="369" type="curve"/>
      <point x="335" y="368" smooth="yes"/>
      <point x="327" y="368" smooth="yes"/>
      <point x="319" y="368" type="curve" smooth="yes"/>
      <point x="289" y="368"/>
      <point x="258" y="371"/>
      <point x="234" y="376" type="curve"/>
      <point x="277" y="643" type="line"/>
      <point x="307" y="652"/>
      <point x="335" y="663"/>
      <point x="362" y="674" type="curve"/>
      <point x="354" y="700" type="line"/>
      <point x="131" y="700" type="line"/>
    </contour>
  </outline>
</glyph>
<glyph name="L" format="1">
  <advance width="499"/>
  <unicode hex="004C"/>
  <outline>
    <contour>
      <point x="130" y="5" type="line" name="hr00"/>
      <point x="233" y="5"/>
      <point x="374" y="0"/>
      <point x="422" y="-4" type="curve"/>
      <point x="437" y="14"/>
      <point x="447" y="34"/>
      <point x="453" y="55" type="curve"/>
      <point x="447" y="72" type="line"/>
      <point x="402" y="62"/>
      <point x="288" y="56"/>
      <point x="166" y="55" type="curve"/>
      <point x="227" y="350" type="line"/>
      <point x="277" y="643" type="line"/>
      <point x="307" y="652"/>
      <point x="335" y="663"/>
      <point x="362" y="674" type="curve"/>
      <point x="354" y="700" type="line"/>
      <point x="131" y="700" type="line"/>
      <point x="125" y="678" type="line"/>
      <point x="151" y="664"/>
      <point x="181" y="650"/>
      <point x="209" y="642" type="curve"/>
      <point x="148" y="350" type="line"/>
      <point x="97" y="57" type="line"/>
      <point x="68" y="47"/>
      <point x="39" y="37"/>
      <point x="13" y="26" type="curve"/>
      <point x="21" y="0" type="line"/>
    </contour>
  </outline>
</glyph>
<glyph name="M" format="1">
  <advance width="883"/>
  <unicode hex="004D"/>
  <outline>
    <contour>
      <point x="136" y="678" type="line" name="hr00"/>
      <point x="158" y="665"/>
      <point x="183" y="653"/>
      <point x="206" y="644" type="curve"/>
      <point x="64" y="58" type="line"/>
      <point x="38" y="50"/>
      <point x="9" y="36"/>
      <point x="-15" y="22" type="curve"/>
      <point x="-9" y="0" type="line"/>
      <point x="194" y="0" type="line"/>
      <point x="202" y="26" type="line"/>
      <point x="175" y="37"/>
      <point x="148" y="48"/>
      <point x="120" y="58" type="curve"/>
      <point x="246" y="598" type="line"/>
      <point x="379" y="50" type="line"/>
      <point x="397" y="50" type="line"/>
      <point x="727" y="601" type="line"/>
      <point x="658" y="58" type="line"/>
      <point x="623" y="49"/>
      <point x="585" y="36"/>
      <point x="553" y="22" type="curve"/>
      <point x="559" y="0" type="line"/>
      <point x="812" y="0" type="line"/>
      <point x="820" y="26" type="line"/>
      <point x="794" y="37"/>
      <point x="766" y="47"/>
      <point x="737" y="56" type="curve"/>
      <point x="806" y="642" type="line"/>
      <point x="836" y="652"/>
      <point x="863" y="662"/>
      <point x="891" y="674" type="curve"/>
      <point x="883" y="700" type="line"/>
      <point x="730" y="696" type="line"/>
      <point x="425" y="185" type="line"/>
      <point x="307" y="696" type="line"/>
      <point x="142" y="700" type="line"/>
    </contour>
  </outline>
</glyph>
<glyph name="N" format="1">
  <advance width="760"/>
  <unicode hex="004E"/>
  <outline>
    <contour>
      <point x="121" y="678" type="line" name="hr00"/>
      <point x="144" y="664"/>
      <point x="170" y="652"/>
      <point x="194" y="643" type="curve"/>
      <point x="84" y="58" type="line"/>
      <point x="59" y="49"/>
      <point x="30" y="36"/>
      <point x="6" y="22" type="curve"/>
      <point x="12" y="0" type="line"/>
      <point x="215" y="0" type="line"/>
      <point x="223" y="26" type="line"/>
      <point x="196" y="37"/>
      <point x="169" y="48"/>
      <point x="141" y="58" type="curve"/>
      <point x="235" y="583" type="line"/>
      <point x="533" y="0" type="line"/>
      <point x="588" y="0" type="line"/>
      <point x="709" y="641" type="line"/>
      <point x="735" y="649"/>
      <point x="765" y="663"/>
      <point x="790" y="678" type="curve"/>
      <point x="784" y="700" type="line"/>
      <point x="581" y="700" type="line"/>
      <point x="573" y="674" type="line"/>
      <point x="599" y="663"/>
      <point x="626" y="652"/>
      <point x="654" y="642" type="curve"/>
      <point x="559" y="126" type="line"/>
      <point x="264" y="700" type="line"/>
      <point x="127" y="700" type="line"/>
    </contour>
  </outline>
</glyph>
<glyph name="O" format="1">
  <advance width="694"/>
  <unicode hex="004F"/>
  <outline>
    <contour>
      <point x="451" y="712" type="curve" smooth="yes" name="hr00"/>
      <point x="200" y="712" smooth="yes"/>
      <point x="50" y="457" smooth="yes"/>
      <point x="50" y="242" type="curve" smooth="yes"/>
      <point x="50" y="101" smooth="yes"/>
      <point x="128" y="-12" smooth="yes"/>
      <point x="266" y="-12" type="curve" smooth="yes"/>
      <point x="518" y="-12" smooth="yes"/>
      <point x="679" y="233" smooth="yes"/>
      <point x="679" y="454" type="curve" smooth="yes"/>
      <point x="679" y="595" smooth="yes"/>
      <point x="599" y="712" smooth="yes"/>
    </contour>
    <contour>
      <point x="427" y="659" type="curve" smooth="yes"/>
      <point x="521" y="659" smooth="yes"/>
      <point x="599" y="569" smooth="yes"/>
      <point x="599" y="451" type="curve" smooth="yes"/>
      <point x="599" y="268" smooth="yes"/>
      <point x="494" y="41" smooth="yes"/>
      <point x="285" y="41" type="curve" smooth="yes"/>
      <point x="195" y="41" smooth="yes"/>
      <point x="130" y="123" smooth="yes"/>
      <point x="130" y="241" type="curve" smooth="yes"/>
      <point x="130" y="436" smooth="yes"/>
      <point x="220" y="659" smooth="yes"/>
    </contour>
  </outline>
</glyph>
<glyph name="P" format="1">
  <advance width="563"/>
  <unicode hex="0050"/>
  <outline>
    <contour>
      <point x="280" y="22" type="line" name="hr00"/>
      <point x="245" y="37"/>
      <point x="203" y="51"/>
      <point x="167" y="60" type="curve"/>
      <point x="230" y="350" type="line"/>
      <point x="278" y="646" type="line"/>
      <point x="405" y="656" type="line"/>
      <point x="474" y="656" smooth="yes"/>
      <point x="504" y="591" smooth="yes"/>
      <point x="504" y="518" type="curve" smooth="yes"/>
      <point x="504" y="432" smooth="yes"/>
      <point x="463" y="309" smooth="yes"/>
      <point x="354" y="309" type="curve" smooth="yes"/>
      <point x="313" y="309"/>
      <point x="292" y="315"/>
      <point x="253" y="327" type="curve"/>
      <point x="241" y="286" type="line"/>
      <point x="262" y="279"/>
      <point x="319" y="255"/>
      <point x="344" y="255" type="curve"/>
      <point x="465" y="283" smooth="yes"/>
      <point x="584" y="397" smooth="yes"/>
      <point x="584" y="524" type="curve" smooth="yes"/>
      <point x="584" y="625"/>
      <point x="526" y="698"/>
      <point x="423" y="698" type="curve"/>
      <point x="252" y="696" type="line"/>
      <point x="131" y="700" type="line"/>
      <point x="125" y="678" type="line"/>
      <point x="151" y="664"/>
      <point x="181" y="650"/>
      <point x="209" y="642" type="curve"/>
      <point x="98" y="57" type="line"/>
      <point x="68" y="48"/>
      <point x="40" y="37"/>
      <point x="13" y="26" type="curve"/>
      <point x="21" y="0" type="line"/>
      <point x="274" y="0" type="line"/>
    </contour>
  </outline>
</glyph>
<glyph name="Q" format="1">
  <advance width="694"/>
  <unicode hex="0051"/>
  <outline>
    <contour>
      <point x="269" y="0" type="line" name="hr00"/>
      <point x="333" y="-98"/>
      <point x="399" y="-159"/>
      <point x="498" y="-179" type="curve"/>
      <point x="536" y="-179"/>
      <point x="620" y="-152"/>
      <point x="656" y="-140" type="curve"/>
      <point x="643" y="-91" type="line"/>
      <point x="587" y="-102" smooth="yes"/>
      <point x="528" y="-113" smooth="yes"/>
      <point x="472" y="-113" type="curve" smooth="yes"/>
      <point x="429" y="-113"/>
      <point x="391" y="-86"/>
      <point x="342" y="0" type="curve"/>
    </contour>
    <component  base="O"/>
  </outline>
</glyph>
<glyph name="R" format="1">
  <advance width="602"/>
  <unicode hex="0052"/>
  <outline>
    <contour>
      <point x="260" y="22" type="line"/>
      <point x="231" y="36"/>
      <point x="197" y="50"/>
      <point x="166" y="58" type="curve"/>
      <point x="230" y="350" type="line"/>
      <point x="278" y="646" type="line"/>
      <point x="403" y="656" type="line"/>
      <point x="472" y="656" smooth="yes"/>
      <point x="502" y="591" smooth="yes"/>
      <point x="502" y="518" type="curve" smooth="yes"/>
      <point x="502" y="442" smooth="yes"/>
      <point x="464" y="334" smooth="yes"/>
      <point x="362" y="334" type="curve" smooth="yes"/>
      <point x="321" y="334"/>
      <point x="300" y="340"/>
      <point x="261" y="352" type="curve"/>
      <point x="249" y="311" type="line"/>
      <point x="275" y="300"/>
      <point x="337" y="280"/>
      <point x="352" y="280" type="curve"/>
      <point x="368" y="151"/>
      <point x="415" y="-12"/>
      <point x="440" y="-12" type="curve"/>
      <point x="571" y="8" type="line"/>
      <point x="577" y="28" type="line"/>
      <point x="562" y="40"/>
      <point x="513" y="54"/>
      <point x="482" y="57" type="curve"/>
      <point x="460" y="100"/>
      <point x="425" y="191"/>
      <point x="410" y="299" type="curve"/>
      <point x="503" y="340" smooth="yes"/>
      <point x="582" y="428" smooth="yes"/>
      <point x="582" y="524" type="curve" smooth="yes"/>
      <point x="582" y="625"/>
      <point x="524" y="698"/>
      <point x="421" y="698" type="curve"/>
      <point x="252" y="696" type="line"/>
      <point x="131" y="700" type="line"/>
      <point x="125" y="678" type="line"/>
      <point x="151" y="664"/>
      <point x="181" y="650"/>
      <point x="209" y="642" type="curve"/>
      <point x="98" y="57" type="line"/>
      <point x="68" y="48"/>
      <point x="40" y="37"/>
      <point x="13" y="26" type="curve"/>
      <point x="21" y="0" type="line" name="hr01"/>
      <point x="254" y="0" type="line"/>
    </contour>
  </outline>
</glyph>
<glyph name="S" format="1">
  <advance width="490"/>
  <unicode hex="0053"/>
  <outline>
    <contour>
      <point x="0" y="36" type="line" name="hr00"/>
      <point x="67" y="3" smooth="yes"/>
      <point x="130" y="-12" smooth="yes"/>
      <point x="203" y="-12" type="curve" smooth="yes"/>
      <point x="320" y="-12" smooth="yes"/>
      <point x="456" y="66" smooth="yes"/>
      <point x="456" y="196" type="curve" smooth="yes"/>
      <point x="456" y="242" smooth="yes"/>
      <point x="427" y="291" smooth="yes"/>
      <point x="372" y="329" type="curve" smooth="yes"/>
      <point x="227" y="427" type="line" smooth="yes"/>
      <point x="200" y="445" smooth="yes"/>
      <point x="177" y="476" smooth="yes"/>
      <point x="177" y="523" type="curve" smooth="yes"/>
      <point x="177" y="626" smooth="yes"/>
      <point x="264" y="646" smooth="yes"/>
      <point x="316" y="646" type="curve" smooth="yes"/>
      <point x="371" y="646"/>
      <point x="419" y="634"/>
      <point x="474" y="623" type="curve"/>
      <point x="500" y="673" type="line"/>
      <point x="467" y="682"/>
      <point x="380" y="712"/>
      <point x="342" y="712" type="curve"/>
      <point x="195" y="690" smooth="yes"/>
      <point x="107" y="599" smooth="yes"/>
      <point x="107" y="495" type="curve" smooth="yes"/>
      <point x="107" y="446" smooth="yes"/>
      <point x="128" y="400" smooth="yes"/>
      <point x="175" y="368" type="curve" smooth="yes"/>
      <point x="324" y="267" type="line" smooth="yes"/>
      <point x="361" y="242" smooth="yes"/>
      <point x="372" y="208" smooth="yes"/>
      <point x="372" y="179" type="curve" smooth="yes"/>
      <point x="372" y="105" smooth="yes"/>
      <point x="313" y="36" smooth="yes"/>
      <point x="210" y="36" type="curve" smooth="yes"/>
      <point x="162" y="36"/>
      <point x="107" y="50"/>
      <point x="73" y="77" type="curve"/>
      <point x="69" y="119"/>
      <point x="63" y="159"/>
      <point x="59" y="181" type="curve"/>
      <point x="36" y="186" type="line"/>
    </contour>
  </outline>
</glyph>
<glyph name="T" format="1">
  <advance width="541"/>
  <unicode hex="0054"/>
  <outline>
    <contour>
      <point x="371" y="22" type="line"/>
      <point x="339" y="37"/>
      <point x="300" y="51"/>
      <point x="267" y="59" type="curve"/>
      <point x="328" y="350" type="line"/>
      <point x="381" y="657" type="line"/>
      <point x="583" y="638" type="line"/>
      <point x="597" y="658"/>
      <point x="609" y="675"/>
      <point x="616" y="696" type="curve"/>
      <point x="610" y="713" type="line"/>
      <point x="575" y="704" smooth="yes"/>
      <point x="545" y="700" smooth="yes"/>
      <point x="501" y="700" type="curve" smooth="yes" name="hr01"/>
      <point x="75" y="700" type="line"/>
      <point x="70" y="684" type="line"/>
      <point x="78" y="660"/>
      <point x="91" y="642"/>
      <point x="108" y="623" type="curve"/>
      <point x="142" y="637" smooth="yes"/>
      <point x="200" y="660" smooth="yes"/>
      <point x="236" y="660" type="curve" smooth="yes"/>
      <point x="314" y="660" type="line"/>
      <point x="249" y="350" type="line"/>
      <point x="199" y="59" type="line"/>
      <point x="162" y="49"/>
      <point x="127" y="37"/>
      <point x="94" y="26" type="curve"/>
      <point x="102" y="0" type="line"/>
      <point x="365" y="0" type="line"/>
    </contour>
  </outline>
</glyph>
<glyph name="U" format="1">
  <advance width="703"/>
  <unicode hex="0055"/>
  <outline>
    <contour>
      <point x="102" y="678" type="line" name="hr00"/>
      <point x="127" y="664"/>
      <point x="157" y="651"/>
      <point x="184" y="643" type="curve"/>
      <point x="102" y="218" type="line" smooth="yes"/>
      <point x="97" y="195" smooth="yes"/>
      <point x="95" y="174" smooth="yes"/>
      <point x="95" y="155" type="curve" smooth="yes"/>
      <point x="95" y="37" smooth="yes"/>
      <point x="177" y="-12" smooth="yes"/>
      <point x="310" y="-12" type="curve" smooth="yes"/>
      <point x="460" y="-12" smooth="yes"/>
      <point x="569" y="82" smooth="yes"/>
      <point x="595" y="218" type="curve" smooth="yes"/>
      <point x="677" y="641" type="line"/>
      <point x="703" y="649"/>
      <point x="732" y="663"/>
      <point x="758" y="678" type="curve"/>
      <point x="752" y="700" type="line"/>
      <point x="549" y="700" type="line"/>
      <point x="541" y="674" type="line"/>
      <point x="567" y="663"/>
      <point x="594" y="652"/>
      <point x="622" y="642" type="curve"/>
      <point x="539" y="216" type="line" smooth="yes"/>
      <point x="522" y="127" smooth="yes"/>
      <point x="449" y="43" smooth="yes"/>
      <point x="323" y="43" type="curve" smooth="yes"/>
      <point x="215" y="43" smooth="yes"/>
      <point x="170" y="94" smooth="yes"/>
      <point x="170" y="170" type="curve" smooth="yes"/>
      <point x="170" y="184" smooth="yes"/>
      <point x="172" y="199" smooth="yes"/>
      <point x="175" y="215" type="curve" smooth="yes"/>
      <point x="258" y="644" type="line"/>
      <point x="286" y="653"/>
      <point x="313" y="663"/>
      <point x="339" y="674" type="curve"/>
      <point x="331" y="700" type="line"/>
      <point x="108" y="700" type="line"/>
    </contour>
  </outline>
</glyph>
<glyph name="V" format="1">
  <advance width="582"/>
  <unicode hex="0056"/>
  <outline>
    <contour>
      <point x="196" y="700" type="line" name="hr00"/>
      <point x="66" y="700" type="line"/>
      <point x="60" y="678" type="line"/>
      <point x="78" y="666"/>
      <point x="97" y="656"/>
      <point x="124" y="646" type="curve"/>
      <point x="226" y="-8" type="line"/>
      <point x="283" y="0" type="line"/>
      <point x="437" y="234"/>
      <point x="565" y="534"/>
      <point x="617" y="694" type="curve"/>
      <point x="596" y="707" type="line"/>
      <point x="587" y="707"/>
      <point x="553" y="700"/>
      <point x="505" y="655" type="curve"/>
      <point x="495" y="531" type="line"/>
      <point x="448" y="382"/>
      <point x="345" y="178"/>
      <point x="284" y="89" type="curve"/>
    </contour>
  </outline>
</glyph>
<glyph name="W" format="1">
  <advance width="858"/>
  <unicode hex="0057"/>
  <outline>
    <contour>
      <point x="203" y="700" type="line" name="hr00"/>
      <point x="71" y="700" type="line"/>
      <point x="65" y="678" type="line"/>
      <point x="83" y="666"/>
      <point x="102" y="656"/>
      <point x="129" y="646" type="curve"/>
      <point x="182" y="-8" type="line"/>
      <point x="240" y="0" type="line"/>
      <point x="326" y="144"/>
      <point x="404" y="310"/>
      <point x="463" y="454" type="curve"/>
      <point x="505" y="-8" type="line"/>
      <point x="559" y="0" type="line"/>
      <point x="713" y="234"/>
      <point x="841" y="534"/>
      <point x="893" y="694" type="curve"/>
      <point x="872" y="707" type="line"/>
      <point x="863" y="707"/>
      <point x="829" y="700"/>
      <point x="781" y="655" type="curve"/>
      <point x="771" y="531" type="line"/>
      <point x="724" y="382"/>
      <point x="627" y="191"/>
      <point x="566" y="102" type="curve"/>
      <point x="541" y="363"/>
      <point x="530" y="516"/>
      <point x="521" y="602" type="curve"/>
      <point x="534" y="636"/>
      <point x="545" y="667"/>
      <point x="554" y="694" type="curve"/>
      <point x="533" y="707" type="line"/>
      <point x="524" y="707"/>
      <point x="492" y="700"/>
      <point x="444" y="655" type="curve"/>
      <point x="455" y="550" type="line"/>
      <point x="401" y="403"/>
      <point x="310" y="216"/>
      <point x="246" y="102" type="curve"/>
    </contour>
  </outline>
</glyph>
<glyph name="X" format="1">
  <advance width="635"/>
  <unicode hex="0058"/>
  <outline>
    <contour>
      <point x="108" y="678" type="line" name="hr00"/>
      <point x="131" y="665"/>
      <point x="158" y="653"/>
      <point x="183" y="645" type="curve"/>
      <point x="315" y="343" type="line"/>
      <point x="83" y="61" type="line"/>
      <point x="54" y="50"/>
      <point x="26" y="38"/>
      <point x="0" y="26" type="curve"/>
      <point x="8" y="0" type="line"/>
      <point x="152" y="0" type="line"/>
      <point x="156" y="51" type="line"/>
      <point x="164" y="72" smooth="yes"/>
      <point x="181" y="96" smooth="yes"/>
      <point x="188" y="105" type="curve" smooth="yes"/>
      <point x="337" y="293" type="line"/>
      <point x="441" y="54" type="line"/>
      <point x="414" y="45"/>
      <point x="389" y="36"/>
      <point x="365" y="26" type="curve"/>
      <point x="373" y="0" type="line"/>
      <point x="596" y="0" type="line"/>
      <point x="602" y="22" type="line"/>
      <point x="577" y="35"/>
      <point x="549" y="47"/>
      <point x="523" y="56" type="curve"/>
      <point x="394" y="352" type="line"/>
      <point x="674" y="692" type="line"/>
      <point x="662" y="704" type="line"/>
      <point x="655" y="705" smooth="yes"/>
      <point x="648" y="705" smooth="yes"/>
      <point x="641" y="705" type="curve" smooth="yes"/>
      <point x="633" y="705"/>
      <point x="590" y="705"/>
      <point x="553" y="693" type="curve"/>
      <point x="543" y="634" smooth="yes"/>
      <point x="533" y="600" smooth="yes"/>
      <point x="522" y="587" type="curve" smooth="yes"/>
      <point x="373" y="399" type="line"/>
      <point x="266" y="645" type="line"/>
      <point x="294" y="654"/>
      <point x="320" y="663"/>
      <point x="345" y="674" type="curve"/>
      <point x="337" y="700" type="line"/>
      <point x="114" y="700" type="line"/>
    </contour>
  </outline>
</glyph>
<glyph name="Y" format="1">
  <advance width="511"/>
  <unicode hex="0059"/>
  <outline>
    <contour>
      <point x="369" y="22" type="line" name="hr00"/>
      <point x="337" y="37"/>
      <point x="299" y="51"/>
      <point x="266" y="59" type="curve"/>
      <point x="305" y="264" type="line"/>
      <point x="413" y="409"/>
      <point x="513" y="593"/>
      <point x="552" y="694" type="curve"/>
      <point x="531" y="707" type="line"/>
      <point x="522" y="707"/>
      <point x="488" y="700"/>
      <point x="440" y="655" type="curve"/>
      <point x="426" y="534" type="line"/>
      <point x="378" y="447"/>
      <point x="342" y="389"/>
      <point x="289" y="309" type="curve"/>
      <point x="172" y="700" type="line"/>
      <point x="52" y="700" type="line"/>
      <point x="46" y="678" type="line"/>
      <point x="64" y="666"/>
      <point x="83" y="656"/>
      <point x="110" y="646" type="curve"/>
      <point x="233" y="271" type="line"/>
      <point x="196" y="58" type="line"/>
      <point x="159" y="48"/>
      <point x="124" y="37"/>
      <point x="92" y="26" type="curve"/>
      <point x="100" y="0" type="line"/>
      <point x="363" y="0" type="line"/>
    </contour>
  </outline>
</glyph>
<glyph name="Z" format="1">
  <advance width="605"/>
  <unicode hex="005A"/>
  <outline>
    <contour>
      <point x="-13" y="8" type="line" name="hr00"/>
      <point x="-1" y="-12" type="line"/>
      <point x="41" y="8" type="line"/>
      <point x="202" y="7"/>
      <point x="418" y="0"/>
      <point x="491" y="-4" type="curve"/>
      <point x="505" y="14"/>
      <point x="516" y="34"/>
      <point x="522" y="55" type="curve"/>
      <point x="516" y="72" type="line"/>
      <point x="452" y="62"/>
      <point x="292" y="57"/>
      <point x="116" y="55" type="curve"/>
      <point x="622" y="695" type="line"/>
      <point x="604" y="712" type="line"/>
      <point x="578" y="696" type="line"/>
      <point x="390" y="697"/>
      <point x="207" y="702"/>
      <point x="139" y="713" type="curve"/>
      <point x="133" y="696" type="line"/>
      <point x="139" y="676"/>
      <point x="150" y="657"/>
      <point x="164" y="640" type="curve"/>
      <point x="224" y="640"/>
      <point x="354" y="640"/>
      <point x="483" y="643" type="curve"/>
    </contour>
  </outline>
</glyph>
<glyph name="bracketleft" format="1">
  <advance width="235"/>
  <unicode hex="005B"/>
  <outline>
    <contour>
      <point x="117" y="249" type="curve" name="hr00"/>
      <point x="51" y="85"/>
      <point x="29" y="-70"/>
      <point x="29" y="-233" type="curve"/>
      <point x="186" y="-233" type="line"/>
      <point x="196" y="-199" type="line"/>
      <point x="196" y="-198"/>
      <point x="110" y="-182"/>
      <point x="92" y="-182" type="curve"/>
      <point x="198" y="680" type="line"/>
      <point x="216" y="680"/>
      <point x="305" y="696"/>
      <point x="305" y="697" type="curve"/>
      <point x="313" y="731" type="line"/>
      <point x="147" y="731" type="line"/>
      <point x="122" y="616" smooth="yes"/>
      <point x="103" y="521" smooth="yes"/>
      <point x="103" y="413" type="curve" smooth="yes"/>
      <point x="103" y="360"/>
      <point x="107" y="307"/>
    </contour>
  </outline>
</glyph>
<glyph name="bracketright" format="1">
  <advance width="235"/>
  <unicode hex="005D"/>
  <outline>
    <contour>
      <point x="118" y="249" type="curve" name="hr00"/>
      <point x="184" y="413"/>
      <point x="206" y="568"/>
      <point x="206" y="731" type="curve"/>
      <point x="49" y="731" type="line"/>
      <point x="39" y="697" type="line"/>
      <point x="39" y="696"/>
      <point x="125" y="680"/>
      <point x="143" y="680" type="curve"/>
      <point x="37" y="-182" type="line"/>
      <point x="19" y="-182"/>
      <point x="-70" y="-198"/>
      <point x="-70" y="-199" type="curve"/>
      <point x="-78" y="-233" type="line"/>
      <point x="88" y="-233" type="line"/>
      <point x="113" y="-118" smooth="yes"/>
      <point x="132" y="-23" smooth="yes"/>
      <point x="132" y="85" type="curve" smooth="yes"/>
      <point x="132" y="138"/>
      <point x="128" y="191"/>
    </contour>
  </outline>
</glyph>
<glyph name="asciicircum" format="1">
  <advance width="484"/>
  <unicode hex="005E"/>
  <outline>
    <contour>
      <point x="135" y="225" type="line" name="hr00"/>
      <point x="290" y="457" type="line"/>
      <point x="364" y="225" type="line"/>
      <point x="421" y="225" type="line"/>
      <point x="327" y="512" type="line"/>
      <point x="273" y="512" type="line"/>
      <point x="78" y="225" type="line"/>
    </contour>
  </outline>
</glyph>
<glyph name="underscore" format="1">
  <advance width="504"/>
  <unicode hex="005F"/>
  <outline>
    <contour>
      <point x="40" y="-69" type="line" name="hr00"/>
      <point x="464" y="-69" type="line"/>
      <point x="464" y="-12" type="line"/>
      <point x="40" y="-12" type="line"/>
    </contour>
  </outline>
</glyph>
<glyph name="grave" format="1">
  <advance width="200"/>
  <unicode hex="0060"/>
  <outline>
    <contour>
      <point x="150" y="530" type="line" name="hr00"/>
      <point x="150" y="530"/>
      <point x="80" y="618"/>
      <point x="16" y="714" type="curve"/>
      <point x="4" y="706"/>
      <point x="-19" y="679"/>
      <point x="-24" y="659" type="curve"/>
      <point x="-20" y="640" type="line"/>
      <point x="29" y="583"/>
      <point x="108" y="531"/>
      <point x="135" y="514" type="curve"/>
    </contour>
  </outline>
</glyph>
<glyph name="a" format="1">
  <advance width="498"/>
  <unicode hex="0061"/>
  <outline>
    <contour>
      <point x="308" y="467" type="curve" name="hr00"/>
      <point x="194" y="439" smooth="yes"/>
      <point x="35" y="341" smooth="yes"/>
      <point x="35" y="82" type="curve" smooth="yes"/>
      <point x="35" y="28" smooth="yes"/>
      <point x="57" y="-12" smooth="yes"/>
      <point x="97" y="-12" type="curve" smooth="yes"/>
      <point x="150" y="-12"/>
      <point x="213" y="31"/>
      <point x="324" y="213" type="curve"/>
      <point x="310" y="132" smooth="yes"/>
      <point x="301" y="63" smooth="yes"/>
      <point x="301" y="23" type="curve" smooth="yes"/>
      <point x="301" y="-7"/>
      <point x="314" y="-12"/>
      <point x="318" y="-12" type="curve"/>
      <point x="442" y="7" type="line"/>
      <point x="448" y="26" type="line"/>
      <point x="434" y="37"/>
      <point x="387" y="50"/>
      <point x="358" y="53" type="curve"/>
      <point x="358" y="132"/>
      <point x="408" y="348"/>
      <point x="458" y="457" type="curve"/>
      <point x="444" y="460"/>
      <point x="430" y="461"/>
      <point x="417" y="461" type="curve"/>
      <point x="407" y="437" type="line"/>
      <point x="383" y="445"/>
      <point x="331" y="467"/>
    </contour>
    <contour>
      <point x="102" y="80" type="curve" smooth="yes"/>
      <point x="102" y="225" smooth="yes"/>
      <point x="158" y="410" smooth="yes"/>
      <point x="276" y="410" type="curve" smooth="yes"/>
      <point x="304" y="410"/>
      <point x="331" y="406"/>
      <point x="359" y="401" type="curve"/>
      <point x="341" y="308" type="line"/>
      <point x="224" y="112" smooth="yes"/>
      <point x="158" y="44" smooth="yes"/>
      <point x="127" y="44" type="curve" smooth="yes"/>
      <point x="112" y="44" smooth="yes"/>
      <point x="102" y="58" smooth="yes"/>
    </contour>
  </outline>
</glyph>
<glyph name="b" format="1">
  <advance width="485"/>
  <unicode hex="0062"/>
  <outline>
    <contour>
      <point x="238" y="727" type="curve" smooth="yes" name="hr00"/>
      <point x="238" y="757" smooth="yes"/>
      <point x="233" y="762" smooth="yes"/>
      <point x="229" y="762" type="curve" smooth="yes"/>
      <point x="89" y="743" type="line"/>
      <point x="83" y="724" type="line"/>
      <point x="100" y="711"/>
      <point x="132" y="697"/>
      <point x="163" y="694" type="curve"/>
      <point x="163" y="585"/>
      <point x="87" y="177"/>
      <point x="22" y="27" type="curve"/>
      <point x="83" y="8"/>
      <point x="151" y="-12"/>
      <point x="172" y="-12" type="curve"/>
      <point x="286" y="16" smooth="yes"/>
      <point x="445" y="114" smooth="yes"/>
      <point x="445" y="373" type="curve" smooth="yes"/>
      <point x="445" y="427" smooth="yes"/>
      <point x="423" y="467" smooth="yes"/>
      <point x="383" y="467" type="curve" smooth="yes"/>
      <point x="329" y="467"/>
      <point x="265" y="427"/>
      <point x="147" y="255" type="curve"/>
      <point x="188" y="434" smooth="yes"/>
      <point x="238" y="654" smooth="yes"/>
    </contour>
    <contour>
      <point x="378" y="375" type="curve" smooth="yes"/>
      <point x="378" y="230" smooth="yes"/>
      <point x="322" y="45" smooth="yes"/>
      <point x="204" y="45" type="curve" smooth="yes"/>
      <point x="171" y="45"/>
      <point x="141" y="50"/>
      <point x="110" y="55" type="curve"/>
      <point x="140" y="191" type="line"/>
      <point x="258" y="355" smooth="yes"/>
      <point x="322" y="411" smooth="yes"/>
      <point x="353" y="411" type="curve" smooth="yes"/>
      <point x="368" y="411" smooth="yes"/>
      <point x="378" y="397" smooth="yes"/>
    </contour>
  </outline>
</glyph>
<glyph name="c" format="1">
  <advance width="366"/>
  <unicode hex="0063"/>
  <outline>
    <contour>
      <point x="139" y="-12" type="curve" name="hr00"/>
      <point x="224" y="-12"/>
      <point x="291" y="80"/>
      <point x="319" y="127" type="curve"/>
      <point x="297" y="149" type="line"/>
      <point x="263" y="92" smooth="yes"/>
      <point x="207" y="44" smooth="yes"/>
      <point x="163" y="44" type="curve" smooth="yes"/>
      <point x="122" y="44" smooth="yes"/>
      <point x="107" y="74" smooth="yes"/>
      <point x="107" y="120" type="curve" smooth="yes"/>
      <point x="107" y="249" smooth="yes"/>
      <point x="154" y="411" smooth="yes"/>
      <point x="251" y="411" type="curve" smooth="yes"/>
      <point x="289" y="411"/>
      <point x="322" y="403"/>
      <point x="361" y="396" type="curve"/>
      <point x="376" y="442" type="line"/>
      <point x="357" y="448"/>
      <point x="306" y="468"/>
      <point x="283" y="468" type="curve"/>
      <point x="181" y="444" smooth="yes"/>
      <point x="40" y="353" smooth="yes"/>
      <point x="40" y="122" type="curve" smooth="yes"/>
      <point x="40" y="44" smooth="yes"/>
      <point x="74" y="-12" smooth="yes"/>
    </contour>
  </outline>
</glyph>
<glyph name="d" format="1">
  <advance width="485"/>
  <unicode hex="0064"/>
  <outline>
    <contour>
      <point x="428" y="747" type="curve" name="hr00"/>
      <point x="419" y="688"/>
      <point x="395" y="574"/>
      <point x="370" y="451" type="curve"/>
      <point x="347" y="459"/>
      <point x="322" y="467"/>
      <point x="308" y="467" type="curve"/>
      <point x="194" y="439" smooth="yes"/>
      <point x="35" y="341" smooth="yes"/>
      <point x="35" y="82" type="curve" smooth="yes"/>
      <point x="35" y="28" smooth="yes"/>
      <point x="57" y="-12" smooth="yes"/>
      <point x="97" y="-12" type="curve" smooth="yes"/>
      <point x="150" y="-12"/>
      <point x="213" y="31"/>
      <point x="324" y="213" type="curve"/>
      <point x="310" y="133" smooth="yes"/>
      <point x="301" y="63" smooth="yes"/>
      <point x="301" y="23" type="curve" smooth="yes"/>
      <point x="301" y="-7"/>
      <point x="314" y="-12"/>
      <point x="318" y="-12" type="curve"/>
      <point x="442" y="7" type="line"/>
      <point x="448" y="26" type="line"/>
      <point x="434" y="37"/>
      <point x="387" y="50"/>
      <point x="358" y="53" type="curve"/>
      <point x="358" y="132"/>
      <point x="466" y="644"/>
      <point x="516" y="753" type="curve"/>
      <point x="501" y="762" type="line"/>
      <point x="493" y="762"/>
      <point x="462" y="760"/>
    </contour>
    <contour>
      <point x="102" y="80" type="curve" smooth="yes"/>
      <point x="102" y="225" smooth="yes"/>
      <point x="158" y="410" smooth="yes"/>
      <point x="276" y="410" type="curve" smooth="yes"/>
      <point x="305" y="410"/>
      <point x="332" y="406"/>
      <point x="360" y="401" type="curve"/>
      <point x="342" y="308" type="line"/>
      <point x="224" y="112" smooth="yes"/>
      <point x="158" y="44" smooth="yes"/>
      <point x="127" y="44" type="curve" smooth="yes"/>
      <point x="112" y="44" smooth="yes"/>
      <point x="102" y="58" smooth="yes"/>
    </contour>
  </outline>
</glyph>
<glyph name="e" format="1">
  <advance width="398"/>
  <unicode hex="0065"/>
  <outline>
    <contour>
      <point x="225" y="223" type="line" smooth="yes" name="hr00"/>
      <point x="315" y="232" smooth="yes"/>
      <point x="383" y="315" smooth="yes"/>
      <point x="383" y="407" type="curve" smooth="yes"/>
      <point x="383" y="440" smooth="yes"/>
      <point x="334" y="468" smooth="yes"/>
      <point x="298" y="468" type="curve" smooth="yes"/>
      <point x="236" y="468" smooth="yes"/>
      <point x="40" y="392" smooth="yes"/>
      <point x="40" y="122" type="curve" smooth="yes"/>
      <point x="40" y="44" smooth="yes"/>
      <point x="74" y="-12" smooth="yes"/>
      <point x="139" y="-12" type="curve" smooth="yes"/>
      <point x="232" y="-12"/>
      <point x="303" y="80"/>
      <point x="334" y="127" type="curve"/>
      <point x="312" y="149" type="line"/>
      <point x="273" y="92" smooth="yes"/>
      <point x="211" y="44" smooth="yes"/>
      <point x="163" y="44" type="curve" smooth="yes"/>
      <point x="122" y="44" smooth="yes"/>
      <point x="107" y="74" smooth="yes"/>
      <point x="107" y="120" type="curve" smooth="yes"/>
      <point x="107" y="150"/>
      <point x="109" y="182"/>
      <point x="114" y="212" type="curve"/>
    </contour>
    <contour>
      <point x="317" y="400" type="curve" smooth="yes"/>
      <point x="317" y="325" smooth="yes"/>
      <point x="267" y="256" smooth="yes"/>
      <point x="191" y="256" type="curve" smooth="yes"/>
      <point x="123" y="256" type="line"/>
      <point x="146" y="345" smooth="yes"/>
      <point x="192" y="416" smooth="yes"/>
      <point x="263" y="416" type="curve" smooth="yes"/>
      <point x="306" y="416" smooth="yes"/>
      <point x="317" y="412" smooth="yes"/>
    </contour>
  </outline>
</glyph>
<glyph name="f" format="1">
  <advance width="268"/>
  <unicode hex="0066"/>
  <outline>
    <contour>
      <point x="321" y="699" type="curve" smooth="yes" name="hr00"/>
      <point x="359" y="699"/>
      <point x="392" y="691"/>
      <point x="431" y="684" type="curve"/>
      <point x="448" y="736" type="line"/>
      <point x="429" y="742"/>
      <point x="379" y="762"/>
      <point x="355" y="762" type="curve"/>
      <point x="250" y="736"/>
      <point x="165" y="663"/>
      <point x="127" y="455" type="curve"/>
      <point x="51" y="442" type="line"/>
      <point x="50" y="437" smooth="yes"/>
      <point x="49" y="430" smooth="yes"/>
      <point x="49" y="424" type="curve" smooth="yes"/>
      <point x="49" y="415" smooth="yes"/>
      <point x="51" y="408" smooth="yes"/>
      <point x="60" y="408" type="curve" smooth="yes"/>
      <point x="119" y="408" type="line"/>
      <point x="15" y="-194" type="line"/>
      <point x="52" y="-189" type="line"/>
      <point x="119" y="52" type="line"/>
      <point x="185" y="408" type="line"/>
      <point x="295" y="408" type="line" smooth="yes"/>
      <point x="308" y="408"/>
      <point x="314" y="445"/>
      <point x="314" y="451" type="curve"/>
      <point x="193" y="451" type="line"/>
      <point x="215" y="574" smooth="yes"/>
      <point x="244" y="699" smooth="yes"/>
    </contour>
  </outline>
</glyph>
<glyph name="g" format="1">
  <advance width="409"/>
  <unicode hex="0067"/>
  <outline>
    <contour>
      <point x="262" y="468" type="curve" smooth="yes"/>
      <point x="187" y="468" smooth="yes"/>
      <point x="40" y="412" smooth="yes"/>
      <point x="40" y="233" type="curve" smooth="yes"/>
      <point x="40" y="185"/>
      <point x="61" y="151"/>
      <point x="102" y="137" type="curve"/>
      <point x="81" y="106"/>
      <point x="59" y="67"/>
      <point x="50" y="33" type="curve"/>
      <point x="50" y="18"/>
      <point x="54" y="8"/>
      <point x="67" y="0" type="curve"/>
      <point x="15" y="-31"/>
      <point x="-26" y="-60"/>
      <point x="-56" y="-106" type="curve"/>
      <point x="-56" y="-197" smooth="yes"/>
      <point x="-9" y="-252" smooth="yes"/>
      <point x="93" y="-252" type="curve" smooth="yes"/>
      <point x="246" y="-252" smooth="yes"/>
      <point x="366" y="-142" smooth="yes"/>
      <point x="366" y="-46" type="curve" smooth="yes"/>
      <point x="366" y="-8" smooth="yes"/>
      <point x="341" y="2" smooth="yes"/>
      <point x="276" y="14" type="curve" smooth="yes"/>
      <point x="131" y="42" type="line" smooth="yes"/>
      <point x="115" y="45"/>
      <point x="108" y="50"/>
      <point x="108" y="67" type="curve"/>
      <point x="114" y="83"/>
      <point x="130" y="111"/>
      <point x="143" y="131" type="curve"/>
      <point x="149" y="131" type="line" smooth="yes"/>
      <point x="225" y="131" smooth="yes"/>
      <point x="379" y="187" smooth="yes"/>
      <point x="379" y="367" type="curve" smooth="yes" name="hr01"/>
      <point x="379" y="400"/>
      <point x="368" y="427"/>
      <point x="345" y="444" type="curve"/>
      <point x="361" y="452"/>
      <point x="382" y="454"/>
      <point x="420" y="454" type="curve"/>
      <point x="429" y="469" type="line"/>
      <point x="429" y="474"/>
      <point x="427" y="497"/>
      <point x="414" y="522" type="curve"/>
      <point x="383" y="521"/>
      <point x="351" y="509"/>
      <point x="315" y="460" type="curve"/>
      <point x="300" y="465" smooth="yes"/>
      <point x="282" y="468" smooth="yes"/>
    </contour>
    <contour>
      <point x="250" y="433" type="curve" smooth="yes"/>
      <point x="287" y="433" smooth="yes"/>
      <point x="312" y="407" smooth="yes"/>
      <point x="312" y="362" type="curve" smooth="yes"/>
      <point x="312" y="243" smooth="yes"/>
      <point x="242" y="171" smooth="yes"/>
      <point x="167" y="171" type="curve" smooth="yes"/>
      <point x="128" y="171" smooth="yes"/>
      <point x="107" y="197" smooth="yes"/>
      <point x="107" y="241" type="curve" smooth="yes"/>
      <point x="107" y="360" smooth="yes"/>
      <point x="169" y="433" smooth="yes"/>
    </contour>
    <contour>
      <point x="246" y="-40" type="line" smooth="yes"/>
      <point x="289" y="-48" smooth="yes"/>
      <point x="294" y="-57" smooth="yes"/>
      <point x="294" y="-69" type="curve" smooth="yes" name="hr02"/>
      <point x="294" y="-138" smooth="yes"/>
      <point x="198" y="-204" smooth="yes"/>
      <point x="105" y="-204" type="curve" smooth="yes"/>
      <point x="33" y="-204" smooth="yes"/>
      <point x="11" y="-160" smooth="yes"/>
      <point x="11" y="-106" type="curve" smooth="yes"/>
      <point x="11" y="-99"/>
      <point x="20" y="-77"/>
      <point x="100" y="-11" type="curve"/>
    </contour>
  </outline>
</glyph>
<glyph name="h" format="1">
  <advance width="513"/>
  <unicode hex="0068"/>
  <outline>
    <contour>
      <point x="363" y="53" type="curve" name="hr00"/>
      <point x="427" y="269" smooth="yes"/>
      <point x="443" y="326" smooth="yes"/>
      <point x="443" y="374" type="curve" smooth="yes"/>
      <point x="443" y="428" smooth="yes"/>
      <point x="421" y="468" smooth="yes"/>
      <point x="381" y="468" type="curve" smooth="yes"/>
      <point x="328" y="468"/>
      <point x="267" y="426"/>
      <point x="160" y="253" type="curve"/>
      <point x="202" y="436" smooth="yes"/>
      <point x="251" y="655" smooth="yes"/>
      <point x="251" y="727" type="curve" smooth="yes"/>
      <point x="251" y="757" smooth="yes"/>
      <point x="246" y="762" smooth="yes"/>
      <point x="242" y="762" type="curve" smooth="yes"/>
      <point x="102" y="743" type="line"/>
      <point x="96" y="724" type="line"/>
      <point x="113" y="711"/>
      <point x="145" y="697"/>
      <point x="176" y="694" type="curve"/>
      <point x="176" y="579"/>
      <point x="90" y="130"/>
      <point x="22" y="-3" type="curve"/>
      <point x="37" y="-12" type="line"/>
      <point x="45" y="-12"/>
      <point x="77" y="-10"/>
      <point x="112" y="3" type="curve"/>
      <point x="149" y="169" type="line"/>
      <point x="258" y="349" smooth="yes"/>
      <point x="320" y="412" smooth="yes"/>
      <point x="351" y="412" type="curve" smooth="yes"/>
      <point x="366" y="412" smooth="yes"/>
      <point x="376" y="406" smooth="yes"/>
      <point x="376" y="378" type="curve" smooth="yes"/>
      <point x="376" y="305"/>
      <point x="334" y="132"/>
      <point x="281" y="23" type="curve"/>
      <point x="281" y="-7"/>
      <point x="294" y="-12"/>
      <point x="298" y="-12" type="curve"/>
      <point x="432" y="8" type="line"/>
      <point x="438" y="27" type="line"/>
      <point x="427" y="35"/>
      <point x="389" y="48"/>
    </contour>
  </outline>
</glyph>
<glyph name="i" format="1">
  <advance width="244"/>
  <unicode hex="0069"/>
  <outline>
    <contour>
      <point x="222" y="662" type="curve" smooth="yes" name="hr00"/>
      <point x="204" y="662"/>
      <point x="172" y="655"/>
      <point x="172" y="655" type="curve"/>
      <point x="172" y="655" smooth="yes"/>
      <point x="153" y="611" smooth="yes"/>
      <point x="153" y="579" type="curve" smooth="yes"/>
      <point x="153" y="561" smooth="yes"/>
      <point x="159" y="547" smooth="yes"/>
      <point x="179" y="547" type="curve" smooth="yes"/>
      <point x="198" y="547"/>
      <point x="228" y="556"/>
      <point x="228" y="556" type="curve"/>
      <point x="229" y="556" smooth="yes"/>
      <point x="247" y="599" smooth="yes"/>
      <point x="247" y="628" type="curve" smooth="yes"/>
      <point x="247" y="647" smooth="yes"/>
      <point x="240" y="662" smooth="yes"/>
    </contour>
    <contour>
      <point x="125" y="451" type="curve"/>
      <point x="70" y="198" smooth="yes"/>
      <point x="50" y="71" smooth="yes"/>
      <point x="50" y="23" type="curve" smooth="yes"/>
      <point x="50" y="-7"/>
      <point x="63" y="-12"/>
      <point x="67" y="-12" type="curve"/>
      <point x="191" y="7" type="line"/>
      <point x="197" y="26" type="line"/>
      <point x="183" y="37"/>
      <point x="136" y="50"/>
      <point x="107" y="53" type="curve"/>
      <point x="107" y="117"/>
      <point x="161" y="348"/>
      <point x="204" y="457" type="curve"/>
      <point x="189" y="466" type="line"/>
      <point x="181" y="466"/>
      <point x="159" y="464"/>
    </contour>
  </outline>
</glyph>
<glyph name="j" format="1">
  <advance width="245"/>
  <unicode hex="006A"/>
  <outline>
    <contour>
      <point x="216" y="662" type="curve" smooth="yes" name="hr00"/>
      <point x="199" y="662"/>
      <point x="168" y="655"/>
      <point x="168" y="655" type="curve"/>
      <point x="167" y="655" smooth="yes"/>
      <point x="150" y="609" smooth="yes"/>
      <point x="150" y="578" type="curve" smooth="yes"/>
      <point x="150" y="561" smooth="yes"/>
      <point x="157" y="547" smooth="yes"/>
      <point x="176" y="547" type="curve" smooth="yes"/>
      <point x="194" y="547"/>
      <point x="223" y="556"/>
      <point x="223" y="556" type="curve"/>
      <point x="223" y="556" smooth="yes"/>
      <point x="239" y="599" smooth="yes"/>
      <point x="239" y="627" type="curve" smooth="yes"/>
      <point x="239" y="646" smooth="yes"/>
      <point x="233" y="662" smooth="yes"/>
    </contour>
    <contour>
      <point x="207" y="427" type="line"/>
      <point x="207" y="457" smooth="yes"/>
      <point x="202" y="462" smooth="yes"/>
      <point x="198" y="462" type="curve" smooth="yes"/>
      <point x="62" y="443" type="line"/>
      <point x="56" y="424" type="line"/>
      <point x="73" y="411"/>
      <point x="105" y="397"/>
      <point x="136" y="394" type="curve"/>
      <point x="79" y="69" type="line" smooth="yes"/>
      <point x="60" y="-40"/>
      <point x="15" y="-138"/>
      <point x="-60" y="-241" type="curve"/>
      <point x="-36" y="-262" type="line"/>
      <point x="70" y="-142" smooth="yes"/>
      <point x="121" y="-14" smooth="yes"/>
      <point x="138" y="72" type="curve" smooth="yes"/>
    </contour>
  </outline>
</glyph>
<glyph name="l" format="1">
  <advance width="234"/>
  <unicode hex="006C"/>
  <outline>
    <contour>
      <point x="177" y="747" type="curve" name="hr00"/>
      <point x="155" y="609" smooth="yes"/>
      <point x="40" y="159" smooth="yes"/>
      <point x="40" y="23" type="curve" smooth="yes"/>
      <point x="40" y="-7"/>
      <point x="53" y="-12"/>
      <point x="57" y="-12" type="curve"/>
      <point x="181" y="7" type="line"/>
      <point x="187" y="26" type="line"/>
      <point x="173" y="37"/>
      <point x="126" y="50"/>
      <point x="97" y="53" type="curve"/>
      <point x="97" y="132"/>
      <point x="212" y="644"/>
      <point x="265" y="753" type="curve"/>
      <point x="250" y="762" type="line"/>
      <point x="242" y="762"/>
      <point x="211" y="760"/>
    </contour>
  </outline>
</glyph>
<glyph name="m" format="1">
  <advance width="763"/>
  <unicode hex="006D"/>
  <outline>
    <contour>
      <point x="130" y="3" type="curve" name="hr00"/>
      <point x="142" y="63"/>
      <point x="151" y="114"/>
      <point x="159" y="160" type="curve"/>
      <point x="267" y="347" smooth="yes"/>
      <point x="329" y="412" smooth="yes"/>
      <point x="359" y="412" type="curve" smooth="yes"/>
      <point x="374" y="412" smooth="yes"/>
      <point x="384" y="406" smooth="yes"/>
      <point x="384" y="384" type="curve" smooth="yes"/>
      <point x="384" y="305"/>
      <point x="336" y="106"/>
      <point x="286" y="-3" type="curve"/>
      <point x="301" y="-12" type="line"/>
      <point x="307" y="-12"/>
      <point x="331" y="-10"/>
      <point x="360" y="3" type="curve"/>
      <point x="386" y="77"/>
      <point x="405" y="138"/>
      <point x="418" y="189" type="curve"/>
      <point x="516" y="354" smooth="yes"/>
      <point x="572" y="412" smooth="yes"/>
      <point x="601" y="412" type="curve" smooth="yes"/>
      <point x="616" y="412" smooth="yes"/>
      <point x="626" y="406" smooth="yes"/>
      <point x="626" y="384" type="curve" smooth="yes"/>
      <point x="626" y="305"/>
      <point x="583" y="132"/>
      <point x="531" y="23" type="curve"/>
      <point x="531" y="-7"/>
      <point x="544" y="-12"/>
      <point x="548" y="-12" type="curve"/>
      <point x="682" y="8" type="line"/>
      <point x="688" y="27" type="line"/>
      <point x="676" y="35"/>
      <point x="640" y="48"/>
      <point x="613" y="53" type="curve"/>
      <point x="677" y="269" smooth="yes"/>
      <point x="693" y="326" smooth="yes"/>
      <point x="693" y="374" type="curve" smooth="yes"/>
      <point x="693" y="428" smooth="yes"/>
      <point x="672" y="468" smooth="yes"/>
      <point x="631" y="468" type="curve" smooth="yes"/>
      <point x="584" y="468"/>
      <point x="530" y="432"/>
      <point x="442" y="292" type="curve"/>
      <point x="448" y="329" smooth="yes"/>
      <point x="451" y="356" smooth="yes"/>
      <point x="451" y="374" type="curve" smooth="yes"/>
      <point x="451" y="428" smooth="yes"/>
      <point x="430" y="468" smooth="yes"/>
      <point x="389" y="468" type="curve" smooth="yes"/>
      <point x="338" y="468"/>
      <point x="279" y="426"/>
      <point x="175" y="252" type="curve"/>
      <point x="190" y="342" smooth="yes"/>
      <point x="195" y="392" smooth="yes"/>
      <point x="195" y="421" type="curve" smooth="yes"/>
      <point x="195" y="451"/>
      <point x="190" y="456"/>
      <point x="186" y="456" type="curve"/>
      <point x="62" y="437" type="line"/>
      <point x="56" y="418" type="line"/>
      <point x="73" y="405"/>
      <point x="105" y="391"/>
      <point x="136" y="388" type="curve"/>
      <point x="136" y="309"/>
      <point x="90" y="106"/>
      <point x="40" y="-3" type="curve"/>
      <point x="55" y="-12" type="line"/>
      <point x="62" y="-12"/>
      <point x="94" y="-10"/>
    </contour>
  </outline>
</glyph>
<glyph name="n" format="1">
  <advance width="531"/>
  <unicode hex="006E"/>
  <outline>
    <contour>
      <point x="130" y="3" type="curve" name="hr00"/>
      <point x="141" y="61"/>
      <point x="151" y="111"/>
      <point x="159" y="156" type="curve"/>
      <point x="273" y="346" smooth="yes"/>
      <point x="338" y="412" smooth="yes"/>
      <point x="369" y="412" type="curve" smooth="yes"/>
      <point x="384" y="412" smooth="yes"/>
      <point x="394" y="406" smooth="yes"/>
      <point x="394" y="378" type="curve" smooth="yes"/>
      <point x="394" y="305"/>
      <point x="352" y="132"/>
      <point x="299" y="23" type="curve"/>
      <point x="299" y="-7"/>
      <point x="312" y="-12"/>
      <point x="316" y="-12" type="curve"/>
      <point x="450" y="8" type="line"/>
      <point x="456" y="27" type="line"/>
      <point x="445" y="35"/>
      <point x="407" y="48"/>
      <point x="381" y="53" type="curve"/>
      <point x="445" y="269" smooth="yes"/>
      <point x="461" y="326" smooth="yes"/>
      <point x="461" y="374" type="curve" smooth="yes"/>
      <point x="461" y="428" smooth="yes"/>
      <point x="439" y="468" smooth="yes"/>
      <point x="399" y="468" type="curve" smooth="yes"/>
      <point x="346" y="468"/>
      <point x="283" y="425"/>
      <point x="174" y="247" type="curve"/>
      <point x="190" y="343" smooth="yes"/>
      <point x="195" y="398" smooth="yes"/>
      <point x="195" y="427" type="curve" smooth="yes"/>
      <point x="195" y="457"/>
      <point x="190" y="462"/>
      <point x="186" y="462" type="curve"/>
      <point x="62" y="443" type="line"/>
      <point x="56" y="424" type="line"/>
      <point x="73" y="411"/>
      <point x="105" y="397"/>
      <point x="136" y="394" type="curve"/>
      <point x="136" y="315"/>
      <point x="90" y="106"/>
      <point x="40" y="-3" type="curve"/>
      <point x="55" y="-12" type="line"/>
      <point x="63" y="-12"/>
      <point x="95" y="-10"/>
    </contour>
  </outline>
</glyph>
<glyph name="o" format="1">
  <advance width="449"/>
  <unicode hex="006F"/>
  <outline>
    <contour>
      <point x="288" y="468" type="curve" smooth="yes" name="hr00"/>
      <point x="205" y="468" smooth="yes"/>
      <point x="30" y="388" smooth="yes"/>
      <point x="30" y="133" type="curve" smooth="yes"/>
      <point x="30" y="44" smooth="yes"/>
      <point x="71" y="-12" smooth="yes"/>
      <point x="153" y="-12" type="curve" smooth="yes"/>
      <point x="236" y="-12" smooth="yes"/>
      <point x="419" y="68" smooth="yes"/>
      <point x="419" y="323" type="curve" smooth="yes"/>
      <point x="419" y="412" smooth="yes"/>
      <point x="378" y="468" smooth="yes"/>
    </contour>
    <contour>
      <point x="286" y="426" type="curve" smooth="yes"/>
      <point x="329" y="426" smooth="yes"/>
      <point x="355" y="391" smooth="yes"/>
      <point x="355" y="330" type="curve" smooth="yes"/>
      <point x="355" y="147" smooth="yes"/>
      <point x="248" y="36" smooth="yes"/>
      <point x="158" y="36" type="curve" smooth="yes"/>
      <point x="115" y="36" smooth="yes"/>
      <point x="94" y="70" smooth="yes"/>
      <point x="94" y="130" type="curve" smooth="yes"/>
      <point x="94" y="314" smooth="yes"/>
      <point x="187" y="426" smooth="yes"/>
    </contour>
  </outline>
</glyph>
<glyph name="p" format="1">
  <advance width="499"/>
  <unicode hex="0070"/>
  <outline>
    <contour>
      <point x="75" y="-247" type="curve" name="hr00"/>
      <point x="83" y="-192"/>
      <point x="103" y="-98"/>
      <point x="124" y="5" type="curve"/>
      <point x="147" y="-3"/>
      <point x="171" y="-11"/>
      <point x="186" y="-11" type="curve"/>
      <point x="300" y="17" smooth="yes"/>
      <point x="459" y="115" smooth="yes"/>
      <point x="459" y="374" type="curve" smooth="yes"/>
      <point x="459" y="428" smooth="yes"/>
      <point x="437" y="468" smooth="yes"/>
      <point x="397" y="468" type="curve" smooth="yes"/>
      <point x="344" y="468"/>
      <point x="281" y="425"/>
      <point x="172" y="247" type="curve"/>
      <point x="184" y="318" smooth="yes"/>
      <point x="193" y="381" smooth="yes"/>
      <point x="193" y="421" type="curve" smooth="yes"/>
      <point x="193" y="451"/>
      <point x="188" y="456"/>
      <point x="184" y="456" type="curve"/>
      <point x="60" y="437" type="line"/>
      <point x="54" y="418" type="line"/>
      <point x="71" y="405"/>
      <point x="104" y="391"/>
      <point x="135" y="388" type="curve"/>
      <point x="135" y="309"/>
      <point x="35" y="-144"/>
      <point x="-15" y="-253" type="curve"/>
      <point x="0" y="-262" type="line"/>
      <point x="8" y="-262"/>
      <point x="41" y="-260"/>
    </contour>
    <contour>
      <point x="392" y="376" type="curve" smooth="yes"/>
      <point x="392" y="231" smooth="yes"/>
      <point x="336" y="46" smooth="yes"/>
      <point x="218" y="46" type="curve" smooth="yes"/>
      <point x="189" y="46"/>
      <point x="162" y="50"/>
      <point x="135" y="54" type="curve"/>
      <point x="154" y="151" type="line"/>
      <point x="270" y="344" smooth="yes"/>
      <point x="335" y="412" smooth="yes"/>
      <point x="367" y="412" type="curve" smooth="yes"/>
      <point x="382" y="412" smooth="yes"/>
      <point x="392" y="398" smooth="yes"/>
    </contour>
  </outline>
</glyph>
<glyph name="q" format="1">
  <advance width="470"/>
  <unicode hex="0071"/>
  <outline>
    <contour>
      <point x="245" y="-227" type="curve" smooth="yes" name="hr00"/>
      <point x="245" y="-257"/>
      <point x="258" y="-262"/>
      <point x="262" y="-262" type="curve"/>
      <point x="391" y="-242" type="line"/>
      <point x="397" y="-223" type="line"/>
      <point x="385" y="-215"/>
      <point x="349" y="-202"/>
      <point x="322" y="-197" type="curve"/>
      <point x="330" y="-123"/>
      <point x="405" y="317"/>
      <point x="450" y="431" type="curve"/>
      <point x="429" y="438"/>
      <point x="338" y="467"/>
      <point x="313" y="467" type="curve"/>
      <point x="199" y="439" smooth="yes"/>
      <point x="40" y="341" smooth="yes"/>
      <point x="40" y="82" type="curve" smooth="yes"/>
      <point x="40" y="28" smooth="yes"/>
      <point x="62" y="-12" smooth="yes"/>
      <point x="102" y="-12" type="curve" smooth="yes"/>
      <point x="155" y="-12"/>
      <point x="219" y="27"/>
      <point x="334" y="195" type="curve"/>
      <point x="295" y="15" smooth="yes"/>
      <point x="245" y="-192" smooth="yes"/>
    </contour>
    <contour>
      <point x="107" y="80" type="curve" smooth="yes"/>
      <point x="107" y="225" smooth="yes"/>
      <point x="163" y="410" smooth="yes"/>
      <point x="281" y="410" type="curve" smooth="yes"/>
      <point x="313" y="410"/>
      <point x="343" y="405"/>
      <point x="375" y="399" type="curve"/>
      <point x="370" y="365"/>
      <point x="361" y="321"/>
      <point x="351" y="272" type="curve"/>
      <point x="229" y="101" smooth="yes"/>
      <point x="163" y="44" smooth="yes"/>
      <point x="132" y="44" type="curve" smooth="yes"/>
      <point x="117" y="44" smooth="yes"/>
      <point x="107" y="58" smooth="yes"/>
    </contour>
  </outline>
</glyph>
<glyph name="r" format="1">
  <advance width="363"/>
  <unicode hex="0072"/>
  <outline>
    <contour>
      <point x="55" y="-12" type="line" name="hr00"/>
      <point x="63" y="-12"/>
      <point x="95" y="-10"/>
      <point x="130" y="3" type="curve"/>
      <point x="163" y="177" type="line"/>
      <point x="262" y="345" type="line" smooth="yes"/>
      <point x="285" y="384"/>
      <point x="299" y="390"/>
      <point x="369" y="390" type="curve"/>
      <point x="378" y="405" type="line"/>
      <point x="378" y="411"/>
      <point x="376" y="438"/>
      <point x="363" y="468" type="curve"/>
      <point x="315" y="455" smooth="yes"/>
      <point x="269" y="434" smooth="yes"/>
      <point x="209" y="321" type="curve" smooth="yes"/>
      <point x="177" y="260" type="line"/>
      <point x="190" y="345" smooth="yes"/>
      <point x="195" y="393" smooth="yes"/>
      <point x="195" y="421" type="curve" smooth="yes"/>
      <point x="195" y="451"/>
      <point x="190" y="456"/>
      <point x="186" y="456" type="curve"/>
      <point x="62" y="437" type="line"/>
      <point x="56" y="418" type="line"/>
      <point x="73" y="405"/>
      <point x="105" y="391"/>
      <point x="136" y="388" type="curve"/>
      <point x="136" y="309"/>
      <point x="90" y="106"/>
      <point x="40" y="-3" type="curve"/>
    </contour>
  </outline>
</glyph>
<glyph name="s" format="1">
  <advance width="358"/>
  <unicode hex="0073"/>
  <outline>
    <contour>
      <point x="250" y="468" type="curve" name="hr00"/>
      <point x="170" y="460" smooth="yes"/>
      <point x="71" y="405" smooth="yes"/>
      <point x="71" y="327" type="curve" smooth="yes"/>
      <point x="71" y="284" smooth="yes"/>
      <point x="94" y="264" smooth="yes"/>
      <point x="125" y="237" type="curve" smooth="yes"/>
      <point x="207" y="167" type="line" smooth="yes"/>
      <point x="232" y="145" smooth="yes"/>
      <point x="247" y="128" smooth="yes"/>
      <point x="247" y="104" type="curve" smooth="yes"/>
      <point x="247" y="51" smooth="yes"/>
      <point x="209" y="30" smooth="yes"/>
      <point x="164" y="30" type="curve" smooth="yes"/>
      <point x="134" y="30"/>
      <point x="101" y="36"/>
      <point x="71" y="47" type="curve"/>
      <point x="69" y="82"/>
      <point x="63" y="117"/>
      <point x="59" y="136" type="curve"/>
      <point x="40" y="140" type="line"/>
      <point x="10" y="14" type="line"/>
      <point x="59" y="-4" smooth="yes"/>
      <point x="110" y="-12" smooth="yes"/>
      <point x="156" y="-12" type="curve" smooth="yes"/>
      <point x="241" y="-12" smooth="yes"/>
      <point x="313" y="32" smooth="yes"/>
      <point x="313" y="118" type="curve" smooth="yes"/>
      <point x="313" y="160" smooth="yes"/>
      <point x="291" y="183" smooth="yes"/>
      <point x="249" y="219" type="curve" smooth="yes"/>
      <point x="150" y="303" type="line" smooth="yes"/>
      <point x="134" y="316" smooth="yes"/>
      <point x="126" y="334" smooth="yes"/>
      <point x="126" y="350" type="curve" smooth="yes"/>
      <point x="126" y="382" smooth="yes"/>
      <point x="153" y="411" smooth="yes"/>
      <point x="207" y="411" type="curve" smooth="yes"/>
      <point x="254" y="411"/>
      <point x="285" y="404"/>
      <point x="328" y="396" type="curve"/>
      <point x="343" y="442" type="line"/>
      <point x="322" y="449"/>
      <point x="265" y="468"/>
    </contour>
  </outline>
</glyph>
<glyph name="t" format="1">
  <advance width="295"/>
  <unicode hex="0074"/>
  <outline>
    <contour>
      <point x="179" y="595" type="curve" name="hr00"/>
      <point x="167" y="549"/>
      <point x="157" y="502"/>
      <point x="147" y="457" type="curve"/>
      <point x="57" y="442" type="line"/>
      <point x="56" y="437" smooth="yes"/>
      <point x="55" y="430" smooth="yes"/>
      <point x="55" y="424" type="curve" smooth="yes"/>
      <point x="55" y="415" smooth="yes"/>
      <point x="57" y="408" smooth="yes"/>
      <point x="66" y="408" type="curve" smooth="yes"/>
      <point x="136" y="408" type="line"/>
      <point x="96" y="221" smooth="yes"/>
      <point x="72" y="59" smooth="yes"/>
      <point x="72" y="23" type="curve" smooth="yes"/>
      <point x="72" y="-7"/>
      <point x="85" y="-12"/>
      <point x="89" y="-12" type="curve"/>
      <point x="243" y="11" type="line"/>
      <point x="249" y="30" type="line"/>
      <point x="235" y="41"/>
      <point x="161" y="53"/>
      <point x="129" y="53" type="curve"/>
      <point x="129" y="107"/>
      <point x="164" y="269"/>
      <point x="202" y="408" type="curve"/>
      <point x="296" y="408" type="line" smooth="yes"/>
      <point x="310" y="408"/>
      <point x="315" y="445"/>
      <point x="315" y="451" type="curve"/>
      <point x="214" y="451" type="line"/>
      <point x="232" y="513"/>
      <point x="249" y="568"/>
      <point x="263" y="601" type="curve"/>
      <point x="248" y="610" type="line"/>
      <point x="240" y="610"/>
      <point x="213" y="608"/>
    </contour>
  </outline>
</glyph>
<glyph name="u" format="1">
  <advance width="516"/>
  <unicode hex="0075"/>
  <outline>
    <contour>
      <point x="208" y="427" type="curve"/>
      <point x="208" y="457" smooth="yes"/>
      <point x="203" y="462" smooth="yes"/>
      <point x="199" y="462" type="curve" smooth="yes"/>
      <point x="54" y="443" type="line"/>
      <point x="48" y="424" type="line"/>
      <point x="65" y="411"/>
      <point x="97" y="397"/>
      <point x="128" y="394" type="curve"/>
      <point x="63" y="173" smooth="yes"/>
      <point x="55" y="125" smooth="yes"/>
      <point x="55" y="77" type="curve" smooth="yes"/>
      <point x="55" y="23" smooth="yes"/>
      <point x="77" y="-17" smooth="yes"/>
      <point x="117" y="-17" type="curve" smooth="yes"/>
      <point x="169" y="-17"/>
      <point x="232" y="25"/>
      <point x="340" y="201" type="curve"/>
      <point x="324" y="107" smooth="yes"/>
      <point x="319" y="51" smooth="yes"/>
      <point x="319" y="23" type="curve" smooth="yes"/>
      <point x="319" y="-7"/>
      <point x="332" y="-12"/>
      <point x="336" y="-12" type="curve" name="hr01"/>
      <point x="460" y="7" type="line"/>
      <point x="466" y="26" type="line"/>
      <point x="452" y="37"/>
      <point x="405" y="50"/>
      <point x="376" y="53" type="curve"/>
      <point x="376" y="132"/>
      <point x="426" y="348"/>
      <point x="476" y="457" type="curve"/>
      <point x="461" y="466" type="line"/>
      <point x="453" y="466"/>
      <point x="421" y="464"/>
      <point x="386" y="451" type="curve"/>
      <point x="374" y="391"/>
      <point x="364" y="339"/>
      <point x="356" y="294" type="curve"/>
      <point x="235" y="95" smooth="yes"/>
      <point x="175" y="39" smooth="yes"/>
      <point x="144" y="39" type="curve" smooth="yes"/>
      <point x="129" y="39" smooth="yes"/>
      <point x="122" y="45" smooth="yes"/>
      <point x="122" y="67" type="curve" smooth="yes"/>
      <point x="122" y="146"/>
      <point x="162" y="314"/>
    </contour>
  </outline>
</glyph>
<glyph name="v" format="1">
  <advance width="409"/>
  <unicode hex="0076"/>
  <outline>
    <contour>
      <point x="178" y="-6" type="line" name="hr00"/>
      <point x="285" y="110"/>
      <point x="381" y="352"/>
      <point x="422" y="459" type="curve"/>
      <point x="407" y="468" type="line"/>
      <point x="400" y="468"/>
      <point x="372" y="463"/>
      <point x="337" y="433" type="curve"/>
      <point x="334" y="408" smooth="yes"/>
      <point x="330" y="380" smooth="yes"/>
      <point x="325" y="350" type="curve" smooth="yes"/>
      <point x="289" y="250"/>
      <point x="232" y="133"/>
      <point x="185" y="73" type="curve"/>
      <point x="151" y="442"/>
      <point x="144" y="468"/>
      <point x="139" y="468" type="curve"/>
      <point x="27" y="449" type="line"/>
      <point x="21" y="430" type="line"/>
      <point x="33" y="417"/>
      <point x="57" y="403"/>
      <point x="80" y="400" type="curve"/>
      <point x="136" y="-12" type="line"/>
    </contour>
  </outline>
</glyph>
<glyph name="w" format="1">
  <advance width="608"/>
  <unicode hex="0077"/>
  <outline>
    <contour>
      <point x="167" y="-6" type="line" name="hr00"/>
      <point x="224" y="60"/>
      <point x="278" y="166"/>
      <point x="321" y="265" type="curve"/>
      <point x="345" y="-12" type="line"/>
      <point x="390" y="-6" type="line"/>
      <point x="492" y="110"/>
      <point x="582" y="352"/>
      <point x="621" y="459" type="curve"/>
      <point x="606" y="468" type="line"/>
      <point x="599" y="468"/>
      <point x="571" y="463"/>
      <point x="536" y="433" type="curve"/>
      <point x="526" y="350" type="line"/>
      <point x="492" y="250"/>
      <point x="439" y="133"/>
      <point x="394" y="73" type="curve"/>
      <point x="381" y="226"/>
      <point x="373" y="320"/>
      <point x="367" y="377" type="curve"/>
      <point x="398" y="459" type="line"/>
      <point x="383" y="468" type="line"/>
      <point x="376" y="468"/>
      <point x="342" y="460"/>
      <point x="307" y="430" type="curve"/>
      <point x="313" y="364" type="line"/>
      <point x="279" y="264"/>
      <point x="216" y="133"/>
      <point x="171" y="73" type="curve"/>
      <point x="153" y="442" smooth="yes"/>
      <point x="148" y="468" smooth="yes"/>
      <point x="145" y="468" type="curve" smooth="yes"/>
      <point x="33" y="449" type="line"/>
      <point x="27" y="430" type="line"/>
      <point x="39" y="417"/>
      <point x="63" y="403"/>
      <point x="86" y="400" type="curve"/>
      <point x="122" y="-12" type="line"/>
    </contour>
  </outline>
</glyph>
<glyph name="x" format="1">
  <advance width="426"/>
  <unicode hex="0078"/>
  <outline>
    <contour>
      <point x="392" y="10" type="line" name="hr00"/>
      <point x="398" y="29" type="line"/>
      <point x="384" y="40"/>
      <point x="337" y="53"/>
      <point x="308" y="56" type="curve"/>
      <point x="280" y="97"/>
      <point x="264" y="164"/>
      <point x="249" y="233" type="curve"/>
      <point x="332" y="310"/>
      <point x="400" y="398"/>
      <point x="436" y="454" type="curve"/>
      <point x="421" y="463" type="line"/>
      <point x="413" y="463"/>
      <point x="385" y="461"/>
      <point x="351" y="448" type="curve"/>
      <point x="341" y="417"/>
      <point x="325" y="385"/>
      <point x="304" y="347" type="curve"/>
      <point x="285" y="324"/>
      <point x="263" y="299"/>
      <point x="239" y="276" type="curve"/>
      <point x="222" y="353"/>
      <point x="203" y="426"/>
      <point x="167" y="462" type="curve"/>
      <point x="52" y="443" type="line"/>
      <point x="46" y="424" type="line"/>
      <point x="57" y="413"/>
      <point x="99" y="400"/>
      <point x="125" y="397" type="curve"/>
      <point x="155" y="358"/>
      <point x="172" y="297"/>
      <point x="186" y="232" type="curve"/>
      <point x="97" y="151"/>
      <point x="27" y="57"/>
      <point x="-10" y="-2" type="curve"/>
      <point x="4" y="-11" type="line"/>
      <point x="11" y="-11"/>
      <point x="39" y="-9"/>
      <point x="74" y="4" type="curve"/>
      <point x="85" y="37"/>
      <point x="103" y="70"/>
      <point x="126" y="110" type="curve"/>
      <point x="145" y="135"/>
      <point x="169" y="164"/>
      <point x="196" y="190" type="curve"/>
      <point x="213" y="109"/>
      <point x="229" y="30"/>
      <point x="266" y="-9" type="curve"/>
    </contour>
  </outline>
</glyph>
<glyph name="y" format="1">
  <advance width="409"/>
  <unicode hex="0079"/>
  <outline>
    <contour>
      <point x="422" y="459" type="curve" name="hr00"/>
      <point x="407" y="468" type="line"/>
      <point x="400" y="468"/>
      <point x="372" y="463"/>
      <point x="337" y="433" type="curve"/>
      <point x="334" y="408"/>
      <point x="330" y="380"/>
      <point x="325" y="350" type="curve"/>
      <point x="289" y="250"/>
      <point x="232" y="133"/>
      <point x="185" y="73" type="curve"/>
      <point x="151" y="442"/>
      <point x="144" y="468"/>
      <point x="139" y="468" type="curve"/>
      <point x="27" y="449" type="line"/>
      <point x="21" y="430" type="line"/>
      <point x="33" y="417"/>
      <point x="57" y="403"/>
      <point x="80" y="400" type="curve"/>
      <point x="135" y="-3" type="line"/>
      <point x="96" y="-100"/>
      <point x="68" y="-197"/>
      <point x="54" y="-255" type="curve"/>
      <point x="70" y="-262" type="line"/>
      <point x="78" y="-261"/>
      <point x="109" y="-253"/>
      <point x="144" y="-219" type="curve"/>
      <point x="143" y="-194"/>
      <point x="143" y="-166"/>
      <point x="143" y="-136" type="curve"/>
      <point x="178" y="-5" type="line"/>
      <point x="285" y="110"/>
      <point x="381" y="352"/>
    </contour>
  </outline>
</glyph>
<glyph name="z" format="1">
  <advance width="404"/>
  <unicode hex="007A"/>
  <outline>
    <contour>
      <point x="0" y="1" type="line" name="hr00"/>
      <point x="16" y="-12" type="line"/>
      <point x="51" y="3" type="line"/>
      <point x="162" y="-1"/>
      <point x="261" y="-3"/>
      <point x="313" y="-7" type="curve"/>
      <point x="326" y="8"/>
      <point x="338" y="27"/>
      <point x="344" y="46" type="curve"/>
      <point x="338" y="63" type="line"/>
      <point x="294" y="52"/>
      <point x="205" y="46"/>
      <point x="106" y="44" type="curve"/>
      <point x="414" y="456" type="line"/>
      <point x="395" y="471" type="line"/>
      <point x="343" y="445" type="line"/>
      <point x="231" y="447"/>
      <point x="128" y="452"/>
      <point x="87" y="462" type="curve"/>
      <point x="81" y="445" type="line"/>
      <point x="87" y="425"/>
      <point x="99" y="406"/>
      <point x="112" y="389" type="curve"/>
      <point x="150" y="393"/>
      <point x="220" y="398"/>
      <point x="302" y="405" type="curve"/>
    </contour>
  </outline>
</glyph>
<glyph name="braceleft" format="1">
  <advance width="258"/>
  <unicode hex="007B"/>
  <outline>
    <contour>
      <point x="127" y="253" type="line" name="hr00"/>
      <point x="168" y="260" smooth="yes"/>
      <point x="190" y="278" smooth="yes"/>
      <point x="190" y="332" type="curve" smooth="yes"/>
      <point x="190" y="363" smooth="yes"/>
      <point x="186" y="402" smooth="yes"/>
      <point x="186" y="463" type="curve" smooth="yes"/>
      <point x="186" y="516"/>
      <point x="189" y="585"/>
      <point x="201" y="680" type="curve"/>
      <point x="220" y="680"/>
      <point x="314" y="696"/>
      <point x="314" y="697" type="curve"/>
      <point x="322" y="731" type="line"/>
      <point x="156" y="731" type="line"/>
      <point x="133" y="629" smooth="yes"/>
      <point x="114" y="542" smooth="yes"/>
      <point x="114" y="446" type="curve" smooth="yes"/>
      <point x="114" y="396"/>
      <point x="119" y="345"/>
      <point x="131" y="290" type="curve"/>
      <point x="33" y="263" type="line"/>
      <point x="29" y="236" type="line"/>
      <point x="121" y="209" type="line"/>
      <point x="54" y="60"/>
      <point x="38" y="-83"/>
      <point x="38" y="-233" type="curve"/>
      <point x="195" y="-233" type="line"/>
      <point x="205" y="-199" type="line"/>
      <point x="205" y="-198"/>
      <point x="114" y="-182"/>
      <point x="95" y="-182" type="curve"/>
      <point x="125" y="63" smooth="yes"/>
      <point x="176" y="142" smooth="yes"/>
      <point x="176" y="200" type="curve" smooth="yes"/>
      <point x="176" y="228"/>
      <point x="153" y="240"/>
      <point x="126" y="245" type="curve"/>
    </contour>
  </outline>
</glyph>
<glyph name="braceright" format="1">
  <advance width="258"/>
  <unicode hex="007D"/>
  <outline>
    <contour>
      <point x="131" y="245" type="line" name="hr00"/>
      <point x="90" y="238" smooth="yes"/>
      <point x="68" y="220" smooth="yes"/>
      <point x="68" y="166" type="curve" smooth="yes"/>
      <point x="68" y="135" smooth="yes"/>
      <point x="72" y="96" smooth="yes"/>
      <point x="72" y="35" type="curve" smooth="yes"/>
      <point x="72" y="-18"/>
      <point x="69" y="-87"/>
      <point x="57" y="-182" type="curve"/>
      <point x="38" y="-182"/>
      <point x="-56" y="-198"/>
      <point x="-56" y="-199" type="curve"/>
      <point x="-64" y="-233" type="line"/>
      <point x="102" y="-233" type="line"/>
      <point x="125" y="-131" smooth="yes"/>
      <point x="144" y="-44" smooth="yes"/>
      <point x="144" y="52" type="curve" smooth="yes"/>
      <point x="144" y="102"/>
      <point x="139" y="153"/>
      <point x="127" y="208" type="curve"/>
      <point x="225" y="235" type="line"/>
      <point x="229" y="262" type="line"/>
      <point x="137" y="289" type="line"/>
      <point x="204" y="438"/>
      <point x="220" y="581"/>
      <point x="220" y="731" type="curve"/>
      <point x="63" y="731" type="line"/>
      <point x="53" y="697" type="line"/>
      <point x="53" y="696"/>
      <point x="144" y="680"/>
      <point x="163" y="680" type="curve"/>
      <point x="133" y="435" smooth="yes"/>
      <point x="82" y="356" smooth="yes"/>
      <point x="82" y="298" type="curve" smooth="yes"/>
      <point x="82" y="270"/>
      <point x="105" y="258"/>
      <point x="132" y="253" type="curve"/>
    </contour>
  </outline>
</glyph>
<glyph name="asciitilde" format="1">
  <advance width="484"/>
  <unicode hex="007E"/>
  <outline>
    <contour>
      <point x="434" y="321" type="line" name="hr00"/>
      <point x="408" y="303" smooth="yes"/>
      <point x="383" y="294" smooth="yes"/>
      <point x="355" y="294" type="curve" smooth="yes"/>
      <point x="302" y="294" smooth="yes"/>
      <point x="248" y="319" smooth="yes"/>
      <point x="191" y="319" type="curve" smooth="yes"/>
      <point x="155" y="319"/>
      <point x="119" y="308"/>
      <point x="85" y="275" type="curve"/>
      <point x="101" y="238" type="line"/>
      <point x="125" y="256" smooth="yes"/>
      <point x="149" y="263" smooth="yes"/>
      <point x="177" y="263" type="curve" smooth="yes"/>
      <point x="229" y="263" smooth="yes"/>
      <point x="284" y="238" smooth="yes"/>
      <point x="341" y="238" type="curve" smooth="yes"/>
      <point x="375" y="238"/>
      <point x="412" y="249"/>
      <point x="448" y="284" type="curve"/>
    </contour>
  </outline>
</glyph>
<glyph name="exclamdown" format="1">
  <advance width="287"/>
  <unicode hex="00A1"/>
  <outline>
    <contour>
      <point x="164" y="355" type="curve" smooth="yes" name="hr00"/>
      <point x="180" y="355"/>
      <point x="212" y="362"/>
      <point x="212" y="362" type="curve"/>
      <point x="213" y="362" smooth="yes"/>
      <point x="230" y="407" smooth="yes"/>
      <point x="230" y="435" type="curve" smooth="yes"/>
      <point x="230" y="454" smooth="yes"/>
      <point x="223" y="468" smooth="yes"/>
      <point x="206" y="468" type="curve" smooth="yes"/>
      <point x="187" y="468"/>
      <point x="156" y="460"/>
      <point x="156" y="460" type="curve"/>
      <point x="155" y="460" smooth="yes"/>
      <point x="139" y="415" smooth="yes"/>
      <point x="139" y="389" type="curve" smooth="yes"/>
      <point x="139" y="370" smooth="yes"/>
      <point x="146" y="355" smooth="yes"/>
    </contour>
    <contour>
      <point x="182" y="295" type="line"/>
      <point x="150" y="291" type="line"/>
      <point x="72" y="105"/>
      <point x="35" y="-31"/>
      <point x="27" y="-215" type="curve"/>
      <point x="41" y="-224" type="line"/>
      <point x="48" y="-224"/>
      <point x="67" y="-222"/>
      <point x="92" y="-209" type="curve"/>
    </contour>
  </outline>
</glyph>
<glyph name="cent" format="1">
  <advance width="484"/>
  <unicode hex="00A2"/>
  <outline>
    <contour>
      <point x="224" y="-35" type="line" name="hr00"/>
      <point x="242" y="38" type="line"/>
      <point x="257" y="38" type="line" smooth="yes"/>
      <point x="296" y="38"/>
      <point x="342" y="50"/>
      <point x="392" y="81" type="curve"/>
      <point x="381" y="111" type="line"/>
      <point x="340" y="93" smooth="yes"/>
      <point x="309" y="86" smooth="yes"/>
      <point x="279" y="86" type="curve" smooth="yes"/>
      <point x="270" y="86"/>
      <point x="262" y="87"/>
      <point x="254" y="88" type="curve"/>
      <point x="344" y="457" type="line"/>
      <point x="378" y="455"/>
      <point x="410" y="448"/>
      <point x="447" y="441" type="curve"/>
      <point x="463" y="490" type="line"/>
      <point x="443" y="497"/>
      <point x="385" y="517"/>
      <point x="359" y="518" type="curve"/>
      <point x="373" y="574" type="line"/>
      <point x="335" y="574" type="line"/>
      <point x="320" y="515" type="line"/>
      <point x="201" y="482" smooth="yes"/>
      <point x="90" y="393" smooth="yes"/>
      <point x="90" y="214" type="curve" smooth="yes"/>
      <point x="90" y="118"/>
      <point x="135" y="61"/>
      <point x="205" y="44" type="curve"/>
      <point x="186" y="-35" type="line"/>
    </contour>
    <contour>
      <point x="165" y="222" type="curve" smooth="yes"/>
      <point x="165" y="357"/>
      <point x="204" y="444"/>
      <point x="306" y="455" type="curve"/>
      <point x="219" y="101" type="line"/>
      <point x="184" y="121" smooth="yes"/>
      <point x="165" y="163" smooth="yes"/>
    </contour>
  </outline>
</glyph>
<glyph name="yen" format="1">
  <advance width="484"/>
  <unicode hex="00A5"/>
  <outline>
    <contour>
      <point x="105" y="263" type="line" name="hr00"/>
      <point x="196" y="263" type="line"/>
      <point x="210" y="220" type="line"/>
      <point x="209" y="216" type="line"/>
      <point x="97" y="216" type="line"/>
      <point x="90" y="179" type="line"/>
      <point x="202" y="179" type="line"/>
      <point x="177" y="55" type="line"/>
      <point x="139" y="46"/>
      <point x="103" y="36"/>
      <point x="69" y="26" type="curve"/>
      <point x="77" y="0" type="line"/>
      <point x="345" y="0" type="line"/>
      <point x="351" y="22" type="line"/>
      <point x="320" y="34"/>
      <point x="284" y="46"/>
      <point x="251" y="54" type="curve"/>
      <point x="276" y="179" type="line"/>
      <point x="390" y="179" type="line"/>
      <point x="397" y="216" type="line"/>
      <point x="283" y="216" type="line"/>
      <point x="285" y="224" type="line"/>
      <point x="310" y="263" type="line"/>
      <point x="405" y="263" type="line"/>
      <point x="411" y="300" type="line"/>
      <point x="335" y="300" type="line"/>
      <point x="466" y="499" type="line"/>
      <point x="515" y="521" type="line"/>
      <point x="516" y="524" smooth="yes"/>
      <point x="516" y="529" smooth="yes"/>
      <point x="516" y="534" type="curve" smooth="yes"/>
      <point x="516" y="542" smooth="yes"/>
      <point x="514" y="551" smooth="yes"/>
      <point x="507" y="551" type="curve" smooth="yes"/>
      <point x="448" y="547" type="line"/>
      <point x="384" y="551" smooth="yes"/>
      <point x="383" y="551" smooth="yes"/>
      <point x="383" y="551" type="curve" smooth="yes"/>
      <point x="371" y="551"/>
      <point x="366" y="526"/>
      <point x="365" y="521" type="curve"/>
      <point x="421" y="501" type="line"/>
      <point x="265" y="261" type="line"/>
      <point x="191" y="501" type="line"/>
      <point x="250" y="521" type="line"/>
      <point x="250" y="523" smooth="yes"/>
      <point x="251" y="528" smooth="yes"/>
      <point x="251" y="534" type="curve" smooth="yes"/>
      <point x="251" y="542" smooth="yes"/>
      <point x="249" y="551" smooth="yes"/>
      <point x="242" y="551" type="curve" smooth="yes"/>
      <point x="172" y="547" type="line"/>
      <point x="99" y="551" type="line" smooth="yes"/>
      <point x="89" y="551"/>
      <point x="82" y="528"/>
      <point x="80" y="521" type="curve"/>
      <point x="120" y="499" type="line"/>
      <point x="184" y="300" type="line"/>
      <point x="111" y="300" type="line"/>
    </contour>
  </outline>
</glyph>
<glyph name="brokenbar" format="1">
  <advance width="270"/>
  <unicode hex="00A6"/>
  <outline>
    <contour>
      <point x="100" y="322" type="line" name="hr00"/>
      <point x="170" y="322" type="line"/>
      <point x="170" y="673" type="line"/>
      <point x="100" y="673" type="line"/>
    </contour>
    <contour>
      <point x="100" y="-208" type="line"/>
      <point x="170" y="-208" type="line"/>
      <point x="170" y="143" type="line"/>
      <point x="100" y="143" type="line"/>
    </contour>
  </outline>
</glyph>
<glyph name="section" format="1">
  <advance width="427"/>
  <unicode hex="00A7"/>
  <outline>
    <contour>
      <point x="259" y="367" type="line" smooth="yes"/>
      <point x="269" y="358" smooth="yes"/>
      <point x="273" y="346" smooth="yes"/>
      <point x="273" y="331" type="curve" smooth="yes"/>
      <point x="273" y="307"/>
      <point x="263" y="278"/>
      <point x="252" y="260" type="curve"/>
      <point x="274" y="242" type="line"/>
      <point x="318" y="283" smooth="yes"/>
      <point x="330" y="321" smooth="yes"/>
      <point x="330" y="352" type="curve" smooth="yes"/>
      <point x="330" y="411"/>
      <point x="167" y="493"/>
      <point x="149" y="563" type="curve"/>
      <point x="151" y="635" smooth="yes"/>
      <point x="225" y="662" smooth="yes"/>
      <point x="292" y="662" type="curve" smooth="yes"/>
      <point x="309" y="662"/>
      <point x="325" y="661"/>
      <point x="339" y="658" type="curve"/>
      <point x="339" y="557" type="line" smooth="yes"/>
      <point x="339" y="543"/>
      <point x="373" y="543"/>
      <point x="381" y="543" type="curve"/>
      <point x="407" y="697" type="line"/>
      <point x="367" y="707" smooth="yes"/>
      <point x="328" y="712" smooth="yes"/>
      <point x="291" y="712" type="curve" smooth="yes"/>
      <point x="173" y="712" smooth="yes"/>
      <point x="84" y="659" smooth="yes"/>
      <point x="84" y="568" type="curve" smooth="yes"/>
      <point x="84" y="513" smooth="yes"/>
      <point x="140" y="462" smooth="yes"/>
      <point x="195" y="418" type="curve" smooth="yes"/>
    </contour>
    <contour>
      <point x="153" y="384" type="line"/>
      <point x="109" y="343" smooth="yes"/>
      <point x="97" y="306" smooth="yes"/>
      <point x="97" y="275" type="curve" smooth="yes" name="hr01"/>
      <point x="97" y="216"/>
      <point x="260" y="134"/>
      <point x="278" y="64" type="curve"/>
      <point x="276" y="-8" smooth="yes"/>
      <point x="202" y="-35" smooth="yes"/>
      <point x="135" y="-35" type="curve" smooth="yes"/>
      <point x="118" y="-35"/>
      <point x="102" y="-34"/>
      <point x="88" y="-31" type="curve"/>
      <point x="88" y="70" type="line" smooth="yes"/>
      <point x="88" y="84"/>
      <point x="54" y="84"/>
      <point x="46" y="84" type="curve"/>
      <point x="20" y="-70" type="line"/>
      <point x="60" y="-80" smooth="yes"/>
      <point x="99" y="-85" smooth="yes"/>
      <point x="136" y="-85" type="curve" smooth="yes"/>
      <point x="254" y="-85" smooth="yes"/>
      <point x="343" y="-32" smooth="yes"/>
      <point x="343" y="59" type="curve" smooth="yes"/>
      <point x="343" y="114" smooth="yes"/>
      <point x="288" y="165" smooth="yes"/>
      <point x="232" y="209" type="curve" smooth="yes"/>
      <point x="168" y="259" type="line" smooth="yes"/>
      <point x="157" y="267" smooth="yes"/>
      <point x="153" y="280" smooth="yes"/>
      <point x="153" y="295" type="curve" smooth="yes"/>
      <point x="153" y="319"/>
      <point x="164" y="347"/>
      <point x="175" y="366" type="curve"/>
    </contour>
  </outline>
</glyph>
<glyph name="dieresis" format="1">
  <advance width="374"/>
  <unicode hex="00A8"/>
  <outline>
    <contour>
      <point x="273" y="659" type="curve" smooth="yes" name="hr00"/>
      <point x="255" y="659"/>
      <point x="223" y="652"/>
      <point x="223" y="652" type="curve"/>
      <point x="223" y="652" smooth="yes"/>
      <point x="204" y="608" smooth="yes"/>
      <point x="204" y="576" type="curve" smooth="yes"/>
      <point x="204" y="558" smooth="yes"/>
      <point x="210" y="544" smooth="yes"/>
      <point x="230" y="544" type="curve" smooth="yes"/>
      <point x="249" y="544"/>
      <point x="279" y="553"/>
      <point x="279" y="553" type="curve"/>
      <point x="280" y="553" smooth="yes"/>
      <point x="298" y="596" smooth="yes"/>
      <point x="298" y="625" type="curve" smooth="yes"/>
      <point x="298" y="644" smooth="yes"/>
      <point x="291" y="659" smooth="yes"/>
    </contour>
    <contour>
      <point x="137" y="659" type="curve" smooth="yes"/>
      <point x="119" y="659"/>
      <point x="87" y="652"/>
      <point x="87" y="652" type="curve"/>
      <point x="87" y="652" smooth="yes"/>
      <point x="68" y="608" smooth="yes"/>
      <point x="68" y="576" type="curve" smooth="yes"/>
      <point x="68" y="558" smooth="yes"/>
      <point x="74" y="544" smooth="yes"/>
      <point x="94" y="544" type="curve" smooth="yes"/>
      <point x="113" y="544"/>
      <point x="143" y="553"/>
      <point x="143" y="553" type="curve"/>
      <point x="144" y="553" smooth="yes"/>
      <point x="162" y="596" smooth="yes"/>
      <point x="162" y="625" type="curve" smooth="yes"/>
      <point x="162" y="644" smooth="yes"/>
      <point x="155" y="659" smooth="yes"/>
    </contour>
  </outline>
</glyph>
<glyph name="copyright" format="1">
  <advance width="626"/>
  <unicode hex="00A9"/>
  <outline>
    <contour>
      <point x="30" y="500" type="curve" smooth="yes" name="hr00"/>
      <point x="30" y="343" smooth="yes"/>
      <point x="156" y="217" smooth="yes"/>
      <point x="313" y="217" type="curve" smooth="yes"/>
      <point x="470" y="217" smooth="yes"/>
      <point x="596" y="343" smooth="yes"/>
      <point x="596" y="500" type="curve" smooth="yes"/>
      <point x="596" y="657" smooth="yes"/>
      <point x="470" y="783" smooth="yes"/>
      <point x="313" y="783" type="curve" smooth="yes"/>
      <point x="156" y="783" smooth="yes"/>
      <point x="30" y="657" smooth="yes"/>
    </contour>
    <contour>
      <point x="67" y="500" type="curve" smooth="yes"/>
      <point x="67" y="637" smooth="yes"/>
      <point x="176" y="746" smooth="yes"/>
      <point x="313" y="746" type="curve" smooth="yes"/>
      <point x="450" y="746" smooth="yes"/>
      <point x="559" y="637" smooth="yes"/>
      <point x="559" y="500" type="curve" smooth="yes"/>
      <point x="559" y="363" smooth="yes"/>
      <point x="450" y="254" smooth="yes"/>
      <point x="313" y="254" type="curve" smooth="yes"/>
      <point x="176" y="254" smooth="yes"/>
      <point x="67" y="363" smooth="yes"/>
    </contour>
    <contour>
      <point x="440" y="434" type="line"/>
      <point x="434" y="434"/>
      <point x="407" y="433"/>
      <point x="404" y="424" type="curve"/>
      <point x="393" y="375" type="line"/>
      <point x="374" y="364" smooth="yes"/>
      <point x="355" y="359" smooth="yes"/>
      <point x="326" y="359" type="curve" smooth="yes"/>
      <point x="263" y="359" smooth="yes"/>
      <point x="214" y="407" smooth="yes"/>
      <point x="214" y="505" type="curve" smooth="yes"/>
      <point x="214" y="563"/>
      <point x="234" y="613"/>
      <point x="260" y="635" type="curve"/>
      <point x="279" y="642" smooth="yes"/>
      <point x="304" y="646" smooth="yes"/>
      <point x="326" y="646" type="curve" smooth="yes"/>
      <point x="346" y="646"/>
      <point x="372" y="641"/>
      <point x="389" y="636" type="curve"/>
      <point x="389" y="585" type="line"/>
      <point x="389" y="573"/>
      <point x="417" y="573"/>
      <point x="423" y="573" type="curve"/>
      <point x="437" y="654" type="line"/>
      <point x="406" y="675" smooth="yes"/>
      <point x="370" y="687" smooth="yes"/>
      <point x="329" y="687" type="curve" smooth="yes"/>
      <point x="235" y="687" smooth="yes"/>
      <point x="158" y="624" smooth="yes"/>
      <point x="158" y="506" type="curve" smooth="yes"/>
      <point x="158" y="383" smooth="yes"/>
      <point x="228" y="322" smooth="yes"/>
      <point x="321" y="322" type="curve" smooth="yes"/>
      <point x="366" y="322"/>
      <point x="406" y="333"/>
      <point x="436" y="355" type="curve"/>
    </contour>
  </outline>
</glyph>
<glyph name="ordfeminine" format="1">
  <advance width="283"/>
  <unicode hex="00AA"/>
  <outline>
    <contour>
      <point x="182" y="683" type="curve"/>
      <point x="112" y="665" smooth="yes"/>
      <point x="16" y="607" smooth="yes"/>
      <point x="16" y="452" type="curve" smooth="yes"/>
      <point x="16" y="419" smooth="yes"/>
      <point x="31" y="393" smooth="yes"/>
      <point x="58" y="393" type="curve" smooth="yes"/>
      <point x="90" y="393"/>
      <point x="124" y="418"/>
      <point x="184" y="513" type="curve"/>
      <point x="177" y="473" smooth="yes"/>
      <point x="173" y="438" smooth="yes"/>
      <point x="173" y="418" type="curve" smooth="yes"/>
      <point x="173" y="397"/>
      <point x="185" y="393"/>
      <point x="190" y="393" type="curve"/>
      <point x="267" y="405" type="line"/>
      <point x="272" y="421" type="line"/>
      <point x="262" y="427"/>
      <point x="236" y="435"/>
      <point x="218" y="438" type="curve"/>
      <point x="220" y="487"/>
      <point x="249" y="613"/>
      <point x="278" y="676" type="curve"/>
      <point x="267" y="679"/>
      <point x="256" y="680"/>
      <point x="242" y="680" type="curve" name="hr01"/>
      <point x="237" y="668" type="line"/>
      <point x="232" y="670" type="line" smooth="yes"/>
      <point x="217" y="676"/>
      <point x="195" y="683"/>
    </contour>
    <contour>
      <point x="67" y="451" type="curve" smooth="yes"/>
      <point x="67" y="535" smooth="yes"/>
      <point x="99" y="642" smooth="yes"/>
      <point x="164" y="642" type="curve" smooth="yes" name="hr03"/>
      <point x="178" y="642"/>
      <point x="192" y="641"/>
      <point x="207" y="638" type="curve"/>
      <point x="196" y="585" type="line"/>
      <point x="129" y="473" smooth="yes"/>
      <point x="93" y="433" smooth="yes"/>
      <point x="76" y="433" type="curve" smooth="yes"/>
      <point x="71" y="433" smooth="yes"/>
      <point x="67" y="440" smooth="yes"/>
    </contour>
    <contour>
      <point x="12" y="321" type="line"/>
      <point x="46" y="304" smooth="yes"/>
      <point x="105" y="298" smooth="yes"/>
      <point x="161" y="298" type="curve" smooth="yes"/>
      <point x="198" y="298"/>
      <point x="234" y="302"/>
      <point x="258" y="306" type="curve"/>
      <point x="262" y="349" type="line"/>
      <point x="18" y="349" type="line"/>
    </contour>
  </outline>
</glyph>
<glyph name="guillemotleft" format="1">
  <advance width="448"/>
  <unicode hex="00AB"/>
  <outline>
    <contour>
      <point x="205" y="213" type="line" name="hr00"/>
      <point x="348" y="15" type="line"/>
      <point x="379" y="34" type="line"/>
      <point x="291" y="227" type="line"/>
      <point x="448" y="420" type="line"/>
      <point x="425" y="444" type="line"/>
      <point x="210" y="241" type="line"/>
    </contour>
    <contour>
      <point x="50" y="213" type="line"/>
      <point x="193" y="15" type="line"/>
      <point x="225" y="34" type="line"/>
      <point x="136" y="227" type="line"/>
      <point x="294" y="420" type="line"/>
      <point x="270" y="444" type="line"/>
      <point x="55" y="241" type="line"/>
    </contour>
  </outline>
</glyph>
<glyph name="logicalnot" format="1">
  <advance width="484"/>
  <unicode hex="00AC"/>
  <outline>
    <contour>
      <point x="419" y="137" type="line" name="hr00"/>
      <point x="449" y="306" type="line"/>
      <point x="398" y="306" type="line"/>
      <point x="368" y="137" type="line"/>
    </contour>
    <component  base="minus" xOffset="-19"/>
  </outline>
</glyph>
<glyph name="macron" format="1">
  <advance width="400"/>
  <unicode hex="00AF"/>
  <outline>
    <contour>
      <point x="113" y="561" type="line" name="hr00"/>
      <point x="380" y="561" type="line"/>
      <point x="390" y="618" type="line"/>
      <point x="123" y="618" type="line"/>
    </contour>
  </outline>
</glyph>
<glyph name="twosuperior" format="1">
  <advance width="392"/>
  <unicode hex="00B2"/>
  <outline>
    <contour>
      <point x="33" y="175" type="line" name="hr00"/>
      <point x="311" y="175" type="line"/>
      <point x="321" y="187"/>
      <point x="329" y="201"/>
      <point x="333" y="214" type="curve"/>
      <point x="328" y="230" type="line"/>
      <point x="287" y="224"/>
      <point x="190" y="213"/>
      <point x="89" y="210" type="curve"/>
      <point x="228" y="313" type="line"/>
      <point x="269" y="343" smooth="yes"/>
      <point x="348" y="409" smooth="yes"/>
      <point x="348" y="495" type="curve" smooth="yes"/>
      <point x="348" y="553"/>
      <point x="295" y="592"/>
      <point x="216" y="605" type="curve"/>
      <point x="194" y="605"/>
      <point x="144" y="592"/>
      <point x="103" y="580" type="curve"/>
      <point x="112" y="546" type="line"/>
      <point x="170" y="556" smooth="yes"/>
      <point x="188" y="560" smooth="yes"/>
      <point x="208" y="560" type="curve" smooth="yes"/>
      <point x="259" y="560" smooth="yes"/>
      <point x="283" y="527" smooth="yes"/>
      <point x="283" y="489" type="curve" smooth="yes"/>
      <point x="283" y="449"/>
      <point x="263" y="407"/>
      <point x="219" y="371" type="curve"/>
      <point x="16" y="201" type="line"/>
    </contour>
  </outline>
</glyph>
<glyph name="threesuperior" format="1">
  <advance width="392"/>
  <unicode hex="00B3"/>
  <outline>
    <contour>
      <point x="350" y="510" type="curve" smooth="yes"/>
      <point x="350" y="569"/>
      <point x="286" y="597"/>
      <point x="232" y="605" type="curve"/>
      <point x="210" y="605"/>
      <point x="160" y="592"/>
      <point x="119" y="580" type="curve"/>
      <point x="129" y="546" type="line"/>
      <point x="186" y="556" smooth="yes"/>
      <point x="204" y="560" smooth="yes"/>
      <point x="225" y="560" type="curve" smooth="yes"/>
      <point x="267" y="560" smooth="yes"/>
      <point x="289" y="534" smooth="yes"/>
      <point x="289" y="510" type="curve" smooth="yes"/>
      <point x="289" y="455"/>
      <point x="250" y="417"/>
      <point x="155" y="406" type="curve"/>
      <point x="155" y="375" type="line"/>
      <point x="235" y="375" smooth="yes"/>
      <point x="276" y="342" smooth="yes"/>
      <point x="276" y="300" type="curve" smooth="yes"/>
      <point x="276" y="238" smooth="yes"/>
      <point x="213" y="206" smooth="yes"/>
      <point x="161" y="206" type="curve" smooth="yes"/>
      <point x="140" y="206"/>
      <point x="119" y="210"/>
      <point x="98" y="220" type="curve"/>
      <point x="99" y="233"/>
      <point x="99" y="244"/>
      <point x="99" y="286" type="curve"/>
      <point x="75" y="288" type="line"/>
      <point x="40" y="195" type="line"/>
      <point x="72" y="179" smooth="yes"/>
      <point x="121" y="167" smooth="yes"/>
      <point x="168" y="167" type="curve" smooth="yes"/>
      <point x="246" y="167" smooth="yes"/>
      <point x="337" y="221" smooth="yes"/>
      <point x="337" y="309" type="curve" smooth="yes"/>
      <point x="337" y="349"/>
      <point x="313" y="384"/>
      <point x="265" y="398" type="curve"/>
      <point x="315" y="423" smooth="yes"/>
      <point x="350" y="462" smooth="yes"/>
    </contour>
  </outline>
</glyph>
<glyph name="acute" format="1">
  <advance width="200"/>
  <unicode hex="00B4"/>
  <outline>
    <contour>
      <point x="65" y="502" type="line" name="hr00"/>
      <point x="92" y="519"/>
      <point x="171" y="571"/>
      <point x="220" y="628" type="curve"/>
      <point x="224" y="647" type="line"/>
      <point x="219" y="667"/>
      <point x="196" y="694"/>
      <point x="184" y="702" type="curve"/>
      <point x="120" y="606"/>
      <point x="50" y="518"/>
      <point x="50" y="518" type="curve"/>
    </contour>
  </outline>
</glyph>
<glyph name="mu" format="1">
  <advance width="526"/>
  <unicode hex="00B5"/>
  <outline>
    <contour>
      <point x="157" y="451" type="curve" name="hr00"/>
      <point x="79" y="227"/>
      <point x="41" y="2"/>
      <point x="-10" y="-220" type="curve"/>
      <point x="6" y="-227" type="line"/>
      <point x="14" y="-226"/>
      <point x="45" y="-218"/>
      <point x="80" y="-184" type="curve"/>
      <point x="79" y="-159"/>
      <point x="79" y="-131"/>
      <point x="79" y="-101" type="curve"/>
      <point x="88" y="16" type="line"/>
      <point x="95" y="-6" smooth="yes"/>
      <point x="108" y="-17" smooth="yes"/>
      <point x="127" y="-17" type="curve" smooth="yes"/>
      <point x="179" y="-17"/>
      <point x="242" y="25"/>
      <point x="350" y="201" type="curve"/>
      <point x="334" y="107" smooth="yes"/>
      <point x="329" y="51" smooth="yes"/>
      <point x="329" y="23" type="curve" smooth="yes"/>
      <point x="329" y="-7"/>
      <point x="342" y="-12"/>
      <point x="346" y="-12" type="curve"/>
      <point x="470" y="7" type="line"/>
      <point x="476" y="26" type="line"/>
      <point x="462" y="37"/>
      <point x="415" y="50"/>
      <point x="386" y="53" type="curve"/>
      <point x="386" y="132"/>
      <point x="436" y="348"/>
      <point x="486" y="457" type="curve"/>
      <point x="471" y="466" type="line"/>
      <point x="463" y="466"/>
      <point x="431" y="464"/>
      <point x="396" y="451" type="curve"/>
      <point x="384" y="391"/>
      <point x="374" y="339"/>
      <point x="366" y="293" type="curve"/>
      <point x="252" y="105" smooth="yes"/>
      <point x="188" y="39" smooth="yes"/>
      <point x="157" y="39" type="curve" smooth="yes"/>
      <point x="142" y="39" smooth="yes"/>
      <point x="132" y="45" smooth="yes"/>
      <point x="132" y="67" type="curve" smooth="yes"/>
      <point x="132" y="157"/>
      <point x="183" y="344"/>
      <point x="229" y="457" type="curve"/>
      <point x="214" y="466" type="line"/>
      <point x="208" y="466"/>
      <point x="184" y="464"/>
    </contour>
  </outline>
</glyph>
<glyph name="paragraph" format="1">
  <advance width="463"/>
  <unicode hex="00B6"/>
  <outline>
    <contour>
      <point x="317" y="642" type="line" name="hr00"/>
      <point x="384" y="642" type="line"/>
      <point x="298" y="153" type="line" smooth="yes"/>
      <point x="277" y="33"/>
      <point x="201" y="-81"/>
      <point x="103" y="-189" type="curve"/>
      <point x="128" y="-210" type="line"/>
      <point x="257" y="-86" smooth="yes"/>
      <point x="350" y="42" smooth="yes"/>
      <point x="374" y="180" type="curve" smooth="yes"/>
      <point x="455" y="642" type="line"/>
      <point x="526" y="642" type="line"/>
      <point x="536" y="679" type="line"/>
      <point x="537" y="683" smooth="yes"/>
      <point x="447" y="712" smooth="yes"/>
      <point x="343" y="712" type="curve" smooth="yes"/>
      <point x="226" y="712" smooth="yes"/>
      <point x="80" y="663" smooth="yes"/>
      <point x="80" y="475" type="curve" smooth="yes"/>
      <point x="80" y="356"/>
      <point x="156" y="304"/>
      <point x="257" y="302" type="curve"/>
    </contour>
  </outline>
</glyph>
<glyph name="cedilla" format="1">
  <advance width="410"/>
  <unicode hex="00B8"/>
  <outline>
    <contour>
      <point x="120" y="-237" type="line" name="hr00"/>
      <point x="181" y="-214" smooth="yes"/>
      <point x="252" y="-168" smooth="yes"/>
      <point x="252" y="-110" type="curve" smooth="yes"/>
      <point x="252" y="-68"/>
      <point x="208" y="-61"/>
      <point x="208" y="-27" type="curve"/>
      <point x="216" y="0" type="line"/>
      <point x="189" y="0" type="line"/>
      <point x="169" y="-47" type="line"/>
      <point x="169" y="-67" smooth="yes"/>
      <point x="185" y="-78" smooth="yes"/>
      <point x="185" y="-111" type="curve" smooth="yes"/>
      <point x="185" y="-158"/>
      <point x="144" y="-198"/>
      <point x="109" y="-220" type="curve"/>
    </contour>
  </outline>
</glyph>
<glyph name="onesuperior" format="1">
  <advance width="392"/>
  <unicode hex="00B9"/>
  <outline>
    <contour>
      <point x="314" y="195" type="line" name="hr00"/>
      <point x="285" y="204"/>
      <point x="252" y="212"/>
      <point x="226" y="217" type="curve"/>
      <point x="290" y="581" type="line"/>
      <point x="290" y="584" smooth="yes"/>
      <point x="291" y="586" smooth="yes"/>
      <point x="291" y="587" type="curve" smooth="yes"/>
      <point x="291" y="597"/>
      <point x="285" y="603"/>
      <point x="278" y="605" type="curve"/>
      <point x="266" y="605"/>
      <point x="105" y="568"/>
      <point x="104" y="567" type="curve"/>
      <point x="104" y="564"/>
      <point x="104" y="562"/>
      <point x="115" y="528" type="curve"/>
      <point x="226" y="555" type="line"/>
      <point x="166" y="219" type="line"/>
      <point x="130" y="213"/>
      <point x="97" y="205"/>
      <point x="67" y="199" type="curve"/>
      <point x="74" y="175" type="line"/>
      <point x="308" y="175" type="line"/>
    </contour>
  </outline>
</glyph>
<glyph name="ordmasculine" format="1">
  <advance width="301"/>
  <unicode hex="00BA"/>
  <outline>
    <contour>
      <point x="218" y="684" type="curve" smooth="yes" name="hr00"/>
      <point x="167" y="684" smooth="yes"/>
      <point x="60" y="636" smooth="yes"/>
      <point x="60" y="483" type="curve" smooth="yes"/>
      <point x="60" y="428" smooth="yes"/>
      <point x="86" y="393" smooth="yes"/>
      <point x="139" y="393" type="curve" smooth="yes"/>
      <point x="190" y="393" smooth="yes"/>
      <point x="301" y="441" smooth="yes"/>
      <point x="301" y="595" type="curve" smooth="yes"/>
      <point x="301" y="649" smooth="yes"/>
      <point x="275" y="684" smooth="yes"/>
    </contour>
    <contour>
      <point x="217" y="652" type="curve" smooth="yes"/>
      <point x="238" y="652" smooth="yes"/>
      <point x="252" y="632" smooth="yes"/>
      <point x="252" y="599" type="curve" smooth="yes"/>
      <point x="252" y="492" smooth="yes"/>
      <point x="192" y="429" smooth="yes"/>
      <point x="142" y="429" type="curve" smooth="yes"/>
      <point x="120" y="429" smooth="yes"/>
      <point x="109" y="448" smooth="yes"/>
      <point x="109" y="481" type="curve" smooth="yes"/>
      <point x="109" y="587" smooth="yes"/>
      <point x="161" y="652" smooth="yes"/>
    </contour>
    <contour>
      <point x="25" y="321" type="line"/>
      <point x="59" y="304" smooth="yes"/>
      <point x="118" y="298" smooth="yes"/>
      <point x="174" y="298" type="curve" smooth="yes"/>
      <point x="211" y="298"/>
      <point x="247" y="302"/>
      <point x="271" y="306" type="curve"/>
      <point x="275" y="349" type="line"/>
      <point x="31" y="349" type="line"/>
    </contour>
  </outline>
</glyph>
<glyph name="guillemotright" format="1">
  <advance width="448"/>
  <unicode hex="00BB"/>
  <outline>
    <contour>
      <point x="398" y="241" type="line" name="hr00"/>
      <point x="255" y="439" type="line"/>
      <point x="223" y="420" type="line"/>
      <point x="312" y="227" type="line"/>
      <point x="154" y="34" type="line"/>
      <point x="178" y="10" type="line"/>
      <point x="393" y="213" type="line"/>
    </contour>
    <contour>
      <point x="243" y="241" type="line"/>
      <point x="100" y="439" type="line"/>
      <point x="69" y="420" type="line"/>
      <point x="157" y="227" type="line"/>
      <point x="0" y="34" type="line"/>
      <point x="23" y="10" type="line"/>
      <point x="238" y="213" type="line"/>
    </contour>
  </outline>
</glyph>
<glyph name="onequarter" format="1">
  <advance width="990"/>
  <unicode hex="00BC"/>
  <outline>
    <contour>
      <point x="314" y="163" type="line" name="hr00"/>
      <point x="285" y="172"/>
      <point x="252" y="180"/>
      <point x="226" y="185" type="curve"/>
      <point x="290" y="549" type="line"/>
      <point x="290" y="552" smooth="yes"/>
      <point x="291" y="554" smooth="yes"/>
      <point x="291" y="555" type="curve" smooth="yes"/>
      <point x="291" y="565"/>
      <point x="285" y="571"/>
      <point x="278" y="573" type="curve"/>
      <point x="266" y="573"/>
      <point x="105" y="536"/>
      <point x="104" y="535" type="curve"/>
      <point x="104" y="532"/>
      <point x="104" y="530"/>
      <point x="115" y="496" type="curve"/>
      <point x="226" y="523" type="line"/>
      <point x="166" y="187" type="line"/>
      <point x="130" y="181"/>
      <point x="97" y="173"/>
      <point x="67" y="167" type="curve"/>
      <point x="74" y="143" type="line"/>
      <point x="308" y="143" type="line"/>
    </contour>
    <contour>
      <point x="871" y="20" type="line"/>
      <point x="852" y="28"/>
      <point x="832" y="35"/>
      <point x="814" y="40" type="curve"/>
      <point x="817" y="58"/>
      <point x="822" y="75"/>
      <point x="825" y="92" type="curve"/>
      <point x="892" y="92" type="line"/>
      <point x="897" y="129" type="line"/>
      <point x="831" y="129" type="line"/>
      <point x="855" y="266" type="line"/>
      <point x="855" y="273" type="line" smooth="yes"/>
      <point x="855" y="282" smooth="yes"/>
      <point x="852" y="292" smooth="yes"/>
      <point x="846" y="292" type="curve" smooth="yes"/>
      <point x="830" y="292"/>
      <point x="801" y="285"/>
      <point x="801" y="285" type="curve"/>
      <point x="773" y="129" type="line"/>
      <point x="637" y="129" type="line"/>
      <point x="813" y="421" type="line"/>
      <point x="761" y="439" type="line"/>
      <point x="617" y="181" type="line" smooth="yes"/>
      <point x="586" y="125"/>
      <point x="577" y="103"/>
      <point x="577" y="103" type="curve"/>
      <point x="577" y="94" smooth="yes"/>
      <point x="585" y="92" smooth="yes"/>
      <point x="598" y="92" type="curve" smooth="yes"/>
      <point x="767" y="92" type="line"/>
      <point x="758" y="43" type="line"/>
      <point x="726" y="37"/>
      <point x="702" y="30"/>
      <point x="680" y="24" type="curve"/>
      <point x="687" y="0" type="line"/>
      <point x="865" y="0" type="line"/>
    </contour>
    <contour>
      <point x="307" y="-56" type="line"/>
      <point x="358" y="-56" type="line"/>
      <point x="673" y="622" type="line"/>
      <point x="622" y="622" type="line"/>
    </contour>
  </outline>
</glyph>
<glyph name="onehalf" format="1">
  <advance width="990"/>
  <unicode hex="00BD"/>
  <outline>
    <contour>
      <point x="314" y="163" type="line" name="hr00"/>
      <point x="285" y="172"/>
      <point x="252" y="180"/>
      <point x="226" y="185" type="curve"/>
      <point x="290" y="549" type="line"/>
      <point x="290" y="552" smooth="yes"/>
      <point x="291" y="554" smooth="yes"/>
      <point x="291" y="555" type="curve" smooth="yes"/>
      <point x="291" y="565"/>
      <point x="285" y="571"/>
      <point x="278" y="573" type="curve"/>
      <point x="266" y="573"/>
      <point x="105" y="536"/>
      <point x="104" y="535" type="curve"/>
      <point x="104" y="532"/>
      <point x="104" y="530"/>
      <point x="115" y="496" type="curve"/>
      <point x="226" y="523" type="line"/>
      <point x="166" y="187" type="line"/>
      <point x="130" y="181"/>
      <point x="97" y="173"/>
      <point x="67" y="167" type="curve"/>
      <point x="74" y="143" type="line"/>
      <point x="308" y="143" type="line"/>
    </contour>
    <contour>
      <point x="598" y="0" type="line"/>
      <point x="876" y="0" type="line"/>
      <point x="886" y="12"/>
      <point x="894" y="26"/>
      <point x="898" y="39" type="curve"/>
      <point x="893" y="55" type="line"/>
      <point x="852" y="49"/>
      <point x="755" y="38"/>
      <point x="654" y="35" type="curve"/>
      <point x="793" y="138" type="line" smooth="yes"/>
      <point x="834" y="168" smooth="yes"/>
      <point x="913" y="234" smooth="yes"/>
      <point x="913" y="320" type="curve" smooth="yes"/>
      <point x="913" y="378"/>
      <point x="860" y="417"/>
      <point x="781" y="430" type="curve"/>
      <point x="759" y="430"/>
      <point x="709" y="417"/>
      <point x="668" y="405" type="curve"/>
      <point x="677" y="371" type="line"/>
      <point x="735" y="381" smooth="yes"/>
      <point x="753" y="385" smooth="yes"/>
      <point x="773" y="385" type="curve" smooth="yes"/>
      <point x="824" y="385" smooth="yes"/>
      <point x="848" y="352" smooth="yes"/>
      <point x="848" y="314" type="curve" smooth="yes"/>
      <point x="848" y="274" smooth="yes"/>
      <point x="828" y="233" smooth="yes"/>
      <point x="784" y="196" type="curve" smooth="yes"/>
      <point x="581" y="26" type="line"/>
    </contour>
    <contour>
      <point x="308" y="-56" type="line"/>
      <point x="359" y="-56" type="line"/>
      <point x="674" y="622" type="line"/>
      <point x="623" y="622" type="line"/>
    </contour>
  </outline>
</glyph>
<glyph name="threequarters" format="1">
  <advance width="990"/>
  <unicode hex="00BE"/>
  <outline>
    <contour>
      <point x="350" y="478" type="curve" smooth="yes"/>
      <point x="350" y="537"/>
      <point x="286" y="565"/>
      <point x="232" y="573" type="curve"/>
      <point x="210" y="573"/>
      <point x="160" y="560"/>
      <point x="119" y="548" type="curve"/>
      <point x="129" y="514" type="line"/>
      <point x="186" y="524" smooth="yes"/>
      <point x="204" y="528" smooth="yes"/>
      <point x="225" y="528" type="curve" smooth="yes"/>
      <point x="267" y="528" smooth="yes"/>
      <point x="289" y="502" smooth="yes"/>
      <point x="289" y="478" type="curve" smooth="yes"/>
      <point x="289" y="423"/>
      <point x="250" y="385"/>
      <point x="155" y="374" type="curve"/>
      <point x="155" y="343" type="line"/>
      <point x="235" y="343" smooth="yes"/>
      <point x="276" y="310" smooth="yes"/>
      <point x="276" y="268" type="curve" smooth="yes"/>
      <point x="276" y="206" smooth="yes"/>
      <point x="213" y="174" smooth="yes"/>
      <point x="161" y="174" type="curve" smooth="yes"/>
      <point x="140" y="174"/>
      <point x="119" y="178"/>
      <point x="98" y="188" type="curve"/>
      <point x="99" y="201"/>
      <point x="99" y="212"/>
      <point x="99" y="254" type="curve"/>
      <point x="75" y="256" type="line"/>
      <point x="40" y="163" type="line"/>
      <point x="72" y="147" smooth="yes"/>
      <point x="121" y="135" smooth="yes"/>
      <point x="168" y="135" type="curve" smooth="yes"/>
      <point x="246" y="135" smooth="yes"/>
      <point x="337" y="189" smooth="yes"/>
      <point x="337" y="277" type="curve" smooth="yes"/>
      <point x="337" y="317"/>
      <point x="313" y="352"/>
      <point x="265" y="366" type="curve"/>
      <point x="315" y="391" smooth="yes"/>
      <point x="350" y="430" smooth="yes"/>
    </contour>
    <contour>
      <point x="871" y="10" type="line"/>
      <point x="852" y="18"/>
      <point x="832" y="25"/>
      <point x="814" y="30" type="curve"/>
      <point x="817" y="48"/>
      <point x="822" y="65"/>
      <point x="825" y="82" type="curve"/>
      <point x="892" y="82" type="line"/>
      <point x="897" y="119" type="line"/>
      <point x="831" y="119" type="line"/>
      <point x="855" y="256" type="line"/>
      <point x="855" y="263" type="line"/>
      <point x="855" y="272"/>
      <point x="851" y="279"/>
      <point x="846" y="282" type="curve"/>
      <point x="830" y="282"/>
      <point x="801" y="275"/>
      <point x="801" y="275" type="curve"/>
      <point x="773" y="119" type="line"/>
      <point x="637" y="119" type="line"/>
      <point x="813" y="411" type="line"/>
      <point x="761" y="429" type="line"/>
      <point x="617" y="171" type="line"/>
      <point x="585" y="115"/>
      <point x="577" y="93"/>
      <point x="577" y="93" type="curve"/>
      <point x="577" y="84"/>
      <point x="585" y="82"/>
      <point x="598" y="82" type="curve"/>
      <point x="767" y="82" type="line"/>
      <point x="758" y="33" type="line"/>
      <point x="726" y="27"/>
      <point x="702" y="20"/>
      <point x="680" y="14" type="curve"/>
      <point x="687" y="-10" type="line"/>
      <point x="865" y="-10" type="line"/>
    </contour>
    <contour>
      <point x="313" y="-56" type="line"/>
      <point x="364" y="-56" type="line"/>
      <point x="679" y="622" type="line"/>
      <point x="628" y="622" type="line"/>
    </contour>
  </outline>
</glyph>
<glyph name="questiondown" format="1">
  <advance width="347"/>
  <unicode hex="00BF"/>
  <outline>
    <contour>
      <point x="261" y="355" type="curve" smooth="yes" name="hr00"/>
      <point x="277" y="355"/>
      <point x="309" y="362"/>
      <point x="309" y="362" type="curve"/>
      <point x="310" y="362" smooth="yes"/>
      <point x="327" y="407" smooth="yes"/>
      <point x="327" y="435" type="curve" smooth="yes"/>
      <point x="327" y="454" smooth="yes"/>
      <point x="320" y="468" smooth="yes"/>
      <point x="303" y="468" type="curve" smooth="yes"/>
      <point x="284" y="468"/>
      <point x="253" y="460"/>
      <point x="253" y="460" type="curve"/>
      <point x="252" y="460" smooth="yes"/>
      <point x="236" y="415" smooth="yes"/>
      <point x="236" y="389" type="curve" smooth="yes"/>
      <point x="236" y="370" smooth="yes"/>
      <point x="243" y="355" smooth="yes"/>
    </contour>
    <contour>
      <point x="88" y="-51" type="curve" smooth="yes"/>
      <point x="88" y="32" smooth="yes"/>
      <point x="150" y="118" smooth="yes"/>
      <point x="188" y="170" type="curve" smooth="yes"/>
      <point x="276" y="289" type="line"/>
      <point x="251" y="307" type="line"/>
      <point x="162" y="242" smooth="yes"/>
      <point x="21" y="83" smooth="yes"/>
      <point x="21" y="-43" type="curve" smooth="yes"/>
      <point x="21" y="-166"/>
      <point x="124" y="-211"/>
      <point x="201" y="-223" type="curve"/>
      <point x="229" y="-223"/>
      <point x="296" y="-202"/>
      <point x="320" y="-195" type="curve"/>
      <point x="304" y="-146" type="line"/>
      <point x="254" y="-154" smooth="yes"/>
      <point x="229" y="-162" smooth="yes"/>
      <point x="181" y="-162" type="curve" smooth="yes"/>
      <point x="125" y="-162" smooth="yes"/>
      <point x="88" y="-116" smooth="yes"/>
    </contour>
  </outline>
</glyph>
<glyph name="AE" format="1">
  <advance width="862"/>
  <unicode hex="00C6"/>
  <outline>
    <contour>
      <point x="286" y="678" type="line"/>
      <point x="314" y="662"/>
      <point x="348" y="648"/>
      <point x="377" y="639" type="curve"/>
      <point x="10" y="59" type="line"/>
      <point x="-16" y="49"/>
      <point x="-55" y="31"/>
      <point x="-70" y="22" type="curve"/>
      <point x="-64" y="0" type="line"/>
      <point x="129" y="0" type="line"/>
      <point x="137" y="26" type="line"/>
      <point x="68" y="53" type="line"/>
      <point x="221" y="296" type="line"/>
      <point x="451" y="302" type="line"/>
      <point x="405" y="57" type="line"/>
      <point x="375" y="48"/>
      <point x="347" y="37"/>
      <point x="320" y="26" type="curve"/>
      <point x="328" y="0" type="line"/>
      <point x="433" y="8" type="line"/>
      <point x="544" y="8"/>
      <point x="706" y="0"/>
      <point x="758" y="-4" type="curve" name="hr01"/>
      <point x="773" y="14"/>
      <point x="783" y="34"/>
      <point x="789" y="55" type="curve"/>
      <point x="783" y="72" type="line"/>
      <point x="734" y="61"/>
      <point x="607" y="56"/>
      <point x="473" y="55" type="curve"/>
      <point x="527" y="304" type="line"/>
      <point x="759" y="310" type="line"/>
      <point x="768" y="353" type="line"/>
      <point x="537" y="353" type="line"/>
      <point x="585" y="649" type="line"/>
      <point x="683" y="643"/>
      <point x="792" y="643"/>
      <point x="838" y="643" type="curve"/>
      <point x="852" y="659"/>
      <point x="863" y="677"/>
      <point x="869" y="696" type="curve"/>
      <point x="863" y="713" type="line"/>
      <point x="815" y="702"/>
      <point x="573" y="696"/>
      <point x="413" y="696" type="curve"/>
      <point x="292" y="700" type="line"/>
    </contour>
    <contour>
      <point x="517" y="649" type="line"/>
      <point x="461" y="353" type="line"/>
      <point x="257" y="353" type="line"/>
      <point x="444" y="649" type="line"/>
    </contour>
  </outline>
</glyph>
<glyph name="multiply" format="1">
  <advance width="484"/>
  <unicode hex="00D7"/>
  <outline>
    <contour>
      <point x="120" y="115" type="line" name="hr00"/>
      <point x="258" y="237" type="line"/>
      <point x="353" y="115" type="line"/>
      <point x="398" y="155" type="line"/>
      <point x="303" y="277" type="line"/>
      <point x="442" y="400" type="line"/>
      <point x="411" y="440" type="line"/>
      <point x="272" y="317" type="line"/>
      <point x="178" y="440" type="line"/>
      <point x="133" y="400" type="line"/>
      <point x="227" y="277" type="line"/>
      <point x="89" y="155" type="line"/>
    </contour>
  </outline>
</glyph>
<glyph name="Thorn" format="1">
  <advance width="541"/>
  <unicode hex="00DE"/>
  <outline>
    <contour>
      <point x="331" y="174" type="curve" smooth="yes" name="hr00"/>
      <point x="290" y="174"/>
      <point x="269" y="180"/>
      <point x="230" y="192" type="curve"/>
      <point x="218" y="151" type="line"/>
      <point x="239" y="144"/>
      <point x="296" y="120"/>
      <point x="321" y="120" type="curve"/>
      <point x="442" y="148" smooth="yes"/>
      <point x="561" y="262" smooth="yes"/>
      <point x="561" y="389" type="curve" smooth="yes"/>
      <point x="561" y="490"/>
      <point x="503" y="563"/>
      <point x="400" y="563" type="curve"/>
      <point x="229" y="561" type="line"/>
      <point x="255" y="511" type="line"/>
      <point x="382" y="521" type="line"/>
      <point x="451" y="521" smooth="yes"/>
      <point x="481" y="456" smooth="yes"/>
      <point x="481" y="383" type="curve" smooth="yes"/>
      <point x="481" y="297" smooth="yes"/>
      <point x="440" y="174" smooth="yes"/>
    </contour>
    <component  base="I"/>
  </outline>
</glyph>
<glyph name="germandbls" format="1">
  <advance width="521"/>
  <unicode hex="00DF"/>
  <outline>
    <contour>
      <point x="479" y="725" type="curve"/>
      <point x="425" y="745"/>
      <point x="380" y="761"/>
      <point x="359" y="761" type="curve"/>
      <point x="244" y="736"/>
      <point x="153" y="610"/>
      <point x="126" y="455" type="curve"/>
      <point x="94" y="444"/>
      <point x="64" y="433"/>
      <point x="36" y="422" type="curve"/>
      <point x="44" y="396" type="line"/>
      <point x="116" y="396" type="line"/>
      <point x="15" y="-193" type="line"/>
      <point x="55" y="-188" type="line"/>
      <point x="122" y="53" type="line"/>
      <point x="196" y="449" type="line" smooth="yes"/>
      <point x="218" y="570" smooth="yes"/>
      <point x="252" y="696" smooth="yes"/>
      <point x="325" y="696" type="curve" smooth="yes"/>
      <point x="364" y="696"/>
      <point x="390" y="693"/>
      <point x="432" y="682" type="curve"/>
      <point x="428" y="548" smooth="yes"/>
      <point x="262" y="438" smooth="yes"/>
      <point x="262" y="339" type="curve" smooth="yes"/>
      <point x="262" y="296" smooth="yes"/>
      <point x="276" y="276" smooth="yes"/>
      <point x="308" y="248" type="curve" smooth="yes"/>
      <point x="403" y="166" type="line" smooth="yes"/>
      <point x="425" y="147" smooth="yes"/>
      <point x="442" y="126" smooth="yes"/>
      <point x="442" y="97" type="curve" smooth="yes"/>
      <point x="442" y="53" smooth="yes"/>
      <point x="405" y="32" smooth="yes"/>
      <point x="361" y="32" type="curve" smooth="yes"/>
      <point x="332" y="32"/>
      <point x="300" y="37"/>
      <point x="270" y="48" type="curve"/>
      <point x="268" y="84"/>
      <point x="262" y="118"/>
      <point x="258" y="137" type="curve"/>
      <point x="236" y="141" type="line"/>
      <point x="206" y="14" type="line"/>
      <point x="254" y="-4" smooth="yes"/>
      <point x="306" y="-12" smooth="yes"/>
      <point x="353" y="-12" type="curve" smooth="yes"/>
      <point x="439" y="-12" smooth="yes"/>
      <point x="511" y="32" smooth="yes"/>
      <point x="511" y="105" type="curve" smooth="yes"/>
      <point x="511" y="154" smooth="yes"/>
      <point x="489" y="180" smooth="yes"/>
      <point x="447" y="217" type="curve" smooth="yes"/>
      <point x="341" y="309" type="line" smooth="yes"/>
      <point x="326" y="321" smooth="yes"/>
      <point x="318" y="340" smooth="yes"/>
      <point x="318" y="354" type="curve" smooth="yes"/>
      <point x="318" y="414" smooth="yes"/>
      <point x="496" y="545" smooth="yes"/>
      <point x="496" y="666" type="curve" smooth="yes" name="hr01"/>
      <point x="496" y="687"/>
      <point x="491" y="706"/>
    </contour>
  </outline>
</glyph>
<glyph name="ae" format="1">
  <advance width="614"/>
  <unicode hex="00E6"/>
  <outline>
    <contour>
      <point x="311" y="249" type="line"/>
      <point x="216" y="98" smooth="yes"/>
      <point x="160" y="44" smooth="yes"/>
      <point x="132" y="44" type="curve" smooth="yes"/>
      <point x="117" y="44" smooth="yes"/>
      <point x="107" y="58" smooth="yes"/>
      <point x="107" y="80" type="curve" smooth="yes"/>
      <point x="107" y="225" smooth="yes"/>
      <point x="163" y="410" smooth="yes"/>
      <point x="281" y="410" type="curve" smooth="yes"/>
      <point x="322" y="410"/>
      <point x="359" y="402"/>
      <point x="401" y="395" type="curve"/>
      <point x="416" y="436" type="line"/>
      <point x="395" y="443"/>
      <point x="338" y="467"/>
      <point x="313" y="467" type="curve"/>
      <point x="199" y="439" smooth="yes"/>
      <point x="40" y="341" smooth="yes"/>
      <point x="40" y="82" type="curve" smooth="yes"/>
      <point x="40" y="28" smooth="yes"/>
      <point x="62" y="-12" smooth="yes"/>
      <point x="102" y="-12" type="curve" smooth="yes"/>
      <point x="152" y="-12"/>
      <point x="211" y="26"/>
      <point x="309" y="180" type="curve"/>
    </contour>
    <contour>
      <point x="441" y="223" type="line" smooth="yes"/>
      <point x="531" y="232" smooth="yes"/>
      <point x="599" y="315" smooth="yes"/>
      <point x="599" y="407" type="curve" smooth="yes"/>
      <point x="599" y="440" smooth="yes"/>
      <point x="550" y="468" smooth="yes"/>
      <point x="514" y="468" type="curve" smooth="yes" name="hr01"/>
      <point x="452" y="468" smooth="yes"/>
      <point x="256" y="392" smooth="yes"/>
      <point x="256" y="122" type="curve" smooth="yes"/>
      <point x="256" y="44" smooth="yes"/>
      <point x="290" y="-12" smooth="yes"/>
      <point x="355" y="-12" type="curve" smooth="yes"/>
      <point x="448" y="-12"/>
      <point x="519" y="80"/>
      <point x="550" y="127" type="curve"/>
      <point x="528" y="149" type="line"/>
      <point x="489" y="92" smooth="yes"/>
      <point x="427" y="44" smooth="yes"/>
      <point x="379" y="44" type="curve" smooth="yes"/>
      <point x="338" y="44" smooth="yes"/>
      <point x="323" y="74" smooth="yes"/>
      <point x="323" y="120" type="curve" smooth="yes"/>
      <point x="323" y="150"/>
      <point x="325" y="182"/>
      <point x="330" y="212" type="curve"/>
    </contour>
    <contour>
      <point x="533" y="400" type="curve" smooth="yes"/>
      <point x="533" y="325" smooth="yes"/>
      <point x="483" y="256" smooth="yes"/>
      <point x="407" y="256" type="curve" smooth="yes"/>
      <point x="339" y="256" type="line"/>
      <point x="362" y="345" smooth="yes"/>
      <point x="408" y="416" smooth="yes"/>
      <point x="479" y="416" type="curve" smooth="yes"/>
      <point x="522" y="416" smooth="yes"/>
      <point x="533" y="412" smooth="yes"/>
    </contour>
  </outline>
</glyph>
<glyph name="eth" format="1">
  <advance width="449"/>
  <unicode hex="00F0"/>
  <outline>
    <contour>
      <point x="160" y="518" type="line" name="hr00"/>
      <point x="268" y="576" type="line"/>
      <point x="322" y="509" smooth="yes"/>
      <point x="360" y="427" smooth="yes"/>
      <point x="360" y="330" type="curve" smooth="yes"/>
      <point x="360" y="306"/>
      <point x="358" y="281"/>
      <point x="353" y="255" type="curve"/>
      <point x="411" y="236" type="line"/>
      <point x="416" y="265" smooth="yes"/>
      <point x="419" y="292" smooth="yes"/>
      <point x="419" y="319" type="curve" smooth="yes"/>
      <point x="419" y="435"/>
      <point x="374" y="529"/>
      <point x="315" y="601" type="curve"/>
      <point x="421" y="659" type="line"/>
      <point x="408" y="695" type="line"/>
      <point x="285" y="635" type="line"/>
      <point x="247" y="675"/>
      <point x="206" y="706"/>
      <point x="168" y="731" type="curve"/>
      <point x="142" y="693" type="line"/>
      <point x="175" y="669"/>
      <point x="208" y="642"/>
      <point x="238" y="612" type="curve"/>
      <point x="144" y="566" type="line"/>
    </contour>
    <component  base="o"/>
  </outline>
</glyph>
<glyph name="divide" format="1">
  <advance width="484"/>
  <unicode hex="00F7"/>
  <outline>
    <contour>
      <point x="249" y="394" type="curve" smooth="yes"/>
      <point x="249" y="376" smooth="yes"/>
      <point x="262" y="362" smooth="yes"/>
      <point x="281" y="362" type="curve" smooth="yes"/>
      <point x="304" y="362" smooth="yes"/>
      <point x="328" y="384" smooth="yes"/>
      <point x="328" y="409" type="curve" smooth="yes"/>
      <point x="328" y="428" smooth="yes"/>
      <point x="314" y="443" smooth="yes"/>
      <point x="295" y="443" type="curve" smooth="yes"/>
      <point x="269" y="443" smooth="yes"/>
      <point x="249" y="417" smooth="yes"/>
    </contour>
    <contour>
      <point x="88" y="249" type="line"/>
      <point x="434" y="249" type="line"/>
      <point x="444" y="306" type="line"/>
      <point x="98" y="306" type="line"/>
    </contour>
    <contour>
      <point x="205" y="144" type="curve" smooth="yes" name="hr01"/>
      <point x="205" y="126" smooth="yes"/>
      <point x="218" y="112" smooth="yes"/>
      <point x="237" y="112" type="curve" smooth="yes"/>
      <point x="260" y="112" smooth="yes"/>
      <point x="284" y="134" smooth="yes"/>
      <point x="284" y="159" type="curve" smooth="yes"/>
      <point x="284" y="178" smooth="yes"/>
      <point x="270" y="193" smooth="yes"/>
      <point x="251" y="193" type="curve" smooth="yes"/>
      <point x="225" y="193" smooth="yes"/>
      <point x="205" y="167" smooth="yes"/>
    </contour>
  </outline>
</glyph>
<glyph name="thorn" format="1">
  <advance width="475"/>
  <unicode hex="00FE"/>
  <outline>
    <contour>
      <point x="-39" y="-253" type="curve" name="hr00"/>
      <point x="-24" y="-262" type="line"/>
      <point x="-16" y="-262"/>
      <point x="17" y="-260"/>
      <point x="51" y="-247" type="curve"/>
      <point x="59" y="-192"/>
      <point x="79" y="-97"/>
      <point x="100" y="5" type="curve"/>
      <point x="123" y="-3"/>
      <point x="147" y="-11"/>
      <point x="162" y="-11" type="curve"/>
      <point x="276" y="17" smooth="yes"/>
      <point x="435" y="115" smooth="yes"/>
      <point x="435" y="374" type="curve" smooth="yes"/>
      <point x="435" y="428" smooth="yes"/>
      <point x="413" y="468" smooth="yes"/>
      <point x="373" y="468" type="curve" smooth="yes"/>
      <point x="320" y="468"/>
      <point x="257" y="425"/>
      <point x="148" y="246" type="curve"/>
      <point x="186" y="429"/>
      <point x="248" y="680"/>
      <point x="284" y="753" type="curve"/>
      <point x="269" y="762" type="line"/>
      <point x="261" y="762"/>
      <point x="230" y="760"/>
      <point x="196" y="747" type="curve"/>
      <point x="173" y="637" smooth="yes"/>
      <point x="134" y="444" smooth="yes"/>
      <point x="92" y="250" type="curve" smooth="yes"/>
      <point x="50" y="56"/>
      <point x="5" y="-140"/>
    </contour>
    <contour>
      <point x="368" y="376" type="curve" smooth="yes"/>
      <point x="368" y="231" smooth="yes"/>
      <point x="312" y="46" smooth="yes"/>
      <point x="194" y="46" type="curve" smooth="yes"/>
      <point x="165" y="46"/>
      <point x="138" y="49"/>
      <point x="110" y="54" type="curve"/>
      <point x="117" y="87"/>
      <point x="124" y="119"/>
      <point x="130" y="151" type="curve"/>
      <point x="246" y="344" smooth="yes"/>
      <point x="311" y="412" smooth="yes"/>
      <point x="343" y="412" type="curve" smooth="yes"/>
      <point x="358" y="412" smooth="yes"/>
      <point x="368" y="398" smooth="yes"/>
    </contour>
  </outline>
</glyph>
<glyph name="dotlessi" format="1">
  <advance width="244"/>
  <unicode hex="0131"/>
  <outline>
    <contour>
      <point x="125" y="451" type="curve" name="hr00"/>
      <point x="70" y="198" smooth="yes"/>
      <point x="50" y="71" smooth="yes"/>
      <point x="50" y="23" type="curve" smooth="yes"/>
      <point x="50" y="-7"/>
      <point x="63" y="-12"/>
      <point x="67" y="-12" type="curve"/>
      <point x="191" y="7" type="line"/>
      <point x="197" y="26" type="line"/>
      <point x="183" y="37"/>
      <point x="136" y="50"/>
      <point x="107" y="53" type="curve"/>
      <point x="107" y="117"/>
      <point x="161" y="348"/>
      <point x="204" y="457" type="curve"/>
      <point x="189" y="466" type="line"/>
      <point x="181" y="466"/>
      <point x="159" y="464"/>
    </contour>
  </outline>
</glyph>
<glyph name="kgreenlandic" format="1">
  <advance width="481"/>
  <unicode hex="0138"/>
  <outline>
    <contour>
      <point x="174" y="247" type="curve" name="hr00"/>
      <point x="190" y="343" smooth="yes"/>
      <point x="195" y="398" smooth="yes"/>
      <point x="195" y="427" type="curve" smooth="yes"/>
      <point x="195" y="457"/>
      <point x="190" y="462"/>
      <point x="186" y="462" type="curve"/>
      <point x="62" y="443" type="line"/>
      <point x="56" y="424" type="line"/>
      <point x="73" y="411"/>
      <point x="105" y="397"/>
      <point x="136" y="394" type="curve"/>
      <point x="136" y="315"/>
      <point x="90" y="106"/>
      <point x="40" y="-3" type="curve"/>
      <point x="55" y="-12" type="line"/>
      <point x="63" y="-12"/>
      <point x="95" y="-10"/>
      <point x="130" y="3" type="curve"/>
      <point x="141" y="61"/>
      <point x="151" y="111"/>
      <point x="159" y="156" type="curve"/>
      <point x="272" y="346" smooth="yes"/>
      <point x="338" y="412" smooth="yes"/>
      <point x="372" y="412" type="curve" smooth="yes"/>
      <point x="389" y="412" smooth="yes"/>
      <point x="397" y="396" smooth="yes"/>
      <point x="397" y="373" type="curve" smooth="yes"/>
      <point x="397" y="327"/>
      <point x="354" y="252"/>
      <point x="241" y="219" type="curve"/>
      <point x="241" y="157"/>
      <point x="298" y="-12"/>
      <point x="321" y="-12" type="curve"/>
      <point x="445" y="7" type="line"/>
      <point x="451" y="26" type="line"/>
      <point x="437" y="37"/>
      <point x="390" y="50"/>
      <point x="361" y="53" type="curve"/>
      <point x="338" y="94"/>
      <point x="308" y="144"/>
      <point x="293" y="195" type="curve"/>
      <point x="420" y="252" smooth="yes"/>
      <point x="461" y="336" smooth="yes"/>
      <point x="461" y="384" type="curve" smooth="yes"/>
      <point x="461" y="438" smooth="yes"/>
      <point x="439" y="468" smooth="yes"/>
      <point x="399" y="468" type="curve" smooth="yes"/>
      <point x="345" y="468"/>
      <point x="283" y="426"/>
    </contour>
  </outline>
</glyph>
<glyph name="Lslash" format="1">
  <advance width="499"/>
  <unicode hex="0141"/>
  <outline>
    <contour>
      <point x="303" y="456" type="curve" name="hr00"/>
      <point x="237" y="420"/>
      <point x="123" y="365"/>
      <point x="57" y="343" type="curve"/>
      <point x="59" y="330" type="line"/>
      <point x="62" y="326"/>
      <point x="73" y="316"/>
      <point x="97" y="302" type="curve"/>
      <point x="206" y="357"/>
      <point x="281" y="398"/>
      <point x="328" y="426" type="curve"/>
      <point x="326" y="438" type="line"/>
      <point x="324" y="440"/>
      <point x="317" y="446"/>
    </contour>
    <component  base="L"/>
  </outline>
</glyph>
<glyph name="lslash" format="1">
  <advance width="234"/>
  <unicode hex="0142"/>
  <outline>
    <contour>
      <point x="239" y="456" type="curve" name="hr00"/>
      <point x="179" y="420"/>
      <point x="73" y="365"/>
      <point x="13" y="343" type="curve"/>
      <point x="15" y="330" type="line"/>
      <point x="18" y="326"/>
      <point x="29" y="316"/>
      <point x="53" y="302" type="curve"/>
      <point x="152" y="357" smooth="yes"/>
      <point x="221" y="398" smooth="yes"/>
      <point x="264" y="426" type="curve" smooth="yes"/>
      <point x="262" y="438" type="line"/>
      <point x="260" y="440"/>
      <point x="253" y="446"/>
    </contour>
    <component  base="l"/>
  </outline>
</glyph>
<glyph name="Eng" format="1">
  <advance width="760"/>
  <unicode hex="014A"/>
  <outline>
    <contour>
      <point x="405" y="-189" type="curve" name="hr00"/>
      <point x="367" y="-189"/>
      <point x="334" y="-184"/>
      <point x="295" y="-174" type="curve"/>
      <point x="278" y="-226" type="line"/>
      <point x="298" y="-234"/>
      <point x="347" y="-252"/>
      <point x="371" y="-252" type="curve"/>
      <point x="476" y="-226" smooth="yes"/>
      <point x="560" y="-150" smooth="yes"/>
      <point x="599" y="58" type="curve" smooth="yes"/>
      <point x="709" y="641" type="line"/>
      <point x="735" y="649"/>
      <point x="765" y="663"/>
      <point x="790" y="678" type="curve"/>
      <point x="784" y="700" type="line"/>
      <point x="581" y="700" type="line"/>
      <point x="573" y="674" type="line"/>
      <point x="599" y="663"/>
      <point x="626" y="652"/>
      <point x="654" y="642" type="curve"/>
      <point x="559" y="126" type="line"/>
      <point x="264" y="700" type="line"/>
      <point x="127" y="700" type="line"/>
      <point x="121" y="678" type="line"/>
      <point x="144" y="664"/>
      <point x="170" y="652"/>
      <point x="194" y="643" type="curve"/>
      <point x="84" y="58" type="line"/>
      <point x="59" y="49"/>
      <point x="30" y="36"/>
      <point x="6" y="22" type="curve"/>
      <point x="12" y="0" type="line"/>
      <point x="215" y="0" type="line"/>
      <point x="223" y="26" type="line"/>
      <point x="196" y="37"/>
      <point x="169" y="48"/>
      <point x="141" y="58" type="curve"/>
      <point x="235" y="583" type="line"/>
      <point x="525" y="15" type="line"/>
      <point x="503" y="-92" smooth="yes"/>
      <point x="473" y="-189" smooth="yes"/>
    </contour>
  </outline>
</glyph>
<glyph name="eng" format="1">
  <advance width="511"/>
  <unicode hex="014B"/>
  <outline>
    <contour>
      <point x="184" y="-189" type="curve" smooth="yes" name="hr00"/>
      <point x="146" y="-189"/>
      <point x="113" y="-184"/>
      <point x="74" y="-174" type="curve"/>
      <point x="57" y="-226" type="line"/>
      <point x="77" y="-234"/>
      <point x="126" y="-252"/>
      <point x="150" y="-252" type="curve"/>
      <point x="255" y="-226" smooth="yes"/>
      <point x="324" y="-151" smooth="yes"/>
      <point x="382" y="53" type="curve" smooth="yes"/>
      <point x="415" y="168" smooth="yes"/>
      <point x="461" y="320" smooth="yes"/>
      <point x="461" y="374" type="curve" smooth="yes"/>
      <point x="461" y="428" smooth="yes"/>
      <point x="439" y="468" smooth="yes"/>
      <point x="399" y="468" type="curve" smooth="yes"/>
      <point x="346" y="468"/>
      <point x="283" y="425"/>
      <point x="174" y="247" type="curve"/>
      <point x="190" y="343" smooth="yes"/>
      <point x="195" y="398" smooth="yes"/>
      <point x="195" y="427" type="curve" smooth="yes"/>
      <point x="195" y="457"/>
      <point x="190" y="462"/>
      <point x="186" y="462" type="curve"/>
      <point x="62" y="443" type="line"/>
      <point x="56" y="424" type="line"/>
      <point x="73" y="411"/>
      <point x="105" y="397"/>
      <point x="136" y="394" type="curve"/>
      <point x="136" y="315"/>
      <point x="90" y="106"/>
      <point x="40" y="-3" type="curve"/>
      <point x="55" y="-12" type="line"/>
      <point x="63" y="-12"/>
      <point x="95" y="-10"/>
      <point x="130" y="3" type="curve"/>
      <point x="141" y="61"/>
      <point x="151" y="111"/>
      <point x="159" y="156" type="curve"/>
      <point x="273" y="346" smooth="yes"/>
      <point x="338" y="412" smooth="yes"/>
      <point x="369" y="412" type="curve" smooth="yes"/>
      <point x="384" y="412" smooth="yes"/>
      <point x="394" y="406" smooth="yes"/>
      <point x="394" y="378" type="curve" smooth="yes"/>
      <point x="394" y="296" smooth="yes"/>
      <point x="308" y="-21" smooth="yes"/>
      <point x="247" y="-145" type="curve" smooth="yes"/>
      <point x="232" y="-176" smooth="yes"/>
      <point x="213" y="-189" smooth="yes"/>
    </contour>
  </outline>
</glyph>
<glyph name="OE" format="1">
  <advance width="853"/>
  <unicode hex="0152"/>
  <outline>
    <contour>
      <point x="535" y="696" type="line" name="hr00"/>
      <point x="510" y="702" smooth="yes"/>
      <point x="482" y="706" smooth="yes"/>
      <point x="451" y="706" type="curve" smooth="yes"/>
      <point x="200" y="706" smooth="yes"/>
      <point x="50" y="457" smooth="yes"/>
      <point x="50" y="242" type="curve" smooth="yes"/>
      <point x="50" y="101" smooth="yes"/>
      <point x="128" y="-12" smooth="yes"/>
      <point x="266" y="-12" type="curve" smooth="yes"/>
      <point x="325" y="-12"/>
      <point x="381" y="-1"/>
      <point x="420" y="11" type="curve"/>
      <point x="408" y="70" type="line"/>
      <point x="372" y="51" smooth="yes"/>
      <point x="331" y="39" smooth="yes"/>
      <point x="285" y="39" type="curve" smooth="yes"/>
      <point x="195" y="39" smooth="yes"/>
      <point x="130" y="123" smooth="yes"/>
      <point x="130" y="241" type="curve" smooth="yes"/>
      <point x="130" y="436" smooth="yes"/>
      <point x="220" y="653" smooth="yes"/>
      <point x="427" y="653" type="curve" smooth="yes"/>
      <point x="463" y="653"/>
      <point x="510" y="640"/>
      <point x="538" y="620" type="curve"/>
    </contour>
    <component  base="E" xOffset="283"/>
  </outline>
</glyph>
<glyph name="oe" format="1">
  <advance width="631"/>
  <unicode hex="0153"/>
  <outline>
    <contour>
      <point x="443" y="223" type="line" smooth="yes" name="hr00"/>
      <point x="533" y="232" smooth="yes"/>
      <point x="601" y="315" smooth="yes"/>
      <point x="601" y="407" type="curve" smooth="yes"/>
      <point x="601" y="440" smooth="yes"/>
      <point x="552" y="468" smooth="yes"/>
      <point x="516" y="468" type="curve" smooth="yes"/>
      <point x="490" y="468"/>
      <point x="441" y="455"/>
      <point x="393" y="420" type="curve"/>
      <point x="372" y="450" smooth="yes"/>
      <point x="337" y="468" smooth="yes"/>
      <point x="288" y="468" type="curve" smooth="yes"/>
      <point x="205" y="468" smooth="yes"/>
      <point x="30" y="388" smooth="yes"/>
      <point x="30" y="133" type="curve" smooth="yes"/>
      <point x="30" y="44" smooth="yes"/>
      <point x="71" y="-12" smooth="yes"/>
      <point x="153" y="-12" type="curve" smooth="yes"/>
      <point x="185" y="-12"/>
      <point x="233" y="0"/>
      <point x="280" y="30" type="curve"/>
      <point x="296" y="4" smooth="yes"/>
      <point x="322" y="-12" smooth="yes"/>
      <point x="357" y="-12" type="curve" smooth="yes"/>
      <point x="450" y="-12"/>
      <point x="521" y="80"/>
      <point x="552" y="127" type="curve"/>
      <point x="530" y="149" type="line"/>
      <point x="491" y="92" smooth="yes"/>
      <point x="429" y="44" smooth="yes"/>
      <point x="381" y="44" type="curve" smooth="yes"/>
      <point x="340" y="44" smooth="yes"/>
      <point x="325" y="74" smooth="yes"/>
      <point x="325" y="120" type="curve" smooth="yes"/>
      <point x="325" y="150"/>
      <point x="327" y="182"/>
      <point x="332" y="212" type="curve"/>
    </contour>
    <contour>
      <point x="258" y="122" type="curve" smooth="yes"/>
      <point x="258" y="108"/>
      <point x="259" y="94"/>
      <point x="261" y="82" type="curve"/>
      <point x="230" y="52" smooth="yes"/>
      <point x="194" y="36" smooth="yes"/>
      <point x="158" y="36" type="curve" smooth="yes"/>
      <point x="115" y="36" smooth="yes"/>
      <point x="94" y="70" smooth="yes"/>
      <point x="94" y="130" type="curve" smooth="yes"/>
      <point x="94" y="314" smooth="yes"/>
      <point x="186" y="426" smooth="yes"/>
      <point x="286" y="426" type="curve" smooth="yes"/>
      <point x="315" y="426"/>
      <point x="337" y="410"/>
      <point x="347" y="380" type="curve"/>
      <point x="298" y="326" smooth="yes"/>
      <point x="258" y="244" smooth="yes"/>
    </contour>
    <contour>
      <point x="535" y="400" type="curve" smooth="yes"/>
      <point x="535" y="325" smooth="yes"/>
      <point x="485" y="256" smooth="yes"/>
      <point x="409" y="256" type="curve" smooth="yes"/>
      <point x="341" y="256" type="line"/>
      <point x="364" y="345" smooth="yes"/>
      <point x="410" y="416" smooth="yes"/>
      <point x="481" y="416" type="curve" smooth="yes"/>
      <point x="524" y="416" smooth="yes"/>
      <point x="535" y="412" smooth="yes"/>
    </contour>
  </outline>
</glyph>
<glyph name="florin" format="1">
  <advance width="484"/>
  <unicode hex="0192"/>
  <outline>
    <contour>
      <point x="101" y="263" type="line" name="hr00"/>
      <point x="191" y="263" type="line"/>
      <point x="132" y="-73" type="line" smooth="yes"/>
      <point x="122" y="-132" smooth="yes"/>
      <point x="99" y="-186" smooth="yes"/>
      <point x="52" y="-186" type="curve" smooth="yes"/>
      <point x="26" y="-186"/>
      <point x="-3" y="-177"/>
      <point x="-20" y="-163" type="curve"/>
      <point x="-44" y="-202" type="line"/>
      <point x="-24" y="-219" smooth="yes"/>
      <point x="14" y="-231" smooth="yes"/>
      <point x="47" y="-231" type="curve" smooth="yes"/>
      <point x="121" y="-231" smooth="yes"/>
      <point x="179" y="-188" smooth="yes"/>
      <point x="198" y="-82" type="curve" smooth="yes"/>
      <point x="258" y="263" type="line"/>
      <point x="392" y="263" type="line"/>
      <point x="398" y="300" type="line"/>
      <point x="265" y="300" type="line"/>
      <point x="294" y="465" type="line" smooth="yes"/>
      <point x="303" y="516" smooth="yes"/>
      <point x="317" y="552" smooth="yes"/>
      <point x="363" y="552" type="curve" smooth="yes"/>
      <point x="403" y="552"/>
      <point x="438" y="544"/>
      <point x="480" y="536" type="curve"/>
      <point x="496" y="585" type="line"/>
      <point x="476" y="592" smooth="yes"/>
      <point x="421" y="613" smooth="yes"/>
      <point x="397" y="613" type="curve" smooth="yes"/>
      <point x="312" y="613" smooth="yes"/>
      <point x="238" y="530" smooth="yes"/>
      <point x="219" y="424" type="curve" smooth="yes"/>
      <point x="197" y="300" type="line"/>
      <point x="107" y="300" type="line"/>
    </contour>
  </outline>
</glyph>
<glyph name="dotlessj" format="1">
  <advance width="245"/>
  <unicode hex="0237"/>
  <outline>
    <contour>
      <point x="207" y="427" type="line" name="hr00"/>
      <point x="207" y="457" smooth="yes"/>
      <point x="202" y="462" smooth="yes"/>
      <point x="198" y="462" type="curve" smooth="yes"/>
      <point x="62" y="443" type="line"/>
      <point x="56" y="424" type="line"/>
      <point x="73" y="411"/>
      <point x="105" y="397"/>
      <point x="136" y="394" type="curve"/>
      <point x="79" y="69" type="line" smooth="yes"/>
      <point x="60" y="-40"/>
      <point x="15" y="-138"/>
      <point x="-60" y="-241" type="curve"/>
      <point x="-36" y="-262" type="line"/>
      <point x="70" y="-142" smooth="yes"/>
      <point x="121" y="-14" smooth="yes"/>
      <point x="138" y="72" type="curve" smooth="yes"/>
    </contour>
  </outline>
</glyph>
